G75*
G70*
%OFA0B0*%
%FSLAX24Y24*%
%IPPOS*%
%LPD*%
%AMOC8*
5,1,8,0,0,1.08239X$1,22.5*
%
%ADD10C,0.0090*%
%ADD11C,0.0060*%
%ADD12C,0.0080*%
%ADD13C,0.0030*%
%ADD14C,0.0160*%
%ADD15C,0.0100*%
%ADD16C,0.0000*%
%ADD17C,0.0050*%
%ADD18C,0.0010*%
%ADD19C,0.0394*%
%ADD20R,0.0005X0.0005*%
%ADD21R,0.0035X0.0005*%
%ADD22R,0.0025X0.0005*%
%ADD23R,0.0060X0.0005*%
%ADD24R,0.0090X0.0005*%
%ADD25R,0.0085X0.0005*%
%ADD26R,0.0110X0.0005*%
%ADD27R,0.0115X0.0005*%
%ADD28R,0.0120X0.0005*%
%ADD29R,0.0125X0.0005*%
%ADD30R,0.0150X0.0005*%
%ADD31R,0.0145X0.0005*%
%ADD32R,0.0155X0.0005*%
%ADD33R,0.0160X0.0005*%
%ADD34R,0.0170X0.0005*%
%ADD35R,0.0175X0.0005*%
%ADD36R,0.0180X0.0005*%
%ADD37R,0.0195X0.0005*%
%ADD38R,0.0190X0.0005*%
%ADD39R,0.0200X0.0005*%
%ADD40R,0.0205X0.0005*%
%ADD41R,0.0010X0.0005*%
%ADD42R,0.0220X0.0005*%
%ADD43R,0.0225X0.0005*%
%ADD44R,0.0230X0.0005*%
%ADD45R,0.0235X0.0005*%
%ADD46R,0.0245X0.0005*%
%ADD47R,0.0240X0.0005*%
%ADD48R,0.0250X0.0005*%
%ADD49R,0.0015X0.0005*%
%ADD50R,0.0255X0.0005*%
%ADD51R,0.0260X0.0005*%
%ADD52R,0.0020X0.0005*%
%ADD53R,0.0270X0.0005*%
%ADD54R,0.0030X0.0005*%
%ADD55R,0.0265X0.0005*%
%ADD56R,0.0275X0.0005*%
%ADD57R,0.0040X0.0005*%
%ADD58R,0.0045X0.0005*%
%ADD59R,0.0280X0.0005*%
%ADD60R,0.0050X0.0005*%
%ADD61R,0.0055X0.0005*%
%ADD62R,0.0065X0.0005*%
%ADD63R,0.0285X0.0005*%
%ADD64R,0.0070X0.0005*%
%ADD65R,0.0290X0.0005*%
%ADD66R,0.0075X0.0005*%
%ADD67R,0.0295X0.0005*%
%ADD68R,0.0080X0.0005*%
%ADD69R,0.0095X0.0005*%
%ADD70R,0.0100X0.0005*%
%ADD71R,0.0105X0.0005*%
%ADD72R,0.0300X0.0005*%
%ADD73R,0.0130X0.0005*%
%ADD74R,0.0305X0.0005*%
%ADD75R,0.0135X0.0005*%
%ADD76R,0.0140X0.0005*%
%ADD77R,0.0165X0.0005*%
%ADD78R,0.0185X0.0005*%
%ADD79R,0.0210X0.0005*%
%ADD80R,0.0215X0.0005*%
D10*
X001250Y012676D02*
X001387Y012676D01*
X001455Y012744D01*
X001455Y013018D01*
X001387Y013086D01*
X001250Y013086D01*
X001182Y013018D01*
X001182Y012744D01*
X001250Y012676D01*
X001642Y012676D02*
X001642Y013086D01*
X001916Y012676D01*
X001916Y013086D01*
X002882Y013018D02*
X002882Y012744D01*
X002950Y012676D01*
X003087Y012676D01*
X003155Y012744D01*
X003155Y013018D01*
X003087Y013086D01*
X002950Y013086D01*
X002882Y013018D01*
X003342Y013086D02*
X003616Y013086D01*
X003802Y013086D02*
X004076Y013086D01*
X003802Y013086D02*
X003802Y012676D01*
X003802Y012881D02*
X003939Y012881D01*
X003479Y012881D02*
X003342Y012881D01*
X003342Y012676D02*
X003342Y013086D01*
D11*
X021186Y009438D02*
X021186Y009011D01*
X021186Y007938D02*
X021186Y007511D01*
X020973Y007725D02*
X021400Y007725D01*
X015681Y005495D02*
X015681Y005411D01*
X015681Y005245D02*
X015598Y005245D01*
X015681Y005245D02*
X015681Y004911D01*
X015598Y004911D02*
X015765Y004911D01*
X015942Y004994D02*
X016025Y004911D01*
X016275Y004911D01*
X016275Y004828D02*
X016275Y005245D01*
X016025Y005245D01*
X015942Y005161D01*
X015942Y004994D01*
X016192Y004744D02*
X016275Y004828D01*
X016192Y004744D02*
X016108Y004744D01*
X016457Y004994D02*
X016541Y004911D01*
X016707Y004911D01*
X016791Y005078D02*
X016457Y005078D01*
X016457Y005161D02*
X016457Y004994D01*
X016457Y005161D02*
X016541Y005245D01*
X016707Y005245D01*
X016791Y005161D01*
X016791Y005078D01*
X016973Y005078D02*
X017140Y005245D01*
X017223Y005245D01*
X016973Y005245D02*
X016973Y004911D01*
X017918Y004994D02*
X018002Y004911D01*
X018168Y004911D01*
X018252Y004994D01*
X018434Y004994D02*
X018517Y004911D01*
X018684Y004911D01*
X018767Y004994D01*
X018767Y005161D01*
X018684Y005245D01*
X018517Y005245D01*
X018434Y005161D01*
X018434Y004994D01*
X017918Y004994D02*
X017918Y005328D01*
X018002Y005411D01*
X018168Y005411D01*
X018252Y005328D01*
X018949Y005245D02*
X018949Y004994D01*
X019033Y004911D01*
X019283Y004911D01*
X019283Y005245D01*
X019465Y005245D02*
X019715Y005245D01*
X019799Y005161D01*
X019799Y004911D01*
X020064Y004994D02*
X020147Y004911D01*
X020064Y004994D02*
X020064Y005328D01*
X019981Y005245D02*
X020147Y005245D01*
X020324Y005161D02*
X020408Y005245D01*
X020575Y005245D01*
X020658Y005161D01*
X020658Y005078D01*
X020324Y005078D01*
X020324Y005161D02*
X020324Y004994D01*
X020408Y004911D01*
X020575Y004911D01*
X020840Y004911D02*
X020840Y005245D01*
X021007Y005245D02*
X021090Y005245D01*
X021007Y005245D02*
X020840Y005078D01*
X021632Y005078D02*
X021799Y004911D01*
X021966Y005078D01*
X021966Y005411D01*
X022148Y005328D02*
X022231Y005411D01*
X022398Y005411D01*
X022481Y005328D01*
X022148Y004994D01*
X022231Y004911D01*
X022398Y004911D01*
X022481Y004994D01*
X022481Y005328D01*
X022148Y005328D02*
X022148Y004994D01*
X022664Y004994D02*
X022664Y004911D01*
X022747Y004911D01*
X022747Y004994D01*
X022664Y004994D01*
X022921Y004994D02*
X023005Y004911D01*
X023171Y004911D01*
X023255Y004994D01*
X023255Y005328D01*
X023171Y005411D01*
X023005Y005411D01*
X022921Y005328D01*
X022921Y005245D01*
X023005Y005161D01*
X023255Y005161D01*
X023437Y005245D02*
X023687Y005245D01*
X023771Y005161D01*
X023771Y004994D01*
X023687Y004911D01*
X023437Y004911D01*
X023437Y005411D01*
X021632Y005411D02*
X021632Y005078D01*
X021476Y004361D02*
X021810Y003861D01*
X021810Y004361D01*
X022075Y004195D02*
X022242Y004195D01*
X022325Y004111D01*
X022325Y003861D01*
X022075Y003861D01*
X021992Y003944D01*
X022075Y004028D01*
X022325Y004028D01*
X022507Y003861D02*
X022507Y004195D01*
X022757Y004195D01*
X022841Y004111D01*
X022841Y003861D01*
X023023Y003944D02*
X023106Y003861D01*
X023356Y003861D01*
X023539Y003944D02*
X023622Y003861D01*
X023872Y003861D01*
X023872Y003778D02*
X023789Y003694D01*
X023705Y003694D01*
X023872Y003778D02*
X023872Y004195D01*
X023539Y004195D02*
X023539Y003944D01*
X023356Y004195D02*
X023106Y004195D01*
X023023Y004111D01*
X023023Y003944D01*
X021476Y003861D02*
X021476Y004361D01*
X021127Y004278D02*
X021127Y004195D01*
X020960Y004028D01*
X020960Y003944D01*
X021044Y003861D01*
X021127Y003861D01*
X021294Y004028D01*
X021294Y003861D02*
X020960Y004195D01*
X020960Y004278D01*
X021044Y004361D01*
X021127Y004278D01*
X020778Y004111D02*
X020695Y004195D01*
X020528Y004195D01*
X020445Y004111D01*
X020445Y003944D01*
X020528Y003861D01*
X020695Y003861D01*
X020778Y003944D01*
X020778Y004111D01*
X020263Y004111D02*
X020263Y004028D01*
X019929Y004028D01*
X019929Y004111D02*
X019929Y003944D01*
X020013Y003861D01*
X020179Y003861D01*
X019747Y003861D02*
X019414Y003861D01*
X019414Y004361D01*
X019929Y004111D02*
X020013Y004195D01*
X020179Y004195D01*
X020263Y004111D01*
X018716Y004195D02*
X018716Y003778D01*
X018632Y003694D01*
X018549Y003694D01*
X018466Y003861D02*
X018716Y003861D01*
X018466Y003861D02*
X018382Y003944D01*
X018382Y004195D01*
X018200Y004111D02*
X018117Y004195D01*
X017867Y004195D01*
X017867Y004361D02*
X017867Y003861D01*
X018117Y003861D01*
X018200Y003944D01*
X018200Y004111D01*
X019465Y004911D02*
X019465Y005245D01*
X015416Y005161D02*
X015416Y005078D01*
X015082Y005078D01*
X015082Y005161D02*
X015082Y004994D01*
X015166Y004911D01*
X015332Y004911D01*
X014900Y004994D02*
X014900Y005161D01*
X014733Y005161D01*
X014567Y004994D02*
X014650Y004911D01*
X014817Y004911D01*
X014900Y004994D01*
X015082Y005161D02*
X015166Y005245D01*
X015332Y005245D01*
X015416Y005161D01*
X014900Y005328D02*
X014817Y005411D01*
X014650Y005411D01*
X014567Y005328D01*
X014567Y004994D01*
X017867Y003028D02*
X017950Y003111D01*
X018117Y003111D01*
X018200Y003028D01*
X018200Y002945D01*
X017867Y002611D01*
X018200Y002611D01*
X018382Y002694D02*
X018716Y003028D01*
X018716Y002694D01*
X018632Y002611D01*
X018466Y002611D01*
X018382Y002694D01*
X018382Y003028D01*
X018466Y003111D01*
X018632Y003111D01*
X018716Y003028D01*
X018898Y002945D02*
X019065Y003111D01*
X019065Y002611D01*
X019231Y002611D02*
X018898Y002611D01*
X019414Y002611D02*
X019747Y002611D01*
X019580Y002611D02*
X019580Y003111D01*
X019414Y002945D01*
X019929Y003028D02*
X020013Y003111D01*
X020179Y003111D01*
X020263Y003028D01*
X019929Y002694D01*
X020013Y002611D01*
X020179Y002611D01*
X020263Y002694D01*
X020263Y003028D01*
X020445Y002861D02*
X020778Y002861D01*
X020960Y002694D02*
X021294Y003028D01*
X021294Y002694D01*
X021211Y002611D01*
X021044Y002611D01*
X020960Y002694D01*
X020960Y003028D01*
X021044Y003111D01*
X021211Y003111D01*
X021294Y003028D01*
X021476Y003111D02*
X021810Y003111D01*
X021810Y003028D01*
X021476Y002694D01*
X021476Y002611D01*
X020695Y002611D02*
X020695Y003111D01*
X020445Y002861D01*
X019929Y002694D02*
X019929Y003028D01*
D12*
X013088Y003505D02*
X013088Y003820D01*
X013088Y003505D02*
X012852Y003505D01*
X012222Y003505D02*
X011985Y003505D01*
X011985Y003820D01*
X010932Y005131D02*
X010774Y005131D01*
X009999Y005131D02*
X009774Y005131D01*
X008999Y005131D02*
X008841Y005131D01*
X008582Y005131D02*
X008424Y005131D01*
X007649Y005131D02*
X007424Y005131D01*
X006649Y005131D02*
X006491Y005131D01*
X006182Y005131D02*
X006024Y005131D01*
X005249Y005131D02*
X005024Y005131D01*
X004249Y005131D02*
X004091Y005131D01*
X004312Y005681D02*
X005961Y005681D01*
X006712Y005681D02*
X008361Y005681D01*
X009062Y005681D02*
X010711Y005681D01*
X015937Y007632D02*
X015937Y008530D01*
X016237Y008530D01*
X016237Y008630D01*
X016237Y008530D02*
X016537Y008530D01*
X016537Y007632D01*
X016237Y007632D01*
X016237Y007532D01*
X016237Y007632D02*
X015937Y007632D01*
X017787Y007731D02*
X017887Y007731D01*
X017887Y008031D01*
X019887Y008031D01*
X019887Y007731D01*
X019987Y007731D01*
X019887Y007731D02*
X019887Y007431D01*
X017887Y007431D01*
X017887Y007731D01*
X017887Y009031D02*
X017887Y009331D01*
X017787Y009331D01*
X017887Y009331D02*
X017887Y009631D01*
X019887Y009631D01*
X019887Y009331D01*
X019987Y009331D01*
X019887Y009331D02*
X019887Y009031D01*
X017887Y009031D01*
X019137Y010481D02*
X019137Y010731D01*
X018137Y010731D01*
X019137Y010731D02*
X020137Y010731D01*
X019137Y010731D02*
X019137Y010981D01*
X019137Y011931D02*
X019137Y012181D01*
X020137Y012181D01*
X019137Y012181D02*
X019137Y012431D01*
X019137Y012181D02*
X018137Y012181D01*
X019137Y014031D02*
X019137Y014281D01*
X018137Y014281D01*
X019137Y014281D02*
X020137Y014281D01*
X019137Y014281D02*
X019137Y014531D01*
X019147Y015921D02*
X019287Y015921D01*
X019357Y015991D01*
X019357Y016131D01*
X019217Y016131D01*
X019077Y016271D02*
X019077Y015991D01*
X019147Y015921D01*
X018897Y015921D02*
X018897Y016201D01*
X018756Y016341D01*
X018616Y016201D01*
X018616Y015921D01*
X018296Y015921D02*
X018296Y016341D01*
X018156Y016341D02*
X018436Y016341D01*
X018616Y016131D02*
X018897Y016131D01*
X019077Y016271D02*
X019147Y016341D01*
X019287Y016341D01*
X019357Y016271D01*
X019537Y016341D02*
X019537Y015921D01*
X019817Y015921D01*
X019677Y016131D02*
X019537Y016131D01*
X019537Y016341D02*
X019817Y016341D01*
X017976Y015921D02*
X017696Y015921D01*
X017696Y016341D01*
X017516Y016271D02*
X017445Y016341D01*
X017305Y016341D01*
X017235Y016271D01*
X017235Y015991D01*
X017305Y015921D01*
X017445Y015921D01*
X017516Y015991D01*
X017516Y016271D01*
X017055Y016341D02*
X017055Y016061D01*
X016915Y015921D01*
X016775Y016061D01*
X016775Y016341D01*
X016134Y016341D02*
X016134Y015921D01*
X015854Y015921D02*
X015854Y016341D01*
X015674Y016271D02*
X015604Y016341D01*
X015464Y016341D01*
X015394Y016271D01*
X015394Y015991D01*
X015464Y015921D01*
X015604Y015921D01*
X015674Y015991D01*
X015674Y016131D01*
X015534Y016131D01*
X015854Y016131D02*
X016134Y016131D01*
X015227Y015921D02*
X015087Y015921D01*
X015157Y015921D02*
X015157Y016341D01*
X015087Y016341D02*
X015227Y016341D01*
X014907Y016341D02*
X014907Y015921D01*
X014627Y015921D02*
X014627Y016341D01*
X014627Y016131D02*
X014907Y016131D01*
X007388Y008557D02*
X007388Y008242D01*
X007388Y008557D02*
X007152Y008557D01*
X006522Y008557D02*
X006285Y008557D01*
X006285Y008242D01*
X005288Y008320D02*
X005288Y008005D01*
X005052Y008005D01*
X004422Y008005D02*
X004185Y008005D01*
X004185Y008320D01*
D13*
X002900Y009173D02*
X002804Y009076D01*
X002707Y009173D01*
X002707Y009366D01*
X002606Y009318D02*
X002557Y009366D01*
X002461Y009366D01*
X002412Y009318D01*
X002412Y009269D01*
X002461Y009221D01*
X002606Y009221D01*
X002606Y009124D02*
X002606Y009318D01*
X002606Y009124D02*
X002557Y009076D01*
X002461Y009076D01*
X002412Y009124D01*
X002311Y009028D02*
X002118Y009028D01*
X001920Y009076D02*
X001920Y009366D01*
X002016Y009366D02*
X001823Y009366D01*
X001722Y009269D02*
X001625Y009366D01*
X001528Y009269D01*
X001528Y009076D01*
X001427Y009124D02*
X001379Y009076D01*
X001234Y009076D01*
X001234Y009366D01*
X001379Y009366D01*
X001427Y009318D01*
X001427Y009269D01*
X001379Y009221D01*
X001234Y009221D01*
X001379Y009221D02*
X001427Y009173D01*
X001427Y009124D01*
X001528Y009221D02*
X001722Y009221D01*
X001722Y009269D02*
X001722Y009076D01*
X002900Y009173D02*
X002900Y009366D01*
X003881Y009391D02*
X003881Y009294D01*
X003930Y009246D01*
X004123Y009246D01*
X004172Y009294D01*
X004172Y009391D01*
X004123Y009439D01*
X004172Y009541D02*
X003978Y009734D01*
X003930Y009734D01*
X003881Y009686D01*
X003881Y009589D01*
X003930Y009541D01*
X003930Y009439D02*
X003881Y009391D01*
X004172Y009541D02*
X004172Y009734D01*
X003823Y010146D02*
X003630Y010146D01*
X003581Y010194D01*
X003581Y010291D01*
X003630Y010339D01*
X003726Y010339D02*
X003726Y010243D01*
X003726Y010339D02*
X003823Y010339D01*
X003872Y010291D01*
X003872Y010194D01*
X003823Y010146D01*
X003872Y010441D02*
X003581Y010441D01*
X003872Y010634D01*
X003581Y010634D01*
X003581Y010735D02*
X003581Y010880D01*
X003630Y010929D01*
X003823Y010929D01*
X003872Y010880D01*
X003872Y010735D01*
X003581Y010735D01*
X003630Y011246D02*
X003678Y011246D01*
X003726Y011294D01*
X003726Y011439D01*
X003630Y011439D02*
X003581Y011391D01*
X003581Y011294D01*
X003630Y011246D01*
X003823Y011246D02*
X003872Y011294D01*
X003872Y011391D01*
X003823Y011439D01*
X003630Y011439D01*
X003581Y011541D02*
X003775Y011541D01*
X003872Y011637D01*
X003775Y011734D01*
X003581Y011734D01*
X004362Y012126D02*
X004362Y012416D01*
X004507Y012416D01*
X004556Y012368D01*
X004556Y012271D01*
X004507Y012223D01*
X004362Y012223D01*
X004459Y012223D02*
X004556Y012126D01*
X004657Y012126D02*
X004850Y012126D01*
X004754Y012126D02*
X004754Y012416D01*
X004657Y012319D01*
X005952Y012136D02*
X005952Y011846D01*
X006097Y011846D01*
X006145Y011894D01*
X006145Y012088D01*
X006097Y012136D01*
X005952Y012136D01*
X006246Y012039D02*
X006343Y012136D01*
X006343Y011846D01*
X006246Y011846D02*
X006440Y011846D01*
X006302Y010816D02*
X006350Y010768D01*
X006350Y010719D01*
X006302Y010671D01*
X006350Y010623D01*
X006350Y010574D01*
X006302Y010526D01*
X006205Y010526D01*
X006157Y010574D01*
X006056Y010526D02*
X005959Y010623D01*
X006007Y010623D02*
X005862Y010623D01*
X005862Y010526D02*
X005862Y010816D01*
X006007Y010816D01*
X006056Y010768D01*
X006056Y010671D01*
X006007Y010623D01*
X006157Y010768D02*
X006205Y010816D01*
X006302Y010816D01*
X006302Y010671D02*
X006254Y010671D01*
X005650Y010719D02*
X005457Y010526D01*
X005650Y010526D01*
X005650Y010719D02*
X005650Y010768D01*
X005602Y010816D01*
X005505Y010816D01*
X005457Y010768D01*
X005356Y010768D02*
X005356Y010671D01*
X005307Y010623D01*
X005162Y010623D01*
X005162Y010526D02*
X005162Y010816D01*
X005307Y010816D01*
X005356Y010768D01*
X005259Y010623D02*
X005356Y010526D01*
X007081Y009736D02*
X007226Y009591D01*
X007226Y009784D01*
X007081Y009736D02*
X007372Y009736D01*
X007372Y009489D02*
X007275Y009393D01*
X007275Y009441D02*
X007275Y009296D01*
X007372Y009296D02*
X007081Y009296D01*
X007081Y009441D01*
X007130Y009489D01*
X007226Y009489D01*
X007275Y009441D01*
X008418Y008666D02*
X008418Y008376D01*
X008611Y008376D01*
X008712Y008376D02*
X008906Y008376D01*
X009007Y008376D02*
X009152Y008376D01*
X009200Y008424D01*
X009200Y008618D01*
X009152Y008666D01*
X009007Y008666D01*
X009007Y008376D01*
X008809Y008521D02*
X008712Y008521D01*
X008712Y008666D02*
X008712Y008376D01*
X008712Y008666D02*
X008906Y008666D01*
X007068Y007586D02*
X007068Y007296D01*
X006971Y007296D02*
X007165Y007296D01*
X006971Y007489D02*
X007068Y007586D01*
X006870Y007538D02*
X006870Y007344D01*
X006822Y007296D01*
X006725Y007296D01*
X006677Y007344D01*
X006677Y007538D01*
X006725Y007586D01*
X006822Y007586D01*
X006870Y007538D01*
X006773Y007393D02*
X006870Y007296D01*
X006040Y007294D02*
X005991Y007246D01*
X005895Y007246D01*
X005846Y007294D01*
X005846Y007391D02*
X005943Y007439D01*
X005991Y007439D01*
X006040Y007391D01*
X006040Y007294D01*
X005846Y007391D02*
X005846Y007536D01*
X006040Y007536D01*
X005745Y007488D02*
X005745Y007391D01*
X005697Y007343D01*
X005552Y007343D01*
X005648Y007343D02*
X005745Y007246D01*
X005552Y007246D02*
X005552Y007536D01*
X005697Y007536D01*
X005745Y007488D01*
X005015Y007488D02*
X005015Y007439D01*
X004966Y007391D01*
X005015Y007343D01*
X005015Y007294D01*
X004966Y007246D01*
X004870Y007246D01*
X004821Y007294D01*
X004720Y007294D02*
X004672Y007246D01*
X004575Y007246D01*
X004527Y007294D01*
X004527Y007488D01*
X004575Y007536D01*
X004672Y007536D01*
X004720Y007488D01*
X004720Y007294D01*
X004720Y007246D02*
X004623Y007343D01*
X004821Y007488D02*
X004870Y007536D01*
X004966Y007536D01*
X005015Y007488D01*
X004966Y007391D02*
X004918Y007391D01*
X004234Y006886D02*
X004041Y006886D01*
X004041Y006741D01*
X004138Y006789D01*
X004186Y006789D01*
X004234Y006741D01*
X004234Y006644D01*
X004186Y006596D01*
X004089Y006596D01*
X004041Y006644D01*
X003940Y006596D02*
X003746Y006596D01*
X003843Y006596D02*
X003843Y006886D01*
X003746Y006789D01*
X003645Y006741D02*
X003645Y006838D01*
X003597Y006886D01*
X003452Y006886D01*
X003452Y006596D01*
X003452Y006693D02*
X003597Y006693D01*
X003645Y006741D01*
X003548Y006693D02*
X003645Y006596D01*
X003597Y006286D02*
X003645Y006238D01*
X003645Y006141D01*
X003597Y006093D01*
X003452Y006093D01*
X003548Y006093D02*
X003645Y005996D01*
X003746Y005996D02*
X003940Y005996D01*
X003843Y005996D02*
X003843Y006286D01*
X003746Y006189D01*
X003597Y006286D02*
X003452Y006286D01*
X003452Y005996D01*
X002872Y005991D02*
X002872Y005894D01*
X002823Y005846D01*
X002726Y005894D02*
X002726Y005991D01*
X002775Y006039D01*
X002823Y006039D01*
X002872Y005991D01*
X002872Y006141D02*
X002872Y006237D01*
X002872Y006189D02*
X002581Y006189D01*
X002581Y006141D02*
X002581Y006237D01*
X002630Y006337D02*
X002823Y006337D01*
X002872Y006385D01*
X002872Y006482D01*
X002823Y006531D01*
X002726Y006531D01*
X002726Y006434D01*
X002630Y006531D02*
X002581Y006482D01*
X002581Y006385D01*
X002630Y006337D01*
X002630Y006039D02*
X002581Y005991D01*
X002581Y005894D01*
X002630Y005846D01*
X002678Y005846D01*
X002726Y005894D01*
X004041Y006044D02*
X004041Y006093D01*
X004089Y006141D01*
X004186Y006141D01*
X004234Y006093D01*
X004234Y006044D01*
X004186Y005996D01*
X004089Y005996D01*
X004041Y006044D01*
X004089Y006141D02*
X004041Y006189D01*
X004041Y006238D01*
X004089Y006286D01*
X004186Y006286D01*
X004234Y006238D01*
X004234Y006189D01*
X004186Y006141D01*
X002872Y006794D02*
X002823Y006746D01*
X002630Y006746D01*
X002581Y006794D01*
X002581Y006891D01*
X002630Y006939D01*
X002726Y006939D02*
X002726Y006843D01*
X002726Y006939D02*
X002823Y006939D01*
X002872Y006891D01*
X002872Y006794D01*
X002872Y007041D02*
X002581Y007041D01*
X002872Y007234D01*
X002581Y007234D01*
X002581Y007335D02*
X002581Y007480D01*
X002630Y007529D01*
X002823Y007529D01*
X002872Y007480D01*
X002872Y007335D01*
X002581Y007335D01*
X002200Y007776D02*
X002007Y007776D01*
X002200Y007969D01*
X002200Y008018D01*
X002152Y008066D01*
X002055Y008066D01*
X002007Y008018D01*
X001906Y008066D02*
X001809Y008066D01*
X001857Y008066D02*
X001857Y007824D01*
X001809Y007776D01*
X001761Y007776D01*
X001712Y007824D01*
X005918Y006766D02*
X005918Y006476D01*
X005918Y006573D02*
X006063Y006573D01*
X006111Y006621D01*
X006111Y006718D01*
X006063Y006766D01*
X005918Y006766D01*
X006014Y006573D02*
X006111Y006476D01*
X006212Y006476D02*
X006406Y006476D01*
X006309Y006476D02*
X006309Y006766D01*
X006212Y006669D01*
X006507Y006621D02*
X006700Y006621D01*
X006652Y006476D02*
X006652Y006766D01*
X006507Y006621D01*
X007302Y006593D02*
X007447Y006593D01*
X007495Y006641D01*
X007495Y006738D01*
X007447Y006786D01*
X007302Y006786D01*
X007302Y006496D01*
X007398Y006593D02*
X007495Y006496D01*
X007596Y006496D02*
X007790Y006496D01*
X007693Y006496D02*
X007693Y006786D01*
X007596Y006689D01*
X007891Y006641D02*
X008036Y006641D01*
X008084Y006593D01*
X008084Y006544D01*
X008036Y006496D01*
X007939Y006496D01*
X007891Y006544D01*
X007891Y006641D01*
X007988Y006738D01*
X008084Y006786D01*
X011201Y006146D02*
X011201Y006050D01*
X011250Y006001D01*
X011250Y005900D02*
X011201Y005852D01*
X011201Y005755D01*
X011250Y005707D01*
X011443Y005707D01*
X011492Y005755D01*
X011492Y005852D01*
X011443Y005900D01*
X011443Y006001D02*
X011492Y006050D01*
X011492Y006146D01*
X011443Y006195D01*
X011395Y006195D01*
X011346Y006146D01*
X011346Y006098D01*
X011346Y006146D02*
X011298Y006195D01*
X011250Y006195D01*
X011201Y006146D01*
X012031Y006136D02*
X012031Y006039D01*
X012080Y005991D01*
X012128Y005991D01*
X012176Y006039D01*
X012176Y006136D01*
X012225Y006184D01*
X012273Y006184D01*
X012322Y006136D01*
X012322Y006039D01*
X012273Y005991D01*
X012225Y005991D01*
X012176Y006039D01*
X012176Y006136D02*
X012128Y006184D01*
X012080Y006184D01*
X012031Y006136D01*
X012781Y006184D02*
X012781Y005991D01*
X012830Y005889D02*
X012781Y005841D01*
X012781Y005696D01*
X013072Y005696D01*
X012975Y005696D02*
X012975Y005841D01*
X012926Y005889D01*
X012830Y005889D01*
X012975Y005793D02*
X013072Y005889D01*
X013072Y005991D02*
X013023Y005991D01*
X012830Y006184D01*
X012781Y006184D01*
X012322Y005889D02*
X012225Y005793D01*
X012225Y005841D02*
X012225Y005696D01*
X012322Y005696D02*
X012031Y005696D01*
X012031Y005841D01*
X012080Y005889D01*
X012176Y005889D01*
X012225Y005841D01*
X015271Y007894D02*
X015319Y007846D01*
X015513Y007846D01*
X015561Y007894D01*
X015561Y007991D01*
X015513Y008039D01*
X015561Y008141D02*
X015561Y008334D01*
X015561Y008237D02*
X015271Y008237D01*
X015368Y008141D01*
X015319Y008039D02*
X015271Y007991D01*
X015271Y007894D01*
X018202Y007286D02*
X018202Y006996D01*
X018202Y007093D02*
X018347Y007093D01*
X018395Y007141D01*
X018395Y007238D01*
X018347Y007286D01*
X018202Y007286D01*
X018298Y007093D02*
X018395Y006996D01*
X018496Y006996D02*
X018690Y006996D01*
X018593Y006996D02*
X018593Y007286D01*
X018496Y007189D01*
X018791Y007238D02*
X018839Y007286D01*
X018936Y007286D01*
X018984Y007238D01*
X018984Y007189D01*
X018791Y006996D01*
X018984Y006996D01*
X021452Y006938D02*
X021452Y006744D01*
X021500Y006696D01*
X021597Y006696D01*
X021645Y006744D01*
X021645Y006841D01*
X021548Y006841D01*
X021452Y006938D02*
X021500Y006986D01*
X021597Y006986D01*
X021645Y006938D01*
X021746Y006986D02*
X021746Y006696D01*
X021940Y006696D01*
X022041Y006696D02*
X022138Y006696D01*
X022089Y006696D02*
X022089Y006986D01*
X022041Y006986D02*
X022138Y006986D01*
X022237Y006938D02*
X022237Y006744D01*
X022286Y006696D01*
X022382Y006696D01*
X022431Y006744D01*
X022431Y006841D01*
X022334Y006841D01*
X022237Y006938D02*
X022286Y006986D01*
X022382Y006986D01*
X022431Y006938D01*
X022532Y006986D02*
X022532Y006696D01*
X022725Y006696D01*
X022827Y006696D02*
X022827Y006986D01*
X022972Y006986D01*
X023020Y006938D01*
X023020Y006841D01*
X022972Y006793D01*
X022827Y006793D01*
X022923Y006793D02*
X023020Y006696D01*
X022629Y006841D02*
X022532Y006841D01*
X022532Y006986D02*
X022725Y006986D01*
X021940Y006986D02*
X021746Y006986D01*
X021746Y006841D02*
X021843Y006841D01*
X021645Y006486D02*
X021452Y006486D01*
X021548Y006486D02*
X021548Y006196D01*
X021746Y006244D02*
X021795Y006196D01*
X021940Y006196D01*
X021940Y006389D01*
X022041Y006389D02*
X022186Y006389D01*
X022234Y006341D01*
X022234Y006244D01*
X022186Y006196D01*
X022041Y006196D01*
X022041Y006486D01*
X021746Y006389D02*
X021746Y006244D01*
X022336Y006244D02*
X022336Y006341D01*
X022384Y006389D01*
X022481Y006389D01*
X022529Y006341D01*
X022529Y006293D01*
X022336Y006293D01*
X022336Y006244D02*
X022384Y006196D01*
X022481Y006196D01*
X019000Y008576D02*
X018807Y008576D01*
X018904Y008576D02*
X018904Y008866D01*
X018807Y008769D01*
X018706Y008576D02*
X018512Y008576D01*
X018609Y008576D02*
X018609Y008866D01*
X018512Y008769D01*
X018411Y008721D02*
X018363Y008673D01*
X018218Y008673D01*
X018314Y008673D02*
X018411Y008576D01*
X018411Y008721D02*
X018411Y008818D01*
X018363Y008866D01*
X018218Y008866D01*
X018218Y008576D01*
X018961Y009976D02*
X019057Y009976D01*
X019106Y010024D01*
X019207Y010024D02*
X019255Y009976D01*
X019352Y009976D01*
X019400Y010024D01*
X019400Y010073D01*
X019352Y010121D01*
X019207Y010121D01*
X019207Y010024D01*
X019207Y010121D02*
X019304Y010218D01*
X019400Y010266D01*
X019106Y010218D02*
X019057Y010266D01*
X018961Y010266D01*
X018912Y010218D01*
X018912Y010024D01*
X018961Y009976D01*
X018950Y011346D02*
X019047Y011346D01*
X019095Y011394D01*
X019196Y011394D02*
X019245Y011346D01*
X019341Y011346D01*
X019390Y011394D01*
X019390Y011491D01*
X019341Y011539D01*
X019293Y011539D01*
X019196Y011491D01*
X019196Y011636D01*
X019390Y011636D01*
X019095Y011588D02*
X019047Y011636D01*
X018950Y011636D01*
X018902Y011588D01*
X018902Y011394D01*
X018950Y011346D01*
X022701Y011557D02*
X022701Y011702D01*
X022750Y011750D01*
X022943Y011750D01*
X022992Y011702D01*
X022992Y011557D01*
X022701Y011557D01*
X022846Y011851D02*
X022846Y012045D01*
X022701Y011996D02*
X022846Y011851D01*
X022992Y011996D02*
X022701Y011996D01*
X021472Y012946D02*
X021181Y012946D01*
X021181Y013091D01*
X021230Y013139D01*
X021423Y013139D01*
X021472Y013091D01*
X021472Y012946D01*
X021423Y013241D02*
X021472Y013289D01*
X021472Y013386D01*
X021423Y013434D01*
X021375Y013434D01*
X021326Y013386D01*
X021326Y013337D01*
X021326Y013386D02*
X021278Y013434D01*
X021230Y013434D01*
X021181Y013386D01*
X021181Y013289D01*
X021230Y013241D01*
X019352Y014776D02*
X019352Y015066D01*
X019207Y014921D01*
X019400Y014921D01*
X019106Y014824D02*
X019057Y014776D01*
X018961Y014776D01*
X018912Y014824D01*
X018912Y015018D01*
X018961Y015066D01*
X019057Y015066D01*
X019106Y015018D01*
X016972Y013434D02*
X016972Y013241D01*
X016778Y013434D01*
X016730Y013434D01*
X016681Y013386D01*
X016681Y013289D01*
X016730Y013241D01*
X016730Y013139D02*
X016681Y013091D01*
X016681Y012946D01*
X016972Y012946D01*
X016972Y013091D01*
X016923Y013139D01*
X016730Y013139D01*
X014000Y014776D02*
X013807Y014776D01*
X013904Y014776D02*
X013904Y015066D01*
X013807Y014969D01*
X013706Y015066D02*
X013512Y015066D01*
X013609Y015066D02*
X013609Y014776D01*
X004772Y014436D02*
X004772Y014339D01*
X004723Y014291D01*
X004626Y014339D02*
X004626Y014484D01*
X004530Y014484D02*
X004481Y014436D01*
X004481Y014339D01*
X004530Y014291D01*
X004578Y014291D01*
X004626Y014339D01*
X004626Y014189D02*
X004675Y014141D01*
X004675Y013996D01*
X004772Y013996D02*
X004481Y013996D01*
X004481Y014141D01*
X004530Y014189D01*
X004626Y014189D01*
X004675Y014093D02*
X004772Y014189D01*
X004772Y014436D02*
X004723Y014484D01*
X004530Y014484D01*
X002800Y015176D02*
X002800Y015466D01*
X002607Y015466D02*
X002607Y015176D01*
X002704Y015273D01*
X002800Y015176D01*
X002506Y015224D02*
X002457Y015176D01*
X002361Y015176D01*
X002312Y015224D01*
X002361Y015321D02*
X002457Y015321D01*
X002506Y015273D01*
X002506Y015224D01*
X002361Y015321D02*
X002312Y015369D01*
X002312Y015418D01*
X002361Y015466D01*
X002457Y015466D01*
X002506Y015418D01*
X005761Y003716D02*
X005857Y003716D01*
X005906Y003668D01*
X005906Y003474D01*
X005857Y003426D01*
X005761Y003426D01*
X005712Y003474D01*
X005712Y003668D01*
X005761Y003716D01*
X005809Y003523D02*
X005906Y003426D01*
X006007Y003426D02*
X006007Y003474D01*
X006200Y003668D01*
X006200Y003716D01*
X006007Y003716D01*
X007362Y003668D02*
X007362Y003474D01*
X007411Y003426D01*
X007507Y003426D01*
X007556Y003474D01*
X007556Y003668D01*
X007507Y003716D01*
X007411Y003716D01*
X007362Y003668D01*
X007459Y003523D02*
X007556Y003426D01*
X007657Y003474D02*
X007657Y003571D01*
X007802Y003571D01*
X007850Y003523D01*
X007850Y003474D01*
X007802Y003426D01*
X007705Y003426D01*
X007657Y003474D01*
X007657Y003571D02*
X007754Y003668D01*
X007850Y003716D01*
X009612Y003668D02*
X009612Y003474D01*
X009661Y003426D01*
X009757Y003426D01*
X009806Y003474D01*
X009806Y003668D01*
X009757Y003716D01*
X009661Y003716D01*
X009612Y003668D01*
X009709Y003523D02*
X009806Y003426D01*
X009907Y003474D02*
X009955Y003426D01*
X010052Y003426D01*
X010100Y003474D01*
X010100Y003571D01*
X010052Y003619D01*
X010004Y003619D01*
X009907Y003571D01*
X009907Y003716D01*
X010100Y003716D01*
X011152Y002986D02*
X011297Y002986D01*
X011345Y002938D01*
X011345Y002841D01*
X011297Y002793D01*
X011152Y002793D01*
X011248Y002793D02*
X011345Y002696D01*
X011446Y002696D02*
X011640Y002696D01*
X011543Y002696D02*
X011543Y002986D01*
X011446Y002889D01*
X011741Y002938D02*
X011789Y002986D01*
X011886Y002986D01*
X011934Y002938D01*
X011934Y002889D01*
X011886Y002841D01*
X011934Y002793D01*
X011934Y002744D01*
X011886Y002696D01*
X011789Y002696D01*
X011741Y002744D01*
X011838Y002841D02*
X011886Y002841D01*
X012287Y002918D02*
X012287Y002724D01*
X012336Y002676D01*
X012432Y002676D01*
X012481Y002724D01*
X012481Y002918D01*
X012432Y002966D01*
X012336Y002966D01*
X012287Y002918D01*
X012384Y002773D02*
X012481Y002676D01*
X012582Y002676D02*
X012775Y002869D01*
X012775Y002918D01*
X012727Y002966D01*
X012630Y002966D01*
X012582Y002918D01*
X012582Y002676D02*
X012775Y002676D01*
X011152Y002696D02*
X011152Y002986D01*
X004234Y003488D02*
X004041Y003294D01*
X004041Y003246D01*
X003940Y003246D02*
X003746Y003246D01*
X003843Y003246D02*
X003843Y003536D01*
X003746Y003439D01*
X003645Y003391D02*
X003645Y003488D01*
X003597Y003536D01*
X003452Y003536D01*
X003452Y003246D01*
X003452Y003343D02*
X003597Y003343D01*
X003645Y003391D01*
X003548Y003343D02*
X003645Y003246D01*
X004041Y003536D02*
X004234Y003536D01*
X004234Y003488D01*
D14*
X010937Y010281D02*
X015287Y005931D01*
X024437Y005931D01*
X010937Y010281D02*
X010937Y016781D01*
D15*
X001387Y001081D02*
X023987Y001081D01*
X024031Y001083D01*
X024074Y001089D01*
X024116Y001098D01*
X024158Y001111D01*
X024198Y001128D01*
X024237Y001148D01*
X024274Y001171D01*
X024308Y001198D01*
X024341Y001227D01*
X024370Y001260D01*
X024397Y001294D01*
X024420Y001331D01*
X024440Y001370D01*
X024457Y001410D01*
X024470Y001452D01*
X024479Y001494D01*
X024485Y001537D01*
X024487Y001581D01*
X024487Y016281D01*
X024485Y016325D01*
X024479Y016368D01*
X024470Y016410D01*
X024457Y016452D01*
X024440Y016492D01*
X024420Y016531D01*
X024397Y016568D01*
X024370Y016602D01*
X024341Y016635D01*
X024308Y016664D01*
X024274Y016691D01*
X024237Y016714D01*
X024198Y016734D01*
X024158Y016751D01*
X024116Y016764D01*
X024074Y016773D01*
X024031Y016779D01*
X023987Y016781D01*
X001387Y016781D01*
X001343Y016779D01*
X001300Y016773D01*
X001258Y016764D01*
X001216Y016751D01*
X001176Y016734D01*
X001137Y016714D01*
X001100Y016691D01*
X001066Y016664D01*
X001033Y016635D01*
X001004Y016602D01*
X000977Y016568D01*
X000954Y016531D01*
X000934Y016492D01*
X000917Y016452D01*
X000904Y016410D01*
X000895Y016368D01*
X000889Y016325D01*
X000887Y016281D01*
X000887Y001581D01*
X000889Y001537D01*
X000895Y001494D01*
X000904Y001452D01*
X000917Y001410D01*
X000934Y001370D01*
X000954Y001331D01*
X000977Y001294D01*
X001004Y001260D01*
X001033Y001227D01*
X001066Y001198D01*
X001100Y001171D01*
X001137Y001148D01*
X001176Y001128D01*
X001216Y001111D01*
X001258Y001098D01*
X001300Y001089D01*
X001343Y001083D01*
X001387Y001081D01*
X009457Y006821D02*
X009457Y007001D01*
X009457Y007641D02*
X009457Y007841D01*
D16*
X001241Y001868D02*
X001243Y001909D01*
X001249Y001950D01*
X001259Y001990D01*
X001272Y002029D01*
X001289Y002066D01*
X001310Y002102D01*
X001334Y002136D01*
X001361Y002167D01*
X001390Y002195D01*
X001423Y002221D01*
X001457Y002243D01*
X001494Y002262D01*
X001532Y002277D01*
X001572Y002289D01*
X001612Y002297D01*
X001653Y002301D01*
X001695Y002301D01*
X001736Y002297D01*
X001776Y002289D01*
X001816Y002277D01*
X001854Y002262D01*
X001890Y002243D01*
X001925Y002221D01*
X001958Y002195D01*
X001987Y002167D01*
X002014Y002136D01*
X002038Y002102D01*
X002059Y002066D01*
X002076Y002029D01*
X002089Y001990D01*
X002099Y001950D01*
X002105Y001909D01*
X002107Y001868D01*
X002105Y001827D01*
X002099Y001786D01*
X002089Y001746D01*
X002076Y001707D01*
X002059Y001670D01*
X002038Y001634D01*
X002014Y001600D01*
X001987Y001569D01*
X001958Y001541D01*
X001925Y001515D01*
X001891Y001493D01*
X001854Y001474D01*
X001816Y001459D01*
X001776Y001447D01*
X001736Y001439D01*
X001695Y001435D01*
X001653Y001435D01*
X001612Y001439D01*
X001572Y001447D01*
X001532Y001459D01*
X001494Y001474D01*
X001458Y001493D01*
X001423Y001515D01*
X001390Y001541D01*
X001361Y001569D01*
X001334Y001600D01*
X001310Y001634D01*
X001289Y001670D01*
X001272Y001707D01*
X001259Y001746D01*
X001249Y001786D01*
X001243Y001827D01*
X001241Y001868D01*
X023266Y001868D02*
X023268Y001909D01*
X023274Y001950D01*
X023284Y001990D01*
X023297Y002029D01*
X023314Y002066D01*
X023335Y002102D01*
X023359Y002136D01*
X023386Y002167D01*
X023415Y002195D01*
X023448Y002221D01*
X023482Y002243D01*
X023519Y002262D01*
X023557Y002277D01*
X023597Y002289D01*
X023637Y002297D01*
X023678Y002301D01*
X023720Y002301D01*
X023761Y002297D01*
X023801Y002289D01*
X023841Y002277D01*
X023879Y002262D01*
X023915Y002243D01*
X023950Y002221D01*
X023983Y002195D01*
X024012Y002167D01*
X024039Y002136D01*
X024063Y002102D01*
X024084Y002066D01*
X024101Y002029D01*
X024114Y001990D01*
X024124Y001950D01*
X024130Y001909D01*
X024132Y001868D01*
X024130Y001827D01*
X024124Y001786D01*
X024114Y001746D01*
X024101Y001707D01*
X024084Y001670D01*
X024063Y001634D01*
X024039Y001600D01*
X024012Y001569D01*
X023983Y001541D01*
X023950Y001515D01*
X023916Y001493D01*
X023879Y001474D01*
X023841Y001459D01*
X023801Y001447D01*
X023761Y001439D01*
X023720Y001435D01*
X023678Y001435D01*
X023637Y001439D01*
X023597Y001447D01*
X023557Y001459D01*
X023519Y001474D01*
X023483Y001493D01*
X023448Y001515D01*
X023415Y001541D01*
X023386Y001569D01*
X023359Y001600D01*
X023335Y001634D01*
X023314Y001670D01*
X023297Y001707D01*
X023284Y001746D01*
X023274Y001786D01*
X023268Y001827D01*
X023266Y001868D01*
X023266Y015994D02*
X023268Y016035D01*
X023274Y016076D01*
X023284Y016116D01*
X023297Y016155D01*
X023314Y016192D01*
X023335Y016228D01*
X023359Y016262D01*
X023386Y016293D01*
X023415Y016321D01*
X023448Y016347D01*
X023482Y016369D01*
X023519Y016388D01*
X023557Y016403D01*
X023597Y016415D01*
X023637Y016423D01*
X023678Y016427D01*
X023720Y016427D01*
X023761Y016423D01*
X023801Y016415D01*
X023841Y016403D01*
X023879Y016388D01*
X023915Y016369D01*
X023950Y016347D01*
X023983Y016321D01*
X024012Y016293D01*
X024039Y016262D01*
X024063Y016228D01*
X024084Y016192D01*
X024101Y016155D01*
X024114Y016116D01*
X024124Y016076D01*
X024130Y016035D01*
X024132Y015994D01*
X024130Y015953D01*
X024124Y015912D01*
X024114Y015872D01*
X024101Y015833D01*
X024084Y015796D01*
X024063Y015760D01*
X024039Y015726D01*
X024012Y015695D01*
X023983Y015667D01*
X023950Y015641D01*
X023916Y015619D01*
X023879Y015600D01*
X023841Y015585D01*
X023801Y015573D01*
X023761Y015565D01*
X023720Y015561D01*
X023678Y015561D01*
X023637Y015565D01*
X023597Y015573D01*
X023557Y015585D01*
X023519Y015600D01*
X023483Y015619D01*
X023448Y015641D01*
X023415Y015667D01*
X023386Y015695D01*
X023359Y015726D01*
X023335Y015760D01*
X023314Y015796D01*
X023297Y015833D01*
X023284Y015872D01*
X023274Y015912D01*
X023268Y015953D01*
X023266Y015994D01*
X001241Y015994D02*
X001243Y016035D01*
X001249Y016076D01*
X001259Y016116D01*
X001272Y016155D01*
X001289Y016192D01*
X001310Y016228D01*
X001334Y016262D01*
X001361Y016293D01*
X001390Y016321D01*
X001423Y016347D01*
X001457Y016369D01*
X001494Y016388D01*
X001532Y016403D01*
X001572Y016415D01*
X001612Y016423D01*
X001653Y016427D01*
X001695Y016427D01*
X001736Y016423D01*
X001776Y016415D01*
X001816Y016403D01*
X001854Y016388D01*
X001890Y016369D01*
X001925Y016347D01*
X001958Y016321D01*
X001987Y016293D01*
X002014Y016262D01*
X002038Y016228D01*
X002059Y016192D01*
X002076Y016155D01*
X002089Y016116D01*
X002099Y016076D01*
X002105Y016035D01*
X002107Y015994D01*
X002105Y015953D01*
X002099Y015912D01*
X002089Y015872D01*
X002076Y015833D01*
X002059Y015796D01*
X002038Y015760D01*
X002014Y015726D01*
X001987Y015695D01*
X001958Y015667D01*
X001925Y015641D01*
X001891Y015619D01*
X001854Y015600D01*
X001816Y015585D01*
X001776Y015573D01*
X001736Y015565D01*
X001695Y015561D01*
X001653Y015561D01*
X001612Y015565D01*
X001572Y015573D01*
X001532Y015585D01*
X001494Y015600D01*
X001458Y015619D01*
X001423Y015641D01*
X001390Y015667D01*
X001361Y015695D01*
X001334Y015726D01*
X001310Y015760D01*
X001289Y015796D01*
X001272Y015833D01*
X001259Y015872D01*
X001249Y015912D01*
X001243Y015953D01*
X001241Y015994D01*
D17*
X001037Y014681D02*
X004037Y014681D01*
X004037Y013481D01*
X001037Y013481D01*
X001037Y014681D01*
X005087Y014531D02*
X005087Y013431D01*
X005587Y013431D01*
X005587Y014531D01*
X005087Y014531D01*
X003487Y012531D02*
X001737Y012531D01*
X001737Y012281D01*
X001237Y012281D01*
X001237Y012531D01*
X000987Y012531D01*
X000987Y011781D01*
X001237Y011781D01*
X001237Y010281D01*
X000987Y010281D01*
X000987Y009531D01*
X001237Y009531D01*
X001237Y009781D01*
X001737Y009781D01*
X001737Y009531D01*
X003487Y009531D01*
X003487Y012531D01*
X004337Y012031D02*
X004837Y012031D01*
X004837Y010931D01*
X004337Y010931D01*
X004337Y012031D01*
X005187Y011731D02*
X005187Y010931D01*
X006987Y010931D01*
X006987Y011731D01*
X005187Y011731D01*
X005937Y011631D02*
X005987Y011581D01*
X006037Y011531D01*
X006087Y011481D01*
X006137Y011431D01*
X006187Y011381D01*
X006237Y011331D01*
X006187Y011281D01*
X006187Y011381D01*
X006137Y011431D02*
X006137Y011231D01*
X006187Y011281D01*
X006137Y011231D02*
X006087Y011181D01*
X006087Y011481D01*
X006037Y011531D02*
X006037Y011131D01*
X006087Y011181D01*
X006037Y011131D02*
X005987Y011081D01*
X005987Y011581D01*
X005937Y011631D02*
X005937Y011031D01*
X005987Y011081D01*
X004987Y010531D02*
X004287Y010531D01*
X004287Y009231D01*
X004987Y009231D01*
X004987Y010531D01*
X005137Y010431D02*
X005637Y010431D01*
X005637Y009331D01*
X005137Y009331D01*
X005137Y010431D01*
X005837Y010431D02*
X006337Y010431D01*
X006337Y009331D01*
X005837Y009331D01*
X005837Y010431D01*
X006487Y010431D02*
X006987Y010431D01*
X006987Y009331D01*
X006487Y009331D01*
X006487Y010431D01*
X002487Y010031D02*
X001487Y010031D01*
X001487Y012031D01*
X002487Y012031D01*
X002487Y010031D01*
X005537Y008781D02*
X006037Y008781D01*
X006037Y007681D01*
X005537Y007681D01*
X005537Y008781D01*
X002487Y007631D02*
X002487Y005631D01*
X001487Y005631D01*
X001487Y007631D01*
X002487Y007631D01*
X004337Y006981D02*
X005437Y006981D01*
X005437Y006481D01*
X004337Y006481D01*
X004337Y006981D01*
X004337Y006381D02*
X005437Y006381D01*
X005437Y005881D01*
X004337Y005881D01*
X004337Y006381D01*
X005737Y006381D02*
X005737Y005881D01*
X006837Y005881D01*
X006837Y006381D01*
X005737Y006381D01*
X007187Y006381D02*
X007187Y005881D01*
X008287Y005881D01*
X008287Y006381D01*
X007187Y006381D01*
X011087Y005581D02*
X011587Y005581D01*
X011587Y004481D01*
X011087Y004481D01*
X011087Y005581D01*
X011937Y005581D02*
X012437Y005581D01*
X012437Y004481D01*
X011937Y004481D01*
X011937Y005581D01*
X012687Y005581D02*
X013187Y005581D01*
X013187Y004481D01*
X012687Y004481D01*
X012687Y005581D01*
X011637Y004281D02*
X011137Y004281D01*
X011137Y003181D01*
X011637Y003181D01*
X011637Y004281D01*
X005437Y003681D02*
X005437Y003181D01*
X004337Y003181D01*
X004337Y003681D01*
X005437Y003681D01*
X014612Y001756D02*
X014612Y001531D01*
X014687Y001456D01*
X014762Y001531D01*
X014837Y001456D01*
X014912Y001531D01*
X014912Y001756D01*
X015072Y001756D02*
X015072Y001531D01*
X015147Y001456D01*
X015222Y001531D01*
X015297Y001456D01*
X015372Y001531D01*
X015372Y001756D01*
X015532Y001756D02*
X015532Y001531D01*
X015607Y001456D01*
X015682Y001531D01*
X015757Y001456D01*
X015833Y001531D01*
X015833Y001756D01*
X015993Y001531D02*
X016068Y001531D01*
X016068Y001456D01*
X015993Y001456D01*
X015993Y001531D01*
X016223Y001456D02*
X016448Y001456D01*
X016523Y001531D01*
X016448Y001606D01*
X016298Y001606D01*
X016223Y001681D01*
X016298Y001756D01*
X016523Y001756D01*
X016683Y001681D02*
X016758Y001756D01*
X016908Y001756D01*
X016983Y001681D01*
X016983Y001606D01*
X016683Y001606D01*
X016683Y001531D02*
X016683Y001681D01*
X016683Y001531D02*
X016758Y001456D01*
X016908Y001456D01*
X017144Y001531D02*
X017144Y001681D01*
X017219Y001756D01*
X017369Y001756D01*
X017444Y001681D01*
X017444Y001606D01*
X017144Y001606D01*
X017144Y001531D02*
X017219Y001456D01*
X017369Y001456D01*
X017604Y001531D02*
X017604Y001681D01*
X017679Y001756D01*
X017829Y001756D01*
X017904Y001681D01*
X017904Y001606D01*
X017604Y001606D01*
X017604Y001531D02*
X017679Y001456D01*
X017829Y001456D01*
X018064Y001531D02*
X018064Y001681D01*
X018139Y001756D01*
X018364Y001756D01*
X018364Y001906D02*
X018364Y001456D01*
X018139Y001456D01*
X018064Y001531D01*
X018525Y001456D02*
X018750Y001456D01*
X018825Y001531D01*
X018750Y001606D01*
X018600Y001606D01*
X018525Y001681D01*
X018600Y001756D01*
X018825Y001756D01*
X018985Y001756D02*
X019135Y001756D01*
X019060Y001831D02*
X019060Y001531D01*
X019135Y001456D01*
X019292Y001531D02*
X019367Y001456D01*
X019592Y001456D01*
X019592Y001756D01*
X019752Y001681D02*
X019827Y001756D01*
X020052Y001756D01*
X020052Y001906D02*
X020052Y001456D01*
X019827Y001456D01*
X019752Y001531D01*
X019752Y001681D01*
X019292Y001756D02*
X019292Y001531D01*
X020213Y001456D02*
X020363Y001456D01*
X020288Y001456D02*
X020288Y001756D01*
X020213Y001756D01*
X020288Y001906D02*
X020288Y001981D01*
X020519Y001681D02*
X020594Y001756D01*
X020745Y001756D01*
X020820Y001681D01*
X020820Y001531D01*
X020745Y001456D01*
X020594Y001456D01*
X020519Y001531D01*
X020519Y001681D01*
X020980Y001531D02*
X020980Y001456D01*
X021055Y001456D01*
X021055Y001531D01*
X020980Y001531D01*
X021210Y001531D02*
X021285Y001456D01*
X021510Y001456D01*
X021670Y001531D02*
X021745Y001456D01*
X021895Y001456D01*
X021971Y001531D01*
X021971Y001681D01*
X021895Y001756D01*
X021745Y001756D01*
X021670Y001681D01*
X021670Y001531D01*
X021510Y001756D02*
X021285Y001756D01*
X021210Y001681D01*
X021210Y001531D01*
X022131Y001456D02*
X022131Y001756D01*
X022206Y001756D01*
X022281Y001681D01*
X022356Y001756D01*
X022431Y001681D01*
X022431Y001456D01*
X022281Y001456D02*
X022281Y001681D01*
X021437Y007181D02*
X021437Y010181D01*
X024437Y010181D01*
X024437Y007181D01*
X021437Y007181D01*
X015028Y008728D02*
X012745Y008728D01*
X012745Y009713D01*
X012745Y013650D01*
X012745Y014634D01*
X015028Y014634D01*
X015028Y013681D01*
X015028Y009681D01*
X015028Y008728D01*
X015028Y009681D02*
X015094Y009683D01*
X015161Y009689D01*
X015226Y009698D01*
X015291Y009712D01*
X015356Y009729D01*
X015419Y009750D01*
X015480Y009774D01*
X015541Y009802D01*
X015599Y009834D01*
X015656Y009869D01*
X015710Y009907D01*
X015762Y009948D01*
X015812Y009992D01*
X015859Y010039D01*
X015903Y010089D01*
X015944Y010141D01*
X015982Y010195D01*
X016017Y010252D01*
X016049Y010310D01*
X016077Y010371D01*
X016101Y010432D01*
X016122Y010495D01*
X016139Y010560D01*
X016153Y010625D01*
X016162Y010690D01*
X016168Y010757D01*
X016170Y010823D01*
X016170Y012539D01*
X017087Y012781D02*
X017087Y013581D01*
X018887Y013581D01*
X018887Y012781D01*
X017087Y012781D01*
X017837Y012881D02*
X017887Y012931D01*
X017937Y012981D01*
X017987Y013031D01*
X018037Y013081D01*
X018087Y013131D01*
X018137Y013181D01*
X018087Y013231D01*
X018037Y013281D01*
X018037Y013081D01*
X018087Y013131D02*
X018087Y013231D01*
X018037Y013281D02*
X017987Y013331D01*
X017937Y013381D01*
X017937Y012981D01*
X017987Y013031D02*
X017987Y013331D01*
X017937Y013381D02*
X017887Y013431D01*
X017837Y013481D01*
X017837Y012881D01*
X017887Y012931D02*
X017887Y013431D01*
X019287Y013581D02*
X019287Y012781D01*
X021087Y012781D01*
X021087Y013581D01*
X019287Y013581D01*
X020037Y013481D02*
X020087Y013431D01*
X020137Y013381D01*
X020187Y013331D01*
X020237Y013281D01*
X020287Y013231D01*
X020337Y013181D01*
X020287Y013131D01*
X020287Y013231D01*
X020237Y013281D02*
X020237Y013081D01*
X020287Y013131D01*
X020237Y013081D02*
X020187Y013031D01*
X020187Y013331D01*
X020137Y013381D02*
X020137Y012981D01*
X020187Y013031D01*
X020137Y012981D02*
X020087Y012931D01*
X020087Y013431D01*
X020037Y013481D02*
X020037Y012881D01*
X020087Y012931D01*
X021737Y012681D02*
X022537Y012681D01*
X022537Y010881D01*
X021737Y010881D01*
X021737Y012681D01*
X021837Y011931D02*
X021887Y011881D01*
X021937Y011831D01*
X021987Y011781D01*
X022037Y011731D01*
X022087Y011681D01*
X022137Y011631D01*
X022187Y011681D01*
X022237Y011731D01*
X022037Y011731D01*
X022087Y011681D02*
X022187Y011681D01*
X022237Y011731D02*
X022287Y011781D01*
X022337Y011831D01*
X021937Y011831D01*
X021987Y011781D02*
X022287Y011781D01*
X022337Y011831D02*
X022387Y011881D01*
X022437Y011931D01*
X021837Y011931D01*
X021887Y011881D02*
X022387Y011881D01*
X016170Y012539D02*
X016168Y012605D01*
X016162Y012672D01*
X016153Y012737D01*
X016139Y012802D01*
X016122Y012867D01*
X016101Y012930D01*
X016077Y012991D01*
X016049Y013052D01*
X016017Y013110D01*
X015982Y013167D01*
X015944Y013221D01*
X015903Y013273D01*
X015859Y013323D01*
X015812Y013370D01*
X015762Y013414D01*
X015710Y013455D01*
X015656Y013493D01*
X015599Y013528D01*
X015541Y013560D01*
X015480Y013588D01*
X015419Y013612D01*
X015356Y013633D01*
X015291Y013650D01*
X015226Y013664D01*
X015161Y013673D01*
X015094Y013679D01*
X015028Y013681D01*
X012745Y013650D02*
X012679Y013648D01*
X012612Y013642D01*
X012547Y013633D01*
X012482Y013619D01*
X012417Y013602D01*
X012354Y013581D01*
X012293Y013557D01*
X012232Y013529D01*
X012174Y013497D01*
X012117Y013462D01*
X012063Y013424D01*
X012011Y013383D01*
X011961Y013339D01*
X011914Y013292D01*
X011870Y013242D01*
X011829Y013190D01*
X011791Y013136D01*
X011756Y013079D01*
X011724Y013021D01*
X011696Y012960D01*
X011672Y012899D01*
X011651Y012836D01*
X011634Y012771D01*
X011620Y012706D01*
X011611Y012641D01*
X011605Y012574D01*
X011603Y012508D01*
X011603Y010854D01*
X011605Y010788D01*
X011611Y010721D01*
X011620Y010656D01*
X011634Y010591D01*
X011651Y010526D01*
X011672Y010463D01*
X011696Y010402D01*
X011724Y010341D01*
X011756Y010283D01*
X011791Y010226D01*
X011829Y010172D01*
X011870Y010120D01*
X011914Y010070D01*
X011961Y010023D01*
X012011Y009979D01*
X012063Y009938D01*
X012117Y009900D01*
X012174Y009865D01*
X012232Y009833D01*
X012293Y009805D01*
X012354Y009781D01*
X012417Y009760D01*
X012482Y009743D01*
X012547Y009729D01*
X012612Y009720D01*
X012679Y009714D01*
X012745Y009712D01*
D18*
X008832Y008175D02*
X008832Y008085D01*
X008832Y008086D02*
X008778Y008084D01*
X008725Y008078D01*
X008672Y008068D01*
X008620Y008054D01*
X008569Y008037D01*
X008520Y008016D01*
X008472Y007992D01*
X008426Y007964D01*
X008382Y007933D01*
X008340Y007899D01*
X008301Y007863D01*
X008264Y007823D01*
X008231Y007781D01*
X008200Y007737D01*
X008173Y007691D01*
X008094Y007733D01*
X008122Y007782D01*
X008154Y007828D01*
X008189Y007873D01*
X008226Y007915D01*
X008267Y007954D01*
X008310Y007991D01*
X008355Y008025D01*
X008402Y008056D01*
X008452Y008083D01*
X008503Y008107D01*
X008555Y008128D01*
X008609Y008145D01*
X008664Y008158D01*
X008719Y008168D01*
X008776Y008174D01*
X008832Y008176D01*
X008832Y008167D01*
X008776Y008165D01*
X008721Y008159D01*
X008666Y008149D01*
X008611Y008136D01*
X008558Y008119D01*
X008506Y008099D01*
X008456Y008075D01*
X008407Y008048D01*
X008360Y008018D01*
X008315Y007984D01*
X008273Y007948D01*
X008233Y007909D01*
X008196Y007867D01*
X008161Y007823D01*
X008130Y007777D01*
X008102Y007729D01*
X008110Y007725D01*
X008138Y007772D01*
X008169Y007818D01*
X008203Y007861D01*
X008239Y007903D01*
X008279Y007941D01*
X008321Y007977D01*
X008365Y008010D01*
X008411Y008040D01*
X008460Y008067D01*
X008510Y008090D01*
X008561Y008111D01*
X008614Y008127D01*
X008667Y008140D01*
X008722Y008150D01*
X008777Y008156D01*
X008832Y008158D01*
X008832Y008149D01*
X008777Y008147D01*
X008723Y008141D01*
X008669Y008132D01*
X008616Y008119D01*
X008564Y008102D01*
X008513Y008082D01*
X008464Y008059D01*
X008416Y008032D01*
X008370Y008003D01*
X008326Y007970D01*
X008285Y007935D01*
X008246Y007896D01*
X008209Y007856D01*
X008176Y007813D01*
X008145Y007767D01*
X008118Y007720D01*
X008126Y007716D01*
X008153Y007763D01*
X008183Y007807D01*
X008216Y007850D01*
X008252Y007890D01*
X008291Y007928D01*
X008332Y007963D01*
X008375Y007995D01*
X008421Y008025D01*
X008468Y008051D01*
X008517Y008074D01*
X008567Y008094D01*
X008619Y008110D01*
X008671Y008123D01*
X008724Y008132D01*
X008778Y008138D01*
X008832Y008140D01*
X008832Y008131D01*
X008779Y008129D01*
X008725Y008123D01*
X008673Y008114D01*
X008621Y008101D01*
X008570Y008085D01*
X008520Y008066D01*
X008472Y008043D01*
X008425Y008017D01*
X008381Y007988D01*
X008338Y007956D01*
X008297Y007921D01*
X008259Y007884D01*
X008223Y007844D01*
X008190Y007802D01*
X008160Y007758D01*
X008133Y007712D01*
X008141Y007708D01*
X008168Y007753D01*
X008198Y007797D01*
X008230Y007838D01*
X008265Y007878D01*
X008303Y007915D01*
X008343Y007949D01*
X008386Y007981D01*
X008430Y008009D01*
X008476Y008035D01*
X008524Y008057D01*
X008573Y008077D01*
X008623Y008093D01*
X008675Y008105D01*
X008727Y008114D01*
X008779Y008120D01*
X008832Y008122D01*
X008832Y008113D01*
X008776Y008111D01*
X008721Y008104D01*
X008666Y008094D01*
X008612Y008080D01*
X008560Y008062D01*
X008508Y008041D01*
X008459Y008015D01*
X008411Y007987D01*
X008365Y007955D01*
X008322Y007920D01*
X008282Y007882D01*
X008244Y007841D01*
X008209Y007797D01*
X008178Y007751D01*
X008149Y007703D01*
X008157Y007699D01*
X008185Y007747D01*
X008216Y007792D01*
X008251Y007835D01*
X008288Y007875D01*
X008328Y007913D01*
X008371Y007948D01*
X008416Y007979D01*
X008463Y008008D01*
X008512Y008032D01*
X008563Y008054D01*
X008615Y008071D01*
X008668Y008085D01*
X008722Y008095D01*
X008777Y008102D01*
X008832Y008104D01*
X008832Y008095D01*
X008778Y008093D01*
X008724Y008087D01*
X008670Y008077D01*
X008618Y008063D01*
X008566Y008045D01*
X008516Y008024D01*
X008467Y008000D01*
X008421Y007972D01*
X008376Y007940D01*
X008334Y007906D01*
X008295Y007869D01*
X008258Y007829D01*
X008224Y007787D01*
X008193Y007742D01*
X008165Y007695D01*
X008106Y006908D02*
X008184Y006953D01*
X008184Y006952D02*
X008212Y006908D01*
X008243Y006866D01*
X008276Y006826D01*
X008312Y006788D01*
X008351Y006753D01*
X008392Y006721D01*
X008436Y006691D01*
X008481Y006665D01*
X008528Y006642D01*
X008576Y006622D01*
X008626Y006606D01*
X008676Y006593D01*
X008728Y006584D01*
X008780Y006578D01*
X008832Y006576D01*
X008833Y006487D01*
X008832Y006486D01*
X008777Y006488D01*
X008723Y006494D01*
X008668Y006503D01*
X008615Y006516D01*
X008563Y006532D01*
X008511Y006551D01*
X008461Y006574D01*
X008413Y006600D01*
X008366Y006629D01*
X008322Y006661D01*
X008279Y006696D01*
X008239Y006734D01*
X008202Y006774D01*
X008167Y006816D01*
X008135Y006861D01*
X008106Y006907D01*
X008114Y006912D01*
X008142Y006866D01*
X008174Y006822D01*
X008209Y006780D01*
X008246Y006740D01*
X008285Y006703D01*
X008327Y006668D01*
X008371Y006637D01*
X008417Y006608D01*
X008465Y006582D01*
X008515Y006560D01*
X008565Y006540D01*
X008617Y006524D01*
X008670Y006512D01*
X008724Y006503D01*
X008778Y006497D01*
X008832Y006495D01*
X008832Y006504D01*
X008778Y006506D01*
X008725Y006512D01*
X008672Y006521D01*
X008620Y006533D01*
X008568Y006549D01*
X008518Y006568D01*
X008469Y006590D01*
X008422Y006616D01*
X008376Y006644D01*
X008333Y006676D01*
X008291Y006710D01*
X008252Y006746D01*
X008215Y006786D01*
X008181Y006827D01*
X008150Y006871D01*
X008121Y006916D01*
X008129Y006921D01*
X008159Y006873D01*
X008193Y006827D01*
X008229Y006784D01*
X008269Y006743D01*
X008311Y006705D01*
X008355Y006670D01*
X008402Y006638D01*
X008451Y006610D01*
X008502Y006585D01*
X008555Y006563D01*
X008608Y006546D01*
X008663Y006532D01*
X008719Y006522D01*
X008775Y006515D01*
X008832Y006513D01*
X008832Y006522D01*
X008776Y006524D01*
X008720Y006530D01*
X008665Y006540D01*
X008611Y006554D01*
X008558Y006572D01*
X008506Y006593D01*
X008455Y006618D01*
X008407Y006646D01*
X008361Y006677D01*
X008316Y006712D01*
X008275Y006749D01*
X008236Y006790D01*
X008200Y006832D01*
X008167Y006878D01*
X008137Y006925D01*
X008145Y006930D01*
X008174Y006883D01*
X008207Y006838D01*
X008243Y006796D01*
X008281Y006756D01*
X008322Y006719D01*
X008366Y006684D01*
X008412Y006653D01*
X008460Y006626D01*
X008509Y006601D01*
X008561Y006580D01*
X008613Y006563D01*
X008667Y006549D01*
X008722Y006539D01*
X008777Y006533D01*
X008832Y006531D01*
X008832Y006540D01*
X008777Y006542D01*
X008723Y006548D01*
X008669Y006558D01*
X008616Y006572D01*
X008564Y006589D01*
X008513Y006609D01*
X008464Y006634D01*
X008417Y006661D01*
X008371Y006692D01*
X008328Y006725D01*
X008287Y006762D01*
X008249Y006802D01*
X008214Y006844D01*
X008182Y006888D01*
X008153Y006934D01*
X008161Y006939D01*
X008189Y006893D01*
X008221Y006849D01*
X008256Y006808D01*
X008294Y006769D01*
X008334Y006732D01*
X008376Y006699D01*
X008421Y006669D01*
X008468Y006641D01*
X008517Y006618D01*
X008567Y006597D01*
X008618Y006580D01*
X008671Y006567D01*
X008724Y006557D01*
X008778Y006551D01*
X008832Y006549D01*
X008832Y006558D01*
X008779Y006560D01*
X008725Y006566D01*
X008673Y006576D01*
X008621Y006589D01*
X008570Y006606D01*
X008520Y006626D01*
X008472Y006649D01*
X008426Y006676D01*
X008382Y006706D01*
X008340Y006739D01*
X008300Y006775D01*
X008263Y006814D01*
X008228Y006855D01*
X008197Y006898D01*
X008168Y006943D01*
X008176Y006948D01*
X008204Y006903D01*
X008235Y006860D01*
X008269Y006820D01*
X008306Y006782D01*
X008345Y006746D01*
X008387Y006714D01*
X008431Y006684D01*
X008477Y006657D01*
X008524Y006634D01*
X008573Y006614D01*
X008623Y006597D01*
X008675Y006584D01*
X008727Y006575D01*
X008779Y006569D01*
X008832Y006567D01*
X008841Y006487D02*
X008841Y006577D01*
X008842Y006576D02*
X008896Y006578D01*
X008949Y006584D01*
X009002Y006594D01*
X009054Y006608D01*
X009105Y006625D01*
X009155Y006646D01*
X009203Y006670D01*
X009249Y006698D01*
X009293Y006729D01*
X009334Y006763D01*
X009374Y006800D01*
X009410Y006839D01*
X009478Y006782D01*
X009479Y006781D01*
X009441Y006740D01*
X009401Y006702D01*
X009358Y006666D01*
X009313Y006633D01*
X009266Y006603D01*
X009218Y006577D01*
X009167Y006553D01*
X009115Y006533D01*
X009062Y006517D01*
X009008Y006503D01*
X008953Y006494D01*
X008898Y006488D01*
X008842Y006486D01*
X008842Y006495D01*
X008897Y006497D01*
X008952Y006503D01*
X009006Y006512D01*
X009060Y006525D01*
X009112Y006542D01*
X009164Y006561D01*
X009214Y006585D01*
X009262Y006611D01*
X009308Y006641D01*
X009353Y006673D01*
X009395Y006708D01*
X009435Y006747D01*
X009472Y006787D01*
X009465Y006793D01*
X009428Y006753D01*
X009389Y006715D01*
X009347Y006680D01*
X009303Y006648D01*
X009257Y006619D01*
X009209Y006593D01*
X009160Y006570D01*
X009109Y006550D01*
X009057Y006534D01*
X009004Y006521D01*
X008951Y006512D01*
X008896Y006506D01*
X008842Y006504D01*
X008842Y006513D01*
X008896Y006515D01*
X008949Y006521D01*
X009002Y006530D01*
X009055Y006543D01*
X009106Y006559D01*
X009157Y006578D01*
X009205Y006601D01*
X009253Y006626D01*
X009298Y006655D01*
X009342Y006687D01*
X009383Y006722D01*
X009422Y006759D01*
X009458Y006799D01*
X009451Y006805D01*
X009415Y006765D01*
X009377Y006728D01*
X009336Y006694D01*
X009293Y006663D01*
X009248Y006634D01*
X009201Y006609D01*
X009153Y006586D01*
X009103Y006567D01*
X009052Y006551D01*
X009001Y006539D01*
X008948Y006530D01*
X008895Y006524D01*
X008842Y006522D01*
X008842Y006531D01*
X008895Y006533D01*
X008947Y006539D01*
X008999Y006548D01*
X009050Y006560D01*
X009100Y006576D01*
X009150Y006595D01*
X009197Y006617D01*
X009244Y006642D01*
X009288Y006670D01*
X009330Y006701D01*
X009371Y006735D01*
X009409Y006772D01*
X009444Y006810D01*
X009438Y006816D01*
X009402Y006778D01*
X009365Y006742D01*
X009325Y006708D01*
X009283Y006678D01*
X009239Y006650D01*
X009193Y006625D01*
X009146Y006603D01*
X009097Y006584D01*
X009048Y006569D01*
X008997Y006556D01*
X008946Y006548D01*
X008894Y006542D01*
X008842Y006540D01*
X008842Y006549D01*
X008898Y006551D01*
X008953Y006558D01*
X009008Y006568D01*
X009062Y006582D01*
X009115Y006600D01*
X009166Y006622D01*
X009216Y006647D01*
X009264Y006676D01*
X009309Y006708D01*
X009352Y006743D01*
X009393Y006781D01*
X009431Y006822D01*
X009424Y006828D01*
X009387Y006787D01*
X009346Y006750D01*
X009304Y006715D01*
X009259Y006683D01*
X009211Y006655D01*
X009162Y006630D01*
X009111Y006608D01*
X009059Y006591D01*
X009006Y006577D01*
X008952Y006567D01*
X008897Y006560D01*
X008842Y006558D01*
X008842Y006567D01*
X008896Y006569D01*
X008951Y006575D01*
X009004Y006585D01*
X009057Y006599D01*
X009108Y006617D01*
X009158Y006638D01*
X009207Y006663D01*
X009254Y006691D01*
X009298Y006722D01*
X009340Y006756D01*
X009380Y006794D01*
X009417Y006834D01*
X009482Y007875D02*
X009413Y007818D01*
X009414Y007818D02*
X009377Y007858D01*
X009338Y007896D01*
X009296Y007930D01*
X009252Y007962D01*
X009206Y007990D01*
X009157Y008015D01*
X009107Y008036D01*
X009056Y008054D01*
X009003Y008067D01*
X008950Y008077D01*
X008896Y008084D01*
X008842Y008086D01*
X008841Y008175D01*
X008842Y008176D01*
X008898Y008174D01*
X008954Y008168D01*
X009009Y008158D01*
X009064Y008145D01*
X009117Y008128D01*
X009170Y008108D01*
X009221Y008084D01*
X009270Y008057D01*
X009317Y008026D01*
X009362Y007993D01*
X009405Y007957D01*
X009445Y007918D01*
X009483Y007876D01*
X009476Y007870D01*
X009439Y007911D01*
X009399Y007950D01*
X009357Y007986D01*
X009312Y008019D01*
X009265Y008049D01*
X009217Y008076D01*
X009166Y008099D01*
X009114Y008120D01*
X009061Y008136D01*
X009007Y008149D01*
X008953Y008159D01*
X008898Y008165D01*
X008842Y008167D01*
X008842Y008158D01*
X008897Y008156D01*
X008952Y008150D01*
X009006Y008141D01*
X009059Y008128D01*
X009111Y008111D01*
X009163Y008091D01*
X009212Y008068D01*
X009261Y008041D01*
X009307Y008012D01*
X009351Y007979D01*
X009393Y007943D01*
X009432Y007905D01*
X009469Y007864D01*
X009462Y007859D01*
X009426Y007899D01*
X009387Y007937D01*
X009345Y007972D01*
X009302Y008004D01*
X009256Y008034D01*
X009208Y008060D01*
X009159Y008083D01*
X009109Y008103D01*
X009057Y008119D01*
X009004Y008132D01*
X008950Y008141D01*
X008896Y008147D01*
X008842Y008149D01*
X008842Y008140D01*
X008896Y008138D01*
X008949Y008132D01*
X009002Y008123D01*
X009054Y008110D01*
X009106Y008094D01*
X009156Y008075D01*
X009204Y008052D01*
X009251Y008026D01*
X009297Y007997D01*
X009340Y007965D01*
X009381Y007930D01*
X009419Y007893D01*
X009455Y007853D01*
X009448Y007847D01*
X009413Y007886D01*
X009375Y007923D01*
X009334Y007958D01*
X009291Y007989D01*
X009247Y008018D01*
X009200Y008044D01*
X009152Y008066D01*
X009103Y008086D01*
X009052Y008102D01*
X009000Y008114D01*
X008948Y008123D01*
X008895Y008129D01*
X008842Y008131D01*
X008842Y008122D01*
X008894Y008120D01*
X008947Y008114D01*
X008998Y008105D01*
X009049Y008093D01*
X009100Y008077D01*
X009149Y008058D01*
X009196Y008036D01*
X009242Y008010D01*
X009286Y007982D01*
X009328Y007951D01*
X009369Y007917D01*
X009406Y007880D01*
X009441Y007841D01*
X009435Y007835D01*
X009400Y007874D01*
X009362Y007910D01*
X009323Y007944D01*
X009281Y007975D01*
X009237Y008003D01*
X009192Y008028D01*
X009145Y008050D01*
X009097Y008069D01*
X009047Y008084D01*
X008997Y008097D01*
X008946Y008105D01*
X008894Y008111D01*
X008842Y008113D01*
X008842Y008104D01*
X008893Y008102D01*
X008944Y008097D01*
X008995Y008088D01*
X009045Y008076D01*
X009094Y008060D01*
X009141Y008042D01*
X009188Y008020D01*
X009233Y007995D01*
X009276Y007967D01*
X009317Y007937D01*
X009356Y007904D01*
X009393Y007868D01*
X009428Y007830D01*
X009421Y007824D01*
X009384Y007865D01*
X009344Y007903D01*
X009302Y007937D01*
X009257Y007969D01*
X009210Y007998D01*
X009161Y008023D01*
X009110Y008044D01*
X009059Y008062D01*
X009005Y008076D01*
X008951Y008086D01*
X008897Y008093D01*
X008842Y008095D01*
X008347Y006944D02*
X008387Y006975D01*
X008386Y006974D02*
X008417Y006939D01*
X008450Y006906D01*
X008485Y006876D01*
X008524Y006849D01*
X008564Y006825D01*
X008606Y006805D01*
X008649Y006788D01*
X008694Y006774D01*
X008739Y006764D01*
X008785Y006758D01*
X008832Y006756D01*
X008833Y006707D01*
X008832Y006706D01*
X008786Y006708D01*
X008739Y006714D01*
X008694Y006723D01*
X008649Y006735D01*
X008605Y006751D01*
X008562Y006770D01*
X008521Y006792D01*
X008482Y006817D01*
X008445Y006844D01*
X008410Y006875D01*
X008377Y006908D01*
X008347Y006943D01*
X008354Y006949D01*
X008384Y006914D01*
X008416Y006881D01*
X008450Y006851D01*
X008487Y006824D01*
X008526Y006799D01*
X008566Y006778D01*
X008608Y006759D01*
X008651Y006744D01*
X008696Y006731D01*
X008741Y006723D01*
X008786Y006717D01*
X008832Y006715D01*
X008832Y006724D01*
X008787Y006726D01*
X008742Y006731D01*
X008698Y006740D01*
X008654Y006752D01*
X008612Y006767D01*
X008570Y006786D01*
X008530Y006807D01*
X008492Y006831D01*
X008456Y006858D01*
X008422Y006888D01*
X008390Y006920D01*
X008361Y006954D01*
X008368Y006960D01*
X008400Y006923D01*
X008434Y006889D01*
X008471Y006858D01*
X008511Y006830D01*
X008553Y006805D01*
X008596Y006784D01*
X008641Y006766D01*
X008688Y006752D01*
X008735Y006742D01*
X008784Y006735D01*
X008832Y006733D01*
X008832Y006742D01*
X008784Y006744D01*
X008737Y006751D01*
X008690Y006761D01*
X008644Y006774D01*
X008600Y006792D01*
X008557Y006813D01*
X008516Y006837D01*
X008477Y006865D01*
X008440Y006896D01*
X008406Y006929D01*
X008375Y006965D01*
X008382Y006971D01*
X008413Y006935D01*
X008446Y006902D01*
X008482Y006872D01*
X008521Y006845D01*
X008561Y006821D01*
X008604Y006800D01*
X008647Y006783D01*
X008692Y006769D01*
X008738Y006759D01*
X008785Y006753D01*
X008832Y006751D01*
X008841Y006707D02*
X008841Y006757D01*
X008842Y006756D02*
X008889Y006758D01*
X008935Y006764D01*
X008980Y006774D01*
X009025Y006788D01*
X009068Y006805D01*
X009110Y006825D01*
X009150Y006849D01*
X009189Y006876D01*
X009224Y006906D01*
X009257Y006939D01*
X009288Y006974D01*
X009327Y006944D01*
X009327Y006943D01*
X009297Y006908D01*
X009264Y006875D01*
X009229Y006844D01*
X009192Y006817D01*
X009153Y006792D01*
X009112Y006770D01*
X009069Y006751D01*
X009025Y006735D01*
X008980Y006723D01*
X008935Y006714D01*
X008888Y006708D01*
X008842Y006706D01*
X008842Y006715D01*
X008888Y006717D01*
X008933Y006723D01*
X008978Y006731D01*
X009023Y006744D01*
X009066Y006759D01*
X009108Y006778D01*
X009148Y006799D01*
X009187Y006824D01*
X009224Y006851D01*
X009258Y006881D01*
X009290Y006914D01*
X009320Y006949D01*
X009313Y006954D01*
X009284Y006920D01*
X009252Y006888D01*
X009218Y006858D01*
X009182Y006831D01*
X009144Y006807D01*
X009104Y006786D01*
X009062Y006767D01*
X009020Y006752D01*
X008976Y006740D01*
X008932Y006731D01*
X008887Y006726D01*
X008842Y006724D01*
X008842Y006733D01*
X008890Y006735D01*
X008939Y006742D01*
X008986Y006752D01*
X009033Y006766D01*
X009078Y006784D01*
X009121Y006805D01*
X009163Y006830D01*
X009203Y006858D01*
X009240Y006889D01*
X009274Y006923D01*
X009306Y006960D01*
X009299Y006965D01*
X009268Y006929D01*
X009234Y006896D01*
X009197Y006865D01*
X009158Y006837D01*
X009117Y006813D01*
X009074Y006792D01*
X009030Y006774D01*
X008984Y006761D01*
X008937Y006751D01*
X008890Y006744D01*
X008842Y006742D01*
X008842Y006751D01*
X008889Y006753D01*
X008936Y006759D01*
X008982Y006769D01*
X009027Y006783D01*
X009070Y006800D01*
X009113Y006821D01*
X009153Y006845D01*
X009192Y006872D01*
X009228Y006902D01*
X009261Y006935D01*
X009292Y006971D01*
X008833Y007955D02*
X008833Y007905D01*
X008832Y007906D02*
X008788Y007904D01*
X008745Y007899D01*
X008702Y007890D01*
X008660Y007878D01*
X008620Y007863D01*
X008580Y007845D01*
X008542Y007824D01*
X008505Y007801D01*
X008470Y007774D01*
X008438Y007745D01*
X008408Y007714D01*
X008380Y007680D01*
X008341Y007709D01*
X008340Y007710D01*
X008370Y007747D01*
X008403Y007781D01*
X008438Y007812D01*
X008476Y007841D01*
X008516Y007867D01*
X008557Y007890D01*
X008601Y007910D01*
X008645Y007926D01*
X008691Y007939D01*
X008737Y007948D01*
X008785Y007954D01*
X008832Y007956D01*
X008832Y007947D01*
X008785Y007945D01*
X008739Y007939D01*
X008693Y007930D01*
X008648Y007917D01*
X008604Y007901D01*
X008562Y007882D01*
X008521Y007859D01*
X008481Y007834D01*
X008444Y007806D01*
X008409Y007774D01*
X008377Y007741D01*
X008347Y007705D01*
X008354Y007699D01*
X008384Y007735D01*
X008416Y007768D01*
X008450Y007799D01*
X008487Y007827D01*
X008525Y007852D01*
X008566Y007874D01*
X008607Y007893D01*
X008651Y007909D01*
X008695Y007921D01*
X008740Y007930D01*
X008786Y007936D01*
X008832Y007938D01*
X008832Y007929D01*
X008787Y007927D01*
X008742Y007921D01*
X008697Y007912D01*
X008654Y007900D01*
X008611Y007885D01*
X008570Y007866D01*
X008530Y007844D01*
X008492Y007819D01*
X008456Y007792D01*
X008422Y007761D01*
X008390Y007729D01*
X008362Y007694D01*
X008369Y007688D01*
X008397Y007723D01*
X008428Y007755D01*
X008462Y007785D01*
X008497Y007812D01*
X008534Y007836D01*
X008574Y007858D01*
X008614Y007876D01*
X008656Y007892D01*
X008699Y007904D01*
X008743Y007912D01*
X008787Y007918D01*
X008832Y007920D01*
X008832Y007911D01*
X008788Y007909D01*
X008744Y007904D01*
X008701Y007895D01*
X008659Y007883D01*
X008618Y007868D01*
X008578Y007850D01*
X008539Y007829D01*
X008502Y007805D01*
X008467Y007778D01*
X008434Y007749D01*
X008404Y007717D01*
X008376Y007683D01*
X009342Y007698D02*
X009301Y007669D01*
X009302Y007669D02*
X009274Y007704D01*
X009244Y007737D01*
X009211Y007768D01*
X009176Y007795D01*
X009139Y007820D01*
X009100Y007842D01*
X009060Y007861D01*
X009018Y007877D01*
X008975Y007889D01*
X008931Y007898D01*
X008887Y007904D01*
X008842Y007906D01*
X008841Y007955D01*
X008842Y007956D01*
X008891Y007954D01*
X008939Y007948D01*
X008987Y007938D01*
X009033Y007924D01*
X009079Y007907D01*
X009123Y007887D01*
X009165Y007863D01*
X009206Y007836D01*
X009244Y007805D01*
X009280Y007772D01*
X009313Y007737D01*
X009343Y007698D01*
X009335Y007693D01*
X009306Y007731D01*
X009273Y007766D01*
X009238Y007799D01*
X009200Y007828D01*
X009161Y007855D01*
X009119Y007879D01*
X009075Y007899D01*
X009031Y007916D01*
X008984Y007929D01*
X008937Y007939D01*
X008890Y007945D01*
X008842Y007947D01*
X008842Y007938D01*
X008889Y007936D01*
X008936Y007930D01*
X008982Y007920D01*
X009028Y007907D01*
X009072Y007891D01*
X009115Y007871D01*
X009156Y007847D01*
X009195Y007821D01*
X009232Y007792D01*
X009267Y007760D01*
X009299Y007725D01*
X009328Y007688D01*
X009321Y007683D01*
X009292Y007719D01*
X009260Y007753D01*
X009226Y007785D01*
X009190Y007814D01*
X009151Y007840D01*
X009111Y007863D01*
X009068Y007882D01*
X009025Y007899D01*
X008980Y007912D01*
X008935Y007921D01*
X008888Y007927D01*
X008842Y007929D01*
X008842Y007920D01*
X008888Y007918D01*
X008933Y007912D01*
X008978Y007903D01*
X009022Y007890D01*
X009065Y007874D01*
X009107Y007855D01*
X009146Y007832D01*
X009184Y007807D01*
X009220Y007778D01*
X009254Y007747D01*
X009285Y007713D01*
X009313Y007677D01*
X009306Y007672D01*
X009278Y007708D01*
X009248Y007741D01*
X009214Y007771D01*
X009179Y007799D01*
X009142Y007825D01*
X009102Y007847D01*
X009062Y007866D01*
X009019Y007882D01*
X008976Y007894D01*
X008932Y007903D01*
X008887Y007909D01*
X008842Y007911D01*
X009032Y005698D02*
X009087Y005655D01*
X009051Y005606D01*
X009017Y005555D01*
X008988Y005501D01*
X008961Y005446D01*
X008937Y005390D01*
X008918Y005332D01*
X008901Y005273D01*
X008888Y005213D01*
X008879Y005153D01*
X008874Y005092D01*
X008872Y005030D01*
X008874Y004969D01*
X008879Y004908D01*
X008889Y004848D01*
X008902Y004788D01*
X008918Y004729D01*
X008938Y004671D01*
X008961Y004615D01*
X008988Y004560D01*
X009018Y004506D01*
X009051Y004455D01*
X009087Y004406D01*
X009127Y004359D01*
X009168Y004314D01*
X009213Y004272D01*
X009260Y004233D01*
X009309Y004197D01*
X009360Y004163D01*
X009414Y004133D01*
X009469Y004106D01*
X009525Y004083D01*
X009583Y004063D01*
X009563Y003996D01*
X009562Y003996D01*
X009501Y004017D01*
X009440Y004042D01*
X009381Y004071D01*
X009324Y004103D01*
X009270Y004139D01*
X009217Y004178D01*
X009167Y004220D01*
X009119Y004265D01*
X009074Y004312D01*
X009032Y004362D01*
X008994Y004415D01*
X008958Y004470D01*
X008926Y004527D01*
X008897Y004586D01*
X008872Y004646D01*
X008851Y004708D01*
X008834Y004771D01*
X008820Y004835D01*
X008810Y004900D01*
X008804Y004965D01*
X008802Y005031D01*
X008804Y005096D01*
X008810Y005161D01*
X008820Y005226D01*
X008833Y005290D01*
X008851Y005353D01*
X008872Y005415D01*
X008897Y005475D01*
X008926Y005534D01*
X008958Y005591D01*
X008993Y005646D01*
X009032Y005699D01*
X009039Y005693D01*
X009001Y005641D01*
X008965Y005586D01*
X008934Y005530D01*
X008905Y005471D01*
X008880Y005411D01*
X008859Y005350D01*
X008842Y005288D01*
X008828Y005224D01*
X008819Y005160D01*
X008813Y005095D01*
X008811Y005031D01*
X008813Y004966D01*
X008819Y004901D01*
X008829Y004837D01*
X008842Y004773D01*
X008860Y004711D01*
X008881Y004650D01*
X008906Y004590D01*
X008934Y004531D01*
X008966Y004475D01*
X009001Y004420D01*
X009039Y004368D01*
X009081Y004318D01*
X009125Y004271D01*
X009173Y004226D01*
X009222Y004185D01*
X009275Y004146D01*
X009329Y004111D01*
X009386Y004079D01*
X009444Y004051D01*
X009504Y004026D01*
X009565Y004004D01*
X009568Y004013D01*
X009507Y004034D01*
X009447Y004059D01*
X009390Y004087D01*
X009334Y004119D01*
X009280Y004154D01*
X009228Y004192D01*
X009179Y004233D01*
X009132Y004277D01*
X009088Y004324D01*
X009047Y004374D01*
X009008Y004425D01*
X008974Y004479D01*
X008942Y004536D01*
X008914Y004593D01*
X008889Y004653D01*
X008868Y004714D01*
X008851Y004776D01*
X008838Y004839D01*
X008828Y004902D01*
X008822Y004966D01*
X008820Y005030D01*
X008822Y005095D01*
X008828Y005159D01*
X008837Y005222D01*
X008851Y005285D01*
X008868Y005347D01*
X008889Y005408D01*
X008913Y005468D01*
X008942Y005526D01*
X008973Y005582D01*
X009008Y005636D01*
X009046Y005688D01*
X009053Y005682D01*
X009015Y005631D01*
X008981Y005577D01*
X008949Y005521D01*
X008922Y005464D01*
X008897Y005405D01*
X008877Y005345D01*
X008860Y005283D01*
X008846Y005221D01*
X008837Y005158D01*
X008831Y005094D01*
X008829Y005030D01*
X008831Y004967D01*
X008837Y004903D01*
X008846Y004840D01*
X008860Y004778D01*
X008877Y004716D01*
X008898Y004656D01*
X008922Y004597D01*
X008950Y004540D01*
X008981Y004484D01*
X009016Y004431D01*
X009054Y004379D01*
X009094Y004330D01*
X009138Y004284D01*
X009185Y004240D01*
X009233Y004199D01*
X009285Y004161D01*
X009338Y004126D01*
X009394Y004095D01*
X009451Y004067D01*
X009510Y004042D01*
X009570Y004022D01*
X009573Y004030D01*
X009513Y004051D01*
X009455Y004075D01*
X009398Y004103D01*
X009343Y004134D01*
X009290Y004169D01*
X009239Y004206D01*
X009190Y004247D01*
X009144Y004290D01*
X009101Y004336D01*
X009061Y004385D01*
X009023Y004436D01*
X008989Y004489D01*
X008958Y004544D01*
X008930Y004601D01*
X008906Y004659D01*
X008885Y004719D01*
X008868Y004780D01*
X008855Y004842D01*
X008846Y004904D01*
X008840Y004967D01*
X008838Y005030D01*
X008840Y005094D01*
X008846Y005157D01*
X008855Y005219D01*
X008868Y005281D01*
X008885Y005342D01*
X008906Y005402D01*
X008930Y005460D01*
X008957Y005517D01*
X008988Y005572D01*
X009023Y005625D01*
X009060Y005676D01*
X009067Y005671D01*
X009030Y005620D01*
X008996Y005568D01*
X008965Y005513D01*
X008938Y005457D01*
X008914Y005399D01*
X008894Y005339D01*
X008877Y005279D01*
X008864Y005218D01*
X008854Y005156D01*
X008849Y005093D01*
X008847Y005030D01*
X008849Y004968D01*
X008855Y004905D01*
X008864Y004843D01*
X008877Y004782D01*
X008894Y004722D01*
X008915Y004662D01*
X008938Y004604D01*
X008966Y004548D01*
X008997Y004493D01*
X009031Y004441D01*
X009068Y004390D01*
X009108Y004342D01*
X009151Y004296D01*
X009196Y004253D01*
X009245Y004213D01*
X009295Y004176D01*
X009348Y004142D01*
X009402Y004111D01*
X009458Y004083D01*
X009516Y004059D01*
X009576Y004039D01*
X009578Y004047D01*
X009520Y004068D01*
X009462Y004092D01*
X009406Y004119D01*
X009352Y004150D01*
X009300Y004183D01*
X009250Y004220D01*
X009202Y004260D01*
X009157Y004303D01*
X009115Y004348D01*
X009075Y004396D01*
X009038Y004446D01*
X009004Y004498D01*
X008974Y004552D01*
X008947Y004608D01*
X008923Y004666D01*
X008903Y004724D01*
X008886Y004784D01*
X008873Y004845D01*
X008864Y004906D01*
X008858Y004968D01*
X008856Y005030D01*
X008858Y005093D01*
X008863Y005154D01*
X008873Y005216D01*
X008886Y005277D01*
X008902Y005337D01*
X008923Y005395D01*
X008946Y005453D01*
X008973Y005509D01*
X009004Y005563D01*
X009037Y005615D01*
X009074Y005665D01*
X009081Y005660D01*
X009045Y005610D01*
X009012Y005558D01*
X008981Y005505D01*
X008954Y005449D01*
X008931Y005392D01*
X008911Y005334D01*
X008894Y005275D01*
X008882Y005214D01*
X008872Y005153D01*
X008867Y005092D01*
X008865Y005030D01*
X008867Y004969D01*
X008872Y004908D01*
X008882Y004847D01*
X008895Y004786D01*
X008911Y004727D01*
X008931Y004669D01*
X008955Y004612D01*
X008982Y004556D01*
X009012Y004503D01*
X009045Y004451D01*
X009082Y004401D01*
X009121Y004354D01*
X009164Y004309D01*
X009208Y004267D01*
X009256Y004227D01*
X009305Y004191D01*
X009357Y004157D01*
X009410Y004127D01*
X009466Y004100D01*
X009523Y004076D01*
X009581Y004056D01*
X010211Y003996D02*
X010191Y004063D01*
X010249Y004083D01*
X010305Y004106D01*
X010360Y004133D01*
X010413Y004163D01*
X010465Y004197D01*
X010514Y004233D01*
X010561Y004272D01*
X010605Y004314D01*
X010647Y004359D01*
X010687Y004406D01*
X010723Y004455D01*
X010756Y004506D01*
X010786Y004560D01*
X010813Y004615D01*
X010836Y004671D01*
X010856Y004729D01*
X010872Y004788D01*
X010885Y004848D01*
X010895Y004908D01*
X010900Y004969D01*
X010902Y005030D01*
X010900Y005092D01*
X010895Y005153D01*
X010886Y005213D01*
X010873Y005273D01*
X010856Y005332D01*
X010837Y005390D01*
X010813Y005446D01*
X010786Y005501D01*
X010757Y005555D01*
X010723Y005606D01*
X010687Y005655D01*
X010742Y005698D01*
X010742Y005699D01*
X010781Y005646D01*
X010816Y005591D01*
X010848Y005534D01*
X010877Y005475D01*
X010902Y005415D01*
X010923Y005353D01*
X010941Y005290D01*
X010954Y005226D01*
X010964Y005161D01*
X010970Y005096D01*
X010972Y005030D01*
X010970Y004965D01*
X010964Y004900D01*
X010954Y004835D01*
X010940Y004771D01*
X010923Y004708D01*
X010902Y004646D01*
X010877Y004586D01*
X010848Y004527D01*
X010816Y004470D01*
X010780Y004415D01*
X010742Y004362D01*
X010700Y004312D01*
X010655Y004265D01*
X010607Y004220D01*
X010557Y004178D01*
X010504Y004139D01*
X010450Y004103D01*
X010393Y004071D01*
X010334Y004042D01*
X010273Y004017D01*
X010212Y003996D01*
X010209Y004004D01*
X010270Y004026D01*
X010330Y004051D01*
X010388Y004079D01*
X010445Y004111D01*
X010499Y004146D01*
X010552Y004185D01*
X010601Y004226D01*
X010649Y004271D01*
X010693Y004318D01*
X010734Y004368D01*
X010773Y004420D01*
X010808Y004475D01*
X010840Y004531D01*
X010868Y004590D01*
X010893Y004650D01*
X010914Y004711D01*
X010932Y004773D01*
X010945Y004837D01*
X010955Y004901D01*
X010961Y004966D01*
X010963Y005030D01*
X010961Y005095D01*
X010955Y005160D01*
X010946Y005224D01*
X010932Y005288D01*
X010915Y005350D01*
X010894Y005411D01*
X010869Y005471D01*
X010840Y005530D01*
X010809Y005586D01*
X010774Y005641D01*
X010735Y005693D01*
X010728Y005688D01*
X010766Y005636D01*
X010801Y005582D01*
X010832Y005526D01*
X010861Y005468D01*
X010885Y005408D01*
X010906Y005347D01*
X010923Y005285D01*
X010937Y005222D01*
X010946Y005159D01*
X010952Y005095D01*
X010954Y005030D01*
X010952Y004966D01*
X010946Y004902D01*
X010936Y004839D01*
X010923Y004776D01*
X010906Y004714D01*
X010885Y004653D01*
X010860Y004593D01*
X010832Y004536D01*
X010800Y004479D01*
X010766Y004425D01*
X010727Y004374D01*
X010686Y004324D01*
X010642Y004277D01*
X010595Y004233D01*
X010546Y004192D01*
X010494Y004154D01*
X010440Y004119D01*
X010384Y004087D01*
X010327Y004059D01*
X010267Y004034D01*
X010206Y004013D01*
X010204Y004022D01*
X010264Y004042D01*
X010323Y004067D01*
X010380Y004095D01*
X010436Y004126D01*
X010489Y004161D01*
X010541Y004199D01*
X010589Y004240D01*
X010636Y004284D01*
X010680Y004330D01*
X010720Y004379D01*
X010758Y004431D01*
X010793Y004484D01*
X010824Y004540D01*
X010852Y004597D01*
X010876Y004656D01*
X010897Y004716D01*
X010914Y004778D01*
X010928Y004840D01*
X010937Y004903D01*
X010943Y004967D01*
X010945Y005030D01*
X010943Y005094D01*
X010937Y005158D01*
X010928Y005221D01*
X010915Y005283D01*
X010897Y005345D01*
X010877Y005405D01*
X010852Y005464D01*
X010825Y005521D01*
X010793Y005577D01*
X010759Y005631D01*
X010721Y005682D01*
X010714Y005676D01*
X010751Y005625D01*
X010786Y005572D01*
X010817Y005517D01*
X010844Y005460D01*
X010868Y005402D01*
X010889Y005342D01*
X010906Y005281D01*
X010919Y005219D01*
X010928Y005157D01*
X010934Y005094D01*
X010936Y005030D01*
X010934Y004967D01*
X010928Y004904D01*
X010919Y004842D01*
X010906Y004780D01*
X010889Y004719D01*
X010868Y004659D01*
X010844Y004601D01*
X010816Y004544D01*
X010785Y004489D01*
X010751Y004436D01*
X010713Y004385D01*
X010673Y004336D01*
X010630Y004290D01*
X010584Y004247D01*
X010535Y004206D01*
X010484Y004169D01*
X010431Y004134D01*
X010376Y004103D01*
X010319Y004075D01*
X010261Y004051D01*
X010201Y004030D01*
X010198Y004039D01*
X010258Y004059D01*
X010315Y004083D01*
X010372Y004111D01*
X010426Y004142D01*
X010479Y004176D01*
X010529Y004213D01*
X010578Y004253D01*
X010623Y004296D01*
X010666Y004342D01*
X010706Y004390D01*
X010743Y004441D01*
X010777Y004493D01*
X010808Y004548D01*
X010836Y004604D01*
X010859Y004662D01*
X010880Y004722D01*
X010897Y004782D01*
X010910Y004843D01*
X010919Y004905D01*
X010925Y004968D01*
X010927Y005030D01*
X010925Y005093D01*
X010920Y005156D01*
X010910Y005218D01*
X010897Y005279D01*
X010880Y005339D01*
X010860Y005399D01*
X010836Y005457D01*
X010809Y005513D01*
X010778Y005568D01*
X010744Y005620D01*
X010707Y005671D01*
X010700Y005665D01*
X010737Y005615D01*
X010770Y005563D01*
X010801Y005509D01*
X010828Y005453D01*
X010851Y005395D01*
X010872Y005337D01*
X010888Y005277D01*
X010901Y005216D01*
X010911Y005154D01*
X010916Y005093D01*
X010918Y005030D01*
X010916Y004968D01*
X010910Y004906D01*
X010901Y004845D01*
X010888Y004784D01*
X010871Y004724D01*
X010851Y004666D01*
X010827Y004608D01*
X010800Y004552D01*
X010770Y004498D01*
X010736Y004446D01*
X010699Y004396D01*
X010659Y004348D01*
X010617Y004303D01*
X010572Y004260D01*
X010524Y004220D01*
X010474Y004183D01*
X010422Y004150D01*
X010368Y004119D01*
X010312Y004092D01*
X010254Y004068D01*
X010196Y004047D01*
X010193Y004056D01*
X010251Y004076D01*
X010308Y004100D01*
X010363Y004127D01*
X010417Y004157D01*
X010469Y004191D01*
X010518Y004227D01*
X010566Y004267D01*
X010610Y004309D01*
X010653Y004354D01*
X010692Y004401D01*
X010728Y004451D01*
X010762Y004503D01*
X010792Y004556D01*
X010819Y004612D01*
X010843Y004669D01*
X010863Y004727D01*
X010879Y004786D01*
X010892Y004847D01*
X010902Y004907D01*
X010907Y004969D01*
X010909Y005030D01*
X010907Y005092D01*
X010902Y005153D01*
X010892Y005214D01*
X010880Y005275D01*
X010863Y005334D01*
X010843Y005392D01*
X010820Y005449D01*
X010793Y005505D01*
X010763Y005558D01*
X010729Y005610D01*
X010693Y005660D01*
X006682Y005698D02*
X006737Y005655D01*
X006701Y005606D01*
X006667Y005555D01*
X006638Y005501D01*
X006611Y005446D01*
X006587Y005390D01*
X006568Y005332D01*
X006551Y005273D01*
X006538Y005213D01*
X006529Y005153D01*
X006524Y005092D01*
X006522Y005030D01*
X006524Y004969D01*
X006529Y004908D01*
X006539Y004848D01*
X006552Y004788D01*
X006568Y004729D01*
X006588Y004671D01*
X006611Y004615D01*
X006638Y004560D01*
X006668Y004506D01*
X006701Y004455D01*
X006737Y004406D01*
X006777Y004359D01*
X006818Y004314D01*
X006863Y004272D01*
X006910Y004233D01*
X006959Y004197D01*
X007010Y004163D01*
X007064Y004133D01*
X007119Y004106D01*
X007175Y004083D01*
X007233Y004063D01*
X007213Y003996D01*
X007212Y003996D01*
X007151Y004017D01*
X007090Y004042D01*
X007031Y004071D01*
X006974Y004103D01*
X006920Y004139D01*
X006867Y004178D01*
X006817Y004220D01*
X006769Y004265D01*
X006724Y004312D01*
X006682Y004362D01*
X006644Y004415D01*
X006608Y004470D01*
X006576Y004527D01*
X006547Y004586D01*
X006522Y004646D01*
X006501Y004708D01*
X006484Y004771D01*
X006470Y004835D01*
X006460Y004900D01*
X006454Y004965D01*
X006452Y005031D01*
X006454Y005096D01*
X006460Y005161D01*
X006470Y005226D01*
X006483Y005290D01*
X006501Y005353D01*
X006522Y005415D01*
X006547Y005475D01*
X006576Y005534D01*
X006608Y005591D01*
X006643Y005646D01*
X006682Y005699D01*
X006689Y005693D01*
X006651Y005641D01*
X006615Y005586D01*
X006584Y005530D01*
X006555Y005471D01*
X006530Y005411D01*
X006509Y005350D01*
X006492Y005288D01*
X006478Y005224D01*
X006469Y005160D01*
X006463Y005095D01*
X006461Y005031D01*
X006463Y004966D01*
X006469Y004901D01*
X006479Y004837D01*
X006492Y004773D01*
X006510Y004711D01*
X006531Y004650D01*
X006556Y004590D01*
X006584Y004531D01*
X006616Y004475D01*
X006651Y004420D01*
X006689Y004368D01*
X006731Y004318D01*
X006775Y004271D01*
X006823Y004226D01*
X006872Y004185D01*
X006925Y004146D01*
X006979Y004111D01*
X007036Y004079D01*
X007094Y004051D01*
X007154Y004026D01*
X007215Y004004D01*
X007218Y004013D01*
X007157Y004034D01*
X007097Y004059D01*
X007040Y004087D01*
X006984Y004119D01*
X006930Y004154D01*
X006878Y004192D01*
X006829Y004233D01*
X006782Y004277D01*
X006738Y004324D01*
X006697Y004374D01*
X006658Y004425D01*
X006624Y004479D01*
X006592Y004536D01*
X006564Y004593D01*
X006539Y004653D01*
X006518Y004714D01*
X006501Y004776D01*
X006488Y004839D01*
X006478Y004902D01*
X006472Y004966D01*
X006470Y005030D01*
X006472Y005095D01*
X006478Y005159D01*
X006487Y005222D01*
X006501Y005285D01*
X006518Y005347D01*
X006539Y005408D01*
X006563Y005468D01*
X006592Y005526D01*
X006623Y005582D01*
X006658Y005636D01*
X006696Y005688D01*
X006703Y005682D01*
X006665Y005631D01*
X006631Y005577D01*
X006599Y005521D01*
X006572Y005464D01*
X006547Y005405D01*
X006527Y005345D01*
X006510Y005283D01*
X006496Y005221D01*
X006487Y005158D01*
X006481Y005094D01*
X006479Y005030D01*
X006481Y004967D01*
X006487Y004903D01*
X006496Y004840D01*
X006510Y004778D01*
X006527Y004716D01*
X006548Y004656D01*
X006572Y004597D01*
X006600Y004540D01*
X006631Y004484D01*
X006666Y004431D01*
X006704Y004379D01*
X006744Y004330D01*
X006788Y004284D01*
X006835Y004240D01*
X006883Y004199D01*
X006935Y004161D01*
X006988Y004126D01*
X007044Y004095D01*
X007101Y004067D01*
X007160Y004042D01*
X007220Y004022D01*
X007223Y004030D01*
X007163Y004051D01*
X007105Y004075D01*
X007048Y004103D01*
X006993Y004134D01*
X006940Y004169D01*
X006889Y004206D01*
X006840Y004247D01*
X006794Y004290D01*
X006751Y004336D01*
X006711Y004385D01*
X006673Y004436D01*
X006639Y004489D01*
X006608Y004544D01*
X006580Y004601D01*
X006556Y004659D01*
X006535Y004719D01*
X006518Y004780D01*
X006505Y004842D01*
X006496Y004904D01*
X006490Y004967D01*
X006488Y005030D01*
X006490Y005094D01*
X006496Y005157D01*
X006505Y005219D01*
X006518Y005281D01*
X006535Y005342D01*
X006556Y005402D01*
X006580Y005460D01*
X006607Y005517D01*
X006638Y005572D01*
X006673Y005625D01*
X006710Y005676D01*
X006717Y005671D01*
X006680Y005620D01*
X006646Y005568D01*
X006615Y005513D01*
X006588Y005457D01*
X006564Y005399D01*
X006544Y005339D01*
X006527Y005279D01*
X006514Y005218D01*
X006504Y005156D01*
X006499Y005093D01*
X006497Y005030D01*
X006499Y004968D01*
X006505Y004905D01*
X006514Y004843D01*
X006527Y004782D01*
X006544Y004722D01*
X006565Y004662D01*
X006588Y004604D01*
X006616Y004548D01*
X006647Y004493D01*
X006681Y004441D01*
X006718Y004390D01*
X006758Y004342D01*
X006801Y004296D01*
X006846Y004253D01*
X006895Y004213D01*
X006945Y004176D01*
X006998Y004142D01*
X007052Y004111D01*
X007108Y004083D01*
X007166Y004059D01*
X007226Y004039D01*
X007228Y004047D01*
X007170Y004068D01*
X007112Y004092D01*
X007056Y004119D01*
X007002Y004150D01*
X006950Y004183D01*
X006900Y004220D01*
X006852Y004260D01*
X006807Y004303D01*
X006765Y004348D01*
X006725Y004396D01*
X006688Y004446D01*
X006654Y004498D01*
X006624Y004552D01*
X006597Y004608D01*
X006573Y004666D01*
X006553Y004724D01*
X006536Y004784D01*
X006523Y004845D01*
X006514Y004906D01*
X006508Y004968D01*
X006506Y005030D01*
X006508Y005093D01*
X006513Y005154D01*
X006523Y005216D01*
X006536Y005277D01*
X006552Y005337D01*
X006573Y005395D01*
X006596Y005453D01*
X006623Y005509D01*
X006654Y005563D01*
X006687Y005615D01*
X006724Y005665D01*
X006731Y005660D01*
X006695Y005610D01*
X006662Y005558D01*
X006631Y005505D01*
X006604Y005449D01*
X006581Y005392D01*
X006561Y005334D01*
X006544Y005275D01*
X006532Y005214D01*
X006522Y005153D01*
X006517Y005092D01*
X006515Y005030D01*
X006517Y004969D01*
X006522Y004908D01*
X006532Y004847D01*
X006545Y004786D01*
X006561Y004727D01*
X006581Y004669D01*
X006605Y004612D01*
X006632Y004556D01*
X006662Y004503D01*
X006695Y004451D01*
X006732Y004401D01*
X006771Y004354D01*
X006814Y004309D01*
X006858Y004267D01*
X006906Y004227D01*
X006955Y004191D01*
X007007Y004157D01*
X007060Y004127D01*
X007116Y004100D01*
X007173Y004076D01*
X007231Y004056D01*
X007861Y003996D02*
X007841Y004063D01*
X007899Y004083D01*
X007955Y004106D01*
X008010Y004133D01*
X008063Y004163D01*
X008115Y004197D01*
X008164Y004233D01*
X008211Y004272D01*
X008255Y004314D01*
X008297Y004359D01*
X008337Y004406D01*
X008373Y004455D01*
X008406Y004506D01*
X008436Y004560D01*
X008463Y004615D01*
X008486Y004671D01*
X008506Y004729D01*
X008522Y004788D01*
X008535Y004848D01*
X008545Y004908D01*
X008550Y004969D01*
X008552Y005030D01*
X008550Y005092D01*
X008545Y005153D01*
X008536Y005213D01*
X008523Y005273D01*
X008506Y005332D01*
X008487Y005390D01*
X008463Y005446D01*
X008436Y005501D01*
X008407Y005555D01*
X008373Y005606D01*
X008337Y005655D01*
X008392Y005698D01*
X008392Y005699D01*
X008431Y005646D01*
X008466Y005591D01*
X008498Y005534D01*
X008527Y005475D01*
X008552Y005415D01*
X008573Y005353D01*
X008591Y005290D01*
X008604Y005226D01*
X008614Y005161D01*
X008620Y005096D01*
X008622Y005030D01*
X008620Y004965D01*
X008614Y004900D01*
X008604Y004835D01*
X008590Y004771D01*
X008573Y004708D01*
X008552Y004646D01*
X008527Y004586D01*
X008498Y004527D01*
X008466Y004470D01*
X008430Y004415D01*
X008392Y004362D01*
X008350Y004312D01*
X008305Y004265D01*
X008257Y004220D01*
X008207Y004178D01*
X008154Y004139D01*
X008100Y004103D01*
X008043Y004071D01*
X007984Y004042D01*
X007923Y004017D01*
X007862Y003996D01*
X007859Y004004D01*
X007920Y004026D01*
X007980Y004051D01*
X008038Y004079D01*
X008095Y004111D01*
X008149Y004146D01*
X008202Y004185D01*
X008251Y004226D01*
X008299Y004271D01*
X008343Y004318D01*
X008384Y004368D01*
X008423Y004420D01*
X008458Y004475D01*
X008490Y004531D01*
X008518Y004590D01*
X008543Y004650D01*
X008564Y004711D01*
X008582Y004773D01*
X008595Y004837D01*
X008605Y004901D01*
X008611Y004966D01*
X008613Y005030D01*
X008611Y005095D01*
X008605Y005160D01*
X008596Y005224D01*
X008582Y005288D01*
X008565Y005350D01*
X008544Y005411D01*
X008519Y005471D01*
X008490Y005530D01*
X008459Y005586D01*
X008424Y005641D01*
X008385Y005693D01*
X008378Y005688D01*
X008416Y005636D01*
X008451Y005582D01*
X008482Y005526D01*
X008511Y005468D01*
X008535Y005408D01*
X008556Y005347D01*
X008573Y005285D01*
X008587Y005222D01*
X008596Y005159D01*
X008602Y005095D01*
X008604Y005030D01*
X008602Y004966D01*
X008596Y004902D01*
X008586Y004839D01*
X008573Y004776D01*
X008556Y004714D01*
X008535Y004653D01*
X008510Y004593D01*
X008482Y004536D01*
X008450Y004479D01*
X008416Y004425D01*
X008377Y004374D01*
X008336Y004324D01*
X008292Y004277D01*
X008245Y004233D01*
X008196Y004192D01*
X008144Y004154D01*
X008090Y004119D01*
X008034Y004087D01*
X007977Y004059D01*
X007917Y004034D01*
X007856Y004013D01*
X007854Y004022D01*
X007914Y004042D01*
X007973Y004067D01*
X008030Y004095D01*
X008086Y004126D01*
X008139Y004161D01*
X008191Y004199D01*
X008239Y004240D01*
X008286Y004284D01*
X008330Y004330D01*
X008370Y004379D01*
X008408Y004431D01*
X008443Y004484D01*
X008474Y004540D01*
X008502Y004597D01*
X008526Y004656D01*
X008547Y004716D01*
X008564Y004778D01*
X008578Y004840D01*
X008587Y004903D01*
X008593Y004967D01*
X008595Y005030D01*
X008593Y005094D01*
X008587Y005158D01*
X008578Y005221D01*
X008565Y005283D01*
X008547Y005345D01*
X008527Y005405D01*
X008502Y005464D01*
X008475Y005521D01*
X008443Y005577D01*
X008409Y005631D01*
X008371Y005682D01*
X008364Y005676D01*
X008401Y005625D01*
X008436Y005572D01*
X008467Y005517D01*
X008494Y005460D01*
X008518Y005402D01*
X008539Y005342D01*
X008556Y005281D01*
X008569Y005219D01*
X008578Y005157D01*
X008584Y005094D01*
X008586Y005030D01*
X008584Y004967D01*
X008578Y004904D01*
X008569Y004842D01*
X008556Y004780D01*
X008539Y004719D01*
X008518Y004659D01*
X008494Y004601D01*
X008466Y004544D01*
X008435Y004489D01*
X008401Y004436D01*
X008363Y004385D01*
X008323Y004336D01*
X008280Y004290D01*
X008234Y004247D01*
X008185Y004206D01*
X008134Y004169D01*
X008081Y004134D01*
X008026Y004103D01*
X007969Y004075D01*
X007911Y004051D01*
X007851Y004030D01*
X007848Y004039D01*
X007908Y004059D01*
X007965Y004083D01*
X008022Y004111D01*
X008076Y004142D01*
X008129Y004176D01*
X008179Y004213D01*
X008228Y004253D01*
X008273Y004296D01*
X008316Y004342D01*
X008356Y004390D01*
X008393Y004441D01*
X008427Y004493D01*
X008458Y004548D01*
X008486Y004604D01*
X008509Y004662D01*
X008530Y004722D01*
X008547Y004782D01*
X008560Y004843D01*
X008569Y004905D01*
X008575Y004968D01*
X008577Y005030D01*
X008575Y005093D01*
X008570Y005156D01*
X008560Y005218D01*
X008547Y005279D01*
X008530Y005339D01*
X008510Y005399D01*
X008486Y005457D01*
X008459Y005513D01*
X008428Y005568D01*
X008394Y005620D01*
X008357Y005671D01*
X008350Y005665D01*
X008387Y005615D01*
X008420Y005563D01*
X008451Y005509D01*
X008478Y005453D01*
X008501Y005395D01*
X008522Y005337D01*
X008538Y005277D01*
X008551Y005216D01*
X008561Y005154D01*
X008566Y005093D01*
X008568Y005030D01*
X008566Y004968D01*
X008560Y004906D01*
X008551Y004845D01*
X008538Y004784D01*
X008521Y004724D01*
X008501Y004666D01*
X008477Y004608D01*
X008450Y004552D01*
X008420Y004498D01*
X008386Y004446D01*
X008349Y004396D01*
X008309Y004348D01*
X008267Y004303D01*
X008222Y004260D01*
X008174Y004220D01*
X008124Y004183D01*
X008072Y004150D01*
X008018Y004119D01*
X007962Y004092D01*
X007904Y004068D01*
X007846Y004047D01*
X007843Y004056D01*
X007901Y004076D01*
X007958Y004100D01*
X008013Y004127D01*
X008067Y004157D01*
X008119Y004191D01*
X008168Y004227D01*
X008216Y004267D01*
X008260Y004309D01*
X008303Y004354D01*
X008342Y004401D01*
X008378Y004451D01*
X008412Y004503D01*
X008442Y004556D01*
X008469Y004612D01*
X008493Y004669D01*
X008513Y004727D01*
X008529Y004786D01*
X008542Y004847D01*
X008552Y004907D01*
X008557Y004969D01*
X008559Y005030D01*
X008557Y005092D01*
X008552Y005153D01*
X008542Y005214D01*
X008530Y005275D01*
X008513Y005334D01*
X008493Y005392D01*
X008470Y005449D01*
X008443Y005505D01*
X008413Y005558D01*
X008379Y005610D01*
X008343Y005660D01*
X004282Y005698D02*
X004337Y005655D01*
X004301Y005606D01*
X004267Y005555D01*
X004238Y005501D01*
X004211Y005446D01*
X004187Y005390D01*
X004168Y005332D01*
X004151Y005273D01*
X004138Y005213D01*
X004129Y005153D01*
X004124Y005092D01*
X004122Y005030D01*
X004124Y004969D01*
X004129Y004908D01*
X004139Y004848D01*
X004152Y004788D01*
X004168Y004729D01*
X004188Y004671D01*
X004211Y004615D01*
X004238Y004560D01*
X004268Y004506D01*
X004301Y004455D01*
X004337Y004406D01*
X004377Y004359D01*
X004418Y004314D01*
X004463Y004272D01*
X004510Y004233D01*
X004559Y004197D01*
X004610Y004163D01*
X004664Y004133D01*
X004719Y004106D01*
X004775Y004083D01*
X004833Y004063D01*
X004813Y003996D01*
X004812Y003996D01*
X004751Y004017D01*
X004690Y004042D01*
X004631Y004071D01*
X004574Y004103D01*
X004520Y004139D01*
X004467Y004178D01*
X004417Y004220D01*
X004369Y004265D01*
X004324Y004312D01*
X004282Y004362D01*
X004244Y004415D01*
X004208Y004470D01*
X004176Y004527D01*
X004147Y004586D01*
X004122Y004646D01*
X004101Y004708D01*
X004084Y004771D01*
X004070Y004835D01*
X004060Y004900D01*
X004054Y004965D01*
X004052Y005031D01*
X004054Y005096D01*
X004060Y005161D01*
X004070Y005226D01*
X004083Y005290D01*
X004101Y005353D01*
X004122Y005415D01*
X004147Y005475D01*
X004176Y005534D01*
X004208Y005591D01*
X004243Y005646D01*
X004282Y005699D01*
X004289Y005693D01*
X004251Y005641D01*
X004215Y005586D01*
X004184Y005530D01*
X004155Y005471D01*
X004130Y005411D01*
X004109Y005350D01*
X004092Y005288D01*
X004078Y005224D01*
X004069Y005160D01*
X004063Y005095D01*
X004061Y005031D01*
X004063Y004966D01*
X004069Y004901D01*
X004079Y004837D01*
X004092Y004773D01*
X004110Y004711D01*
X004131Y004650D01*
X004156Y004590D01*
X004184Y004531D01*
X004216Y004475D01*
X004251Y004420D01*
X004289Y004368D01*
X004331Y004318D01*
X004375Y004271D01*
X004423Y004226D01*
X004472Y004185D01*
X004525Y004146D01*
X004579Y004111D01*
X004636Y004079D01*
X004694Y004051D01*
X004754Y004026D01*
X004815Y004004D01*
X004818Y004013D01*
X004757Y004034D01*
X004697Y004059D01*
X004640Y004087D01*
X004584Y004119D01*
X004530Y004154D01*
X004478Y004192D01*
X004429Y004233D01*
X004382Y004277D01*
X004338Y004324D01*
X004297Y004374D01*
X004258Y004425D01*
X004224Y004479D01*
X004192Y004536D01*
X004164Y004593D01*
X004139Y004653D01*
X004118Y004714D01*
X004101Y004776D01*
X004088Y004839D01*
X004078Y004902D01*
X004072Y004966D01*
X004070Y005030D01*
X004072Y005095D01*
X004078Y005159D01*
X004087Y005222D01*
X004101Y005285D01*
X004118Y005347D01*
X004139Y005408D01*
X004163Y005468D01*
X004192Y005526D01*
X004223Y005582D01*
X004258Y005636D01*
X004296Y005688D01*
X004303Y005682D01*
X004265Y005631D01*
X004231Y005577D01*
X004199Y005521D01*
X004172Y005464D01*
X004147Y005405D01*
X004127Y005345D01*
X004110Y005283D01*
X004096Y005221D01*
X004087Y005158D01*
X004081Y005094D01*
X004079Y005030D01*
X004081Y004967D01*
X004087Y004903D01*
X004096Y004840D01*
X004110Y004778D01*
X004127Y004716D01*
X004148Y004656D01*
X004172Y004597D01*
X004200Y004540D01*
X004231Y004484D01*
X004266Y004431D01*
X004304Y004379D01*
X004344Y004330D01*
X004388Y004284D01*
X004435Y004240D01*
X004483Y004199D01*
X004535Y004161D01*
X004588Y004126D01*
X004644Y004095D01*
X004701Y004067D01*
X004760Y004042D01*
X004820Y004022D01*
X004823Y004030D01*
X004763Y004051D01*
X004705Y004075D01*
X004648Y004103D01*
X004593Y004134D01*
X004540Y004169D01*
X004489Y004206D01*
X004440Y004247D01*
X004394Y004290D01*
X004351Y004336D01*
X004311Y004385D01*
X004273Y004436D01*
X004239Y004489D01*
X004208Y004544D01*
X004180Y004601D01*
X004156Y004659D01*
X004135Y004719D01*
X004118Y004780D01*
X004105Y004842D01*
X004096Y004904D01*
X004090Y004967D01*
X004088Y005030D01*
X004090Y005094D01*
X004096Y005157D01*
X004105Y005219D01*
X004118Y005281D01*
X004135Y005342D01*
X004156Y005402D01*
X004180Y005460D01*
X004207Y005517D01*
X004238Y005572D01*
X004273Y005625D01*
X004310Y005676D01*
X004317Y005671D01*
X004280Y005620D01*
X004246Y005568D01*
X004215Y005513D01*
X004188Y005457D01*
X004164Y005399D01*
X004144Y005339D01*
X004127Y005279D01*
X004114Y005218D01*
X004104Y005156D01*
X004099Y005093D01*
X004097Y005030D01*
X004099Y004968D01*
X004105Y004905D01*
X004114Y004843D01*
X004127Y004782D01*
X004144Y004722D01*
X004165Y004662D01*
X004188Y004604D01*
X004216Y004548D01*
X004247Y004493D01*
X004281Y004441D01*
X004318Y004390D01*
X004358Y004342D01*
X004401Y004296D01*
X004446Y004253D01*
X004495Y004213D01*
X004545Y004176D01*
X004598Y004142D01*
X004652Y004111D01*
X004708Y004083D01*
X004766Y004059D01*
X004826Y004039D01*
X004828Y004047D01*
X004770Y004068D01*
X004712Y004092D01*
X004656Y004119D01*
X004602Y004150D01*
X004550Y004183D01*
X004500Y004220D01*
X004452Y004260D01*
X004407Y004303D01*
X004365Y004348D01*
X004325Y004396D01*
X004288Y004446D01*
X004254Y004498D01*
X004224Y004552D01*
X004197Y004608D01*
X004173Y004666D01*
X004153Y004724D01*
X004136Y004784D01*
X004123Y004845D01*
X004114Y004906D01*
X004108Y004968D01*
X004106Y005030D01*
X004108Y005093D01*
X004113Y005154D01*
X004123Y005216D01*
X004136Y005277D01*
X004152Y005337D01*
X004173Y005395D01*
X004196Y005453D01*
X004223Y005509D01*
X004254Y005563D01*
X004287Y005615D01*
X004324Y005665D01*
X004331Y005660D01*
X004295Y005610D01*
X004262Y005558D01*
X004231Y005505D01*
X004204Y005449D01*
X004181Y005392D01*
X004161Y005334D01*
X004144Y005275D01*
X004132Y005214D01*
X004122Y005153D01*
X004117Y005092D01*
X004115Y005030D01*
X004117Y004969D01*
X004122Y004908D01*
X004132Y004847D01*
X004145Y004786D01*
X004161Y004727D01*
X004181Y004669D01*
X004205Y004612D01*
X004232Y004556D01*
X004262Y004503D01*
X004295Y004451D01*
X004332Y004401D01*
X004371Y004354D01*
X004414Y004309D01*
X004458Y004267D01*
X004506Y004227D01*
X004555Y004191D01*
X004607Y004157D01*
X004660Y004127D01*
X004716Y004100D01*
X004773Y004076D01*
X004831Y004056D01*
X005461Y003996D02*
X005441Y004063D01*
X005499Y004083D01*
X005555Y004106D01*
X005610Y004133D01*
X005663Y004163D01*
X005715Y004197D01*
X005764Y004233D01*
X005811Y004272D01*
X005855Y004314D01*
X005897Y004359D01*
X005937Y004406D01*
X005973Y004455D01*
X006006Y004506D01*
X006036Y004560D01*
X006063Y004615D01*
X006086Y004671D01*
X006106Y004729D01*
X006122Y004788D01*
X006135Y004848D01*
X006145Y004908D01*
X006150Y004969D01*
X006152Y005030D01*
X006150Y005092D01*
X006145Y005153D01*
X006136Y005213D01*
X006123Y005273D01*
X006106Y005332D01*
X006087Y005390D01*
X006063Y005446D01*
X006036Y005501D01*
X006007Y005555D01*
X005973Y005606D01*
X005937Y005655D01*
X005992Y005698D01*
X005992Y005699D01*
X006031Y005646D01*
X006066Y005591D01*
X006098Y005534D01*
X006127Y005475D01*
X006152Y005415D01*
X006173Y005353D01*
X006191Y005290D01*
X006204Y005226D01*
X006214Y005161D01*
X006220Y005096D01*
X006222Y005030D01*
X006220Y004965D01*
X006214Y004900D01*
X006204Y004835D01*
X006190Y004771D01*
X006173Y004708D01*
X006152Y004646D01*
X006127Y004586D01*
X006098Y004527D01*
X006066Y004470D01*
X006030Y004415D01*
X005992Y004362D01*
X005950Y004312D01*
X005905Y004265D01*
X005857Y004220D01*
X005807Y004178D01*
X005754Y004139D01*
X005700Y004103D01*
X005643Y004071D01*
X005584Y004042D01*
X005523Y004017D01*
X005462Y003996D01*
X005459Y004004D01*
X005520Y004026D01*
X005580Y004051D01*
X005638Y004079D01*
X005695Y004111D01*
X005749Y004146D01*
X005802Y004185D01*
X005851Y004226D01*
X005899Y004271D01*
X005943Y004318D01*
X005984Y004368D01*
X006023Y004420D01*
X006058Y004475D01*
X006090Y004531D01*
X006118Y004590D01*
X006143Y004650D01*
X006164Y004711D01*
X006182Y004773D01*
X006195Y004837D01*
X006205Y004901D01*
X006211Y004966D01*
X006213Y005030D01*
X006211Y005095D01*
X006205Y005160D01*
X006196Y005224D01*
X006182Y005288D01*
X006165Y005350D01*
X006144Y005411D01*
X006119Y005471D01*
X006090Y005530D01*
X006059Y005586D01*
X006024Y005641D01*
X005985Y005693D01*
X005978Y005688D01*
X006016Y005636D01*
X006051Y005582D01*
X006082Y005526D01*
X006111Y005468D01*
X006135Y005408D01*
X006156Y005347D01*
X006173Y005285D01*
X006187Y005222D01*
X006196Y005159D01*
X006202Y005095D01*
X006204Y005030D01*
X006202Y004966D01*
X006196Y004902D01*
X006186Y004839D01*
X006173Y004776D01*
X006156Y004714D01*
X006135Y004653D01*
X006110Y004593D01*
X006082Y004536D01*
X006050Y004479D01*
X006016Y004425D01*
X005977Y004374D01*
X005936Y004324D01*
X005892Y004277D01*
X005845Y004233D01*
X005796Y004192D01*
X005744Y004154D01*
X005690Y004119D01*
X005634Y004087D01*
X005577Y004059D01*
X005517Y004034D01*
X005456Y004013D01*
X005454Y004022D01*
X005514Y004042D01*
X005573Y004067D01*
X005630Y004095D01*
X005686Y004126D01*
X005739Y004161D01*
X005791Y004199D01*
X005839Y004240D01*
X005886Y004284D01*
X005930Y004330D01*
X005970Y004379D01*
X006008Y004431D01*
X006043Y004484D01*
X006074Y004540D01*
X006102Y004597D01*
X006126Y004656D01*
X006147Y004716D01*
X006164Y004778D01*
X006178Y004840D01*
X006187Y004903D01*
X006193Y004967D01*
X006195Y005030D01*
X006193Y005094D01*
X006187Y005158D01*
X006178Y005221D01*
X006165Y005283D01*
X006147Y005345D01*
X006127Y005405D01*
X006102Y005464D01*
X006075Y005521D01*
X006043Y005577D01*
X006009Y005631D01*
X005971Y005682D01*
X005964Y005676D01*
X006001Y005625D01*
X006036Y005572D01*
X006067Y005517D01*
X006094Y005460D01*
X006118Y005402D01*
X006139Y005342D01*
X006156Y005281D01*
X006169Y005219D01*
X006178Y005157D01*
X006184Y005094D01*
X006186Y005030D01*
X006184Y004967D01*
X006178Y004904D01*
X006169Y004842D01*
X006156Y004780D01*
X006139Y004719D01*
X006118Y004659D01*
X006094Y004601D01*
X006066Y004544D01*
X006035Y004489D01*
X006001Y004436D01*
X005963Y004385D01*
X005923Y004336D01*
X005880Y004290D01*
X005834Y004247D01*
X005785Y004206D01*
X005734Y004169D01*
X005681Y004134D01*
X005626Y004103D01*
X005569Y004075D01*
X005511Y004051D01*
X005451Y004030D01*
X005448Y004039D01*
X005508Y004059D01*
X005565Y004083D01*
X005622Y004111D01*
X005676Y004142D01*
X005729Y004176D01*
X005779Y004213D01*
X005828Y004253D01*
X005873Y004296D01*
X005916Y004342D01*
X005956Y004390D01*
X005993Y004441D01*
X006027Y004493D01*
X006058Y004548D01*
X006086Y004604D01*
X006109Y004662D01*
X006130Y004722D01*
X006147Y004782D01*
X006160Y004843D01*
X006169Y004905D01*
X006175Y004968D01*
X006177Y005030D01*
X006175Y005093D01*
X006170Y005156D01*
X006160Y005218D01*
X006147Y005279D01*
X006130Y005339D01*
X006110Y005399D01*
X006086Y005457D01*
X006059Y005513D01*
X006028Y005568D01*
X005994Y005620D01*
X005957Y005671D01*
X005950Y005665D01*
X005987Y005615D01*
X006020Y005563D01*
X006051Y005509D01*
X006078Y005453D01*
X006101Y005395D01*
X006122Y005337D01*
X006138Y005277D01*
X006151Y005216D01*
X006161Y005154D01*
X006166Y005093D01*
X006168Y005030D01*
X006166Y004968D01*
X006160Y004906D01*
X006151Y004845D01*
X006138Y004784D01*
X006121Y004724D01*
X006101Y004666D01*
X006077Y004608D01*
X006050Y004552D01*
X006020Y004498D01*
X005986Y004446D01*
X005949Y004396D01*
X005909Y004348D01*
X005867Y004303D01*
X005822Y004260D01*
X005774Y004220D01*
X005724Y004183D01*
X005672Y004150D01*
X005618Y004119D01*
X005562Y004092D01*
X005504Y004068D01*
X005446Y004047D01*
X005443Y004056D01*
X005501Y004076D01*
X005558Y004100D01*
X005613Y004127D01*
X005667Y004157D01*
X005719Y004191D01*
X005768Y004227D01*
X005816Y004267D01*
X005860Y004309D01*
X005903Y004354D01*
X005942Y004401D01*
X005978Y004451D01*
X006012Y004503D01*
X006042Y004556D01*
X006069Y004612D01*
X006093Y004669D01*
X006113Y004727D01*
X006129Y004786D01*
X006142Y004847D01*
X006152Y004907D01*
X006157Y004969D01*
X006159Y005030D01*
X006157Y005092D01*
X006152Y005153D01*
X006142Y005214D01*
X006130Y005275D01*
X006113Y005334D01*
X006093Y005392D01*
X006070Y005449D01*
X006043Y005505D01*
X006013Y005558D01*
X005979Y005610D01*
X005943Y005660D01*
D19*
X012990Y014181D02*
X012992Y014208D01*
X012998Y014235D01*
X013007Y014261D01*
X013020Y014285D01*
X013036Y014308D01*
X013055Y014327D01*
X013077Y014344D01*
X013101Y014358D01*
X013126Y014368D01*
X013153Y014375D01*
X013180Y014378D01*
X013208Y014377D01*
X013235Y014372D01*
X013261Y014364D01*
X013285Y014352D01*
X013308Y014336D01*
X013329Y014318D01*
X013346Y014297D01*
X013361Y014273D01*
X013372Y014248D01*
X013380Y014222D01*
X013384Y014195D01*
X013384Y014167D01*
X013380Y014140D01*
X013372Y014114D01*
X013361Y014089D01*
X013346Y014065D01*
X013329Y014044D01*
X013308Y014026D01*
X013286Y014010D01*
X013261Y013998D01*
X013235Y013990D01*
X013208Y013985D01*
X013180Y013984D01*
X013153Y013987D01*
X013126Y013994D01*
X013101Y014004D01*
X013077Y014018D01*
X013055Y014035D01*
X013036Y014054D01*
X013020Y014077D01*
X013007Y014101D01*
X012998Y014127D01*
X012992Y014154D01*
X012990Y014181D01*
D20*
X014802Y003916D03*
X014802Y003911D03*
X017082Y003921D03*
X016492Y002541D03*
X016462Y002526D03*
X016302Y002466D03*
X016207Y002441D03*
X016072Y002421D03*
X015987Y002521D03*
X015997Y002531D03*
X015892Y002521D03*
X015807Y002421D03*
X015682Y002441D03*
X015547Y002476D03*
X015537Y002481D03*
X015527Y002486D03*
D21*
X015832Y002421D03*
X015852Y002561D03*
X016027Y002561D03*
X017092Y003836D03*
X016162Y004281D03*
X015717Y004281D03*
X015712Y004276D03*
X014797Y003851D03*
X014797Y003846D03*
X014797Y003841D03*
X014797Y003836D03*
D22*
X014797Y003856D03*
X014797Y003861D03*
X014797Y003866D03*
X014797Y003871D03*
X015722Y004286D03*
X015722Y004291D03*
X015862Y002551D03*
X016052Y002421D03*
D23*
X016079Y002426D03*
X016054Y002591D03*
X015809Y002426D03*
X014794Y003781D03*
X015679Y004226D03*
X015684Y004231D03*
X015684Y004236D03*
X015689Y004241D03*
X016189Y004241D03*
X016194Y004231D03*
X016199Y004226D03*
X017089Y003786D03*
X017089Y003781D03*
X017094Y003796D03*
D24*
X016234Y004166D03*
X016229Y004171D03*
X015649Y004176D03*
X015649Y004171D03*
X015644Y004166D03*
X015639Y004161D03*
X014799Y003706D03*
X014799Y003701D03*
X015769Y002656D03*
X015779Y002646D03*
X015779Y002641D03*
X015789Y002431D03*
X016099Y002646D03*
X016104Y002651D03*
D25*
X016097Y002641D03*
X016092Y002636D03*
X016097Y002431D03*
X015787Y002631D03*
X015787Y002636D03*
X014797Y003711D03*
X014797Y003721D03*
X014802Y003726D03*
X014797Y003731D03*
X015652Y004181D03*
X015657Y004186D03*
X016222Y004186D03*
X016227Y004181D03*
X016227Y004176D03*
X017087Y003726D03*
X017087Y003716D03*
X017087Y003711D03*
X017087Y003706D03*
D26*
X017084Y003661D03*
X017084Y003656D03*
X017084Y003651D03*
X017084Y003646D03*
X016249Y004136D03*
X015624Y004131D03*
X015619Y004121D03*
X014804Y003656D03*
X014804Y003646D03*
X014804Y003641D03*
X015739Y002696D03*
X015749Y002686D03*
X015769Y002436D03*
X016134Y002691D03*
D27*
X016142Y002696D03*
X016142Y002701D03*
X016122Y002436D03*
X015742Y002691D03*
X014807Y003626D03*
X014807Y003636D03*
X014802Y003651D03*
X015612Y004111D03*
X015617Y004116D03*
X016257Y004121D03*
X016262Y004116D03*
X016262Y004111D03*
X016267Y004101D03*
X017082Y003641D03*
X017082Y003636D03*
X017082Y003626D03*
D28*
X017079Y003621D03*
X017079Y003616D03*
X017079Y003631D03*
X016274Y004086D03*
X016269Y004096D03*
X016264Y004106D03*
X015614Y004106D03*
X015609Y004101D03*
X015609Y004096D03*
X015609Y004091D03*
X014804Y003631D03*
X014809Y003616D03*
X015724Y002716D03*
X015724Y002711D03*
X015734Y002706D03*
X015734Y002701D03*
X015749Y002441D03*
X016144Y002706D03*
X016149Y002711D03*
D29*
X016152Y002716D03*
X016162Y002726D03*
X015717Y002721D03*
X016137Y002441D03*
X017077Y003606D03*
X016277Y004081D03*
X016272Y004091D03*
X015602Y004086D03*
X015602Y004081D03*
X015597Y004076D03*
X014807Y003621D03*
X014807Y003611D03*
X014812Y003606D03*
D30*
X014819Y003541D03*
X014824Y003526D03*
X014824Y003516D03*
X015564Y004001D03*
X015569Y004011D03*
X015574Y004016D03*
X016304Y004016D03*
X016304Y004011D03*
X016309Y004006D03*
X016309Y004001D03*
X017069Y003546D03*
X017069Y003536D03*
X017064Y003531D03*
X017064Y003521D03*
X016214Y002811D03*
X016204Y002796D03*
X016199Y002791D03*
X016194Y002776D03*
X015684Y002776D03*
X015679Y002786D03*
X015674Y002791D03*
X015669Y002801D03*
X015729Y002446D03*
D31*
X016157Y002446D03*
X016187Y002766D03*
X016192Y002771D03*
X016197Y002781D03*
X015697Y002756D03*
X015692Y002766D03*
X015687Y002771D03*
X015682Y002781D03*
X014822Y003536D03*
X014817Y003551D03*
X014817Y003561D03*
X015577Y004021D03*
X015577Y004026D03*
X015582Y004036D03*
X016297Y004036D03*
X016297Y004031D03*
X016302Y004026D03*
X016302Y004021D03*
X017072Y003561D03*
X017067Y003541D03*
D32*
X017062Y003526D03*
X017062Y003516D03*
X017062Y003506D03*
X016312Y003996D03*
X015572Y004006D03*
X015562Y003996D03*
X014822Y003531D03*
X014822Y003521D03*
X014827Y003506D03*
X014827Y003501D03*
X014832Y003486D03*
X015662Y002811D03*
X015667Y002806D03*
X015672Y002796D03*
X016197Y002786D03*
X016207Y002801D03*
X015717Y002451D03*
D33*
X015704Y002456D03*
X016169Y002451D03*
X016209Y002806D03*
X016214Y002816D03*
X016219Y002821D03*
X016224Y002831D03*
X015664Y002816D03*
X015654Y002826D03*
X014829Y003491D03*
X014829Y003496D03*
X014824Y003511D03*
X015554Y003966D03*
X015559Y003981D03*
X015564Y003991D03*
X016314Y003991D03*
X016314Y003986D03*
X016319Y003981D03*
X016319Y003971D03*
X016324Y003966D03*
X016324Y003961D03*
X017059Y003511D03*
X017059Y003501D03*
X017059Y003496D03*
X017054Y003481D03*
D34*
X017054Y003476D03*
X017054Y003471D03*
X017049Y003461D03*
X017049Y003456D03*
X017054Y003486D03*
X016339Y003926D03*
X016334Y003931D03*
X016334Y003936D03*
X015549Y003951D03*
X015544Y003941D03*
X015544Y003936D03*
X015539Y003931D03*
X015539Y003921D03*
X014834Y003476D03*
X014834Y003471D03*
X014834Y003466D03*
X015634Y002866D03*
X015649Y002841D03*
X015649Y002836D03*
X016229Y002841D03*
X016229Y002836D03*
X016234Y002846D03*
X016234Y002851D03*
X016184Y002456D03*
D35*
X016192Y002461D03*
X015692Y002461D03*
X015642Y002846D03*
X015637Y002861D03*
X015632Y002871D03*
X015627Y002881D03*
X016237Y002856D03*
X016242Y002861D03*
X016247Y002871D03*
X017047Y003446D03*
X017047Y003451D03*
X016342Y003911D03*
X016337Y003921D03*
X016332Y003941D03*
X015542Y003926D03*
X015537Y003911D03*
X015532Y003901D03*
X014842Y003456D03*
X014837Y003451D03*
X014842Y003446D03*
X014837Y003461D03*
D36*
X014839Y003441D03*
X014844Y003436D03*
X014844Y003431D03*
X014844Y003426D03*
X014849Y003416D03*
X015529Y003891D03*
X015534Y003906D03*
X015539Y003916D03*
X016339Y003916D03*
X016344Y003906D03*
X016344Y003901D03*
X016349Y003891D03*
X016349Y003886D03*
X017044Y003441D03*
X017044Y003436D03*
X017039Y003431D03*
X017039Y003426D03*
X017039Y003421D03*
X017039Y003416D03*
X016264Y002906D03*
X016259Y002896D03*
X016254Y002886D03*
X016254Y002881D03*
X016249Y002876D03*
X016244Y002866D03*
X015639Y002856D03*
X015629Y002876D03*
X015624Y002886D03*
X015619Y002891D03*
X015619Y002896D03*
X015679Y002466D03*
X016204Y002466D03*
D37*
X015667Y002471D03*
X015657Y002476D03*
X015592Y002956D03*
X015587Y002961D03*
X016272Y002931D03*
X016282Y002946D03*
X016282Y002951D03*
X016287Y002956D03*
X016287Y002961D03*
X017022Y003361D03*
X017027Y003371D03*
X017027Y003376D03*
X017027Y003381D03*
X017032Y003386D03*
X016367Y003811D03*
X016367Y003816D03*
X016367Y003821D03*
X016367Y003826D03*
X015512Y003826D03*
X015512Y003821D03*
X015512Y003816D03*
X015512Y003811D03*
X015507Y003806D03*
X014852Y003401D03*
X014857Y003391D03*
X014857Y003386D03*
X014857Y003381D03*
X014862Y003376D03*
X014862Y003371D03*
D38*
X014854Y003396D03*
X015514Y003831D03*
X015514Y003836D03*
X015514Y003841D03*
X015519Y003846D03*
X015519Y003851D03*
X015519Y003861D03*
X015524Y003866D03*
X015524Y003871D03*
X016354Y003871D03*
X016354Y003866D03*
X016359Y003851D03*
X016359Y003846D03*
X016359Y003836D03*
X016364Y003831D03*
X017029Y003401D03*
X017034Y003396D03*
X017029Y003391D03*
X016279Y002941D03*
X016279Y002936D03*
X016274Y002926D03*
X016269Y002916D03*
X016264Y002911D03*
X015609Y002921D03*
X015604Y002926D03*
X015604Y002931D03*
X015599Y002936D03*
X015599Y002941D03*
X015594Y002946D03*
X016219Y002471D03*
D39*
X016229Y002476D03*
X016249Y002486D03*
X015644Y002481D03*
X015594Y002951D03*
X015589Y002966D03*
X015584Y002971D03*
X015584Y002976D03*
X015579Y002981D03*
X015579Y002986D03*
X016289Y002966D03*
X016294Y002971D03*
X016294Y002976D03*
X016299Y002981D03*
X016299Y002991D03*
X016304Y003001D03*
X017014Y003341D03*
X017019Y003351D03*
X017019Y003356D03*
X017024Y003366D03*
X016374Y003776D03*
X016374Y003781D03*
X016374Y003786D03*
X016369Y003796D03*
X016369Y003801D03*
X016369Y003806D03*
X015509Y003801D03*
X015504Y003791D03*
X015504Y003786D03*
X014864Y003366D03*
X014864Y003361D03*
D40*
X014867Y003356D03*
X014867Y003351D03*
X014872Y003346D03*
X014872Y003341D03*
X014877Y003336D03*
X014882Y003311D03*
X015562Y003031D03*
X015567Y003021D03*
X015567Y003011D03*
X015572Y003006D03*
X015572Y003001D03*
X015577Y002996D03*
X015577Y002991D03*
X016297Y002986D03*
X016302Y002996D03*
X016307Y003006D03*
X016307Y003011D03*
X016312Y003021D03*
X016317Y003036D03*
X017012Y003336D03*
X017017Y003346D03*
X016382Y003741D03*
X016382Y003756D03*
X016377Y003761D03*
X016377Y003766D03*
X016377Y003771D03*
X016372Y003791D03*
X015507Y003796D03*
X015502Y003781D03*
X015502Y003776D03*
X015502Y003771D03*
X015502Y003761D03*
X015497Y003751D03*
X015497Y003746D03*
X015497Y003741D03*
X015637Y002486D03*
X016242Y002481D03*
D41*
X016359Y002486D03*
X015989Y002526D03*
X015879Y002531D03*
X014799Y003886D03*
X014799Y003891D03*
X014799Y003896D03*
X014799Y003901D03*
X014799Y003906D03*
X015739Y004311D03*
X015744Y004316D03*
X016134Y004316D03*
X016139Y004311D03*
X017084Y003916D03*
X017084Y003911D03*
X017084Y003906D03*
X017084Y003901D03*
D42*
X016384Y003716D03*
X016389Y003681D03*
X016389Y003676D03*
X016389Y003671D03*
X016389Y003666D03*
X016389Y003661D03*
X016394Y003631D03*
X016394Y003626D03*
X016394Y003621D03*
X016394Y003616D03*
X016394Y003611D03*
X016999Y003301D03*
X016994Y003281D03*
X016989Y003271D03*
X016984Y003266D03*
X016364Y003196D03*
X016354Y003161D03*
X016349Y003141D03*
X016349Y003136D03*
X016344Y003126D03*
X016344Y003121D03*
X016344Y003116D03*
X016339Y003111D03*
X016339Y003106D03*
X016339Y003101D03*
X016339Y003096D03*
X016334Y003086D03*
X015544Y003086D03*
X015539Y003096D03*
X015539Y003101D03*
X015534Y003106D03*
X015534Y003111D03*
X015534Y003116D03*
X015534Y003121D03*
X015534Y003126D03*
X015529Y003131D03*
X015529Y003141D03*
X015524Y003156D03*
X014899Y003266D03*
X014899Y003271D03*
X014894Y003276D03*
X014894Y003281D03*
X014889Y003296D03*
X015484Y003616D03*
X015484Y003626D03*
X015484Y003636D03*
X015484Y003641D03*
X015484Y003646D03*
X015484Y003661D03*
X015489Y003666D03*
X015489Y003671D03*
X015489Y003681D03*
X015489Y003686D03*
X015489Y003696D03*
X015619Y002491D03*
X016269Y002491D03*
D43*
X016282Y002496D03*
X015607Y002496D03*
X015532Y003136D03*
X015527Y003146D03*
X015527Y003151D03*
X015522Y003161D03*
X015522Y003166D03*
X015517Y003171D03*
X015517Y003176D03*
X015517Y003181D03*
X015517Y003186D03*
X015512Y003196D03*
X015512Y003201D03*
X015512Y003211D03*
X015507Y003221D03*
X014907Y003251D03*
X014907Y003256D03*
X014902Y003261D03*
X014892Y003291D03*
X015482Y003576D03*
X015482Y003581D03*
X015482Y003586D03*
X015482Y003591D03*
X015482Y003596D03*
X015482Y003601D03*
X015482Y003606D03*
X015482Y003611D03*
X015482Y003621D03*
X015482Y003631D03*
X015487Y003651D03*
X015487Y003656D03*
X016392Y003656D03*
X016392Y003646D03*
X016392Y003636D03*
X016397Y003606D03*
X016397Y003601D03*
X016397Y003596D03*
X016397Y003591D03*
X016397Y003586D03*
X016397Y003581D03*
X016397Y003576D03*
X016397Y003571D03*
X016397Y003561D03*
X016372Y003231D03*
X016367Y003206D03*
X016362Y003186D03*
X016357Y003181D03*
X016362Y003176D03*
X016357Y003171D03*
X016357Y003166D03*
X016352Y003156D03*
X016352Y003151D03*
X016352Y003146D03*
X016347Y003131D03*
X016982Y003256D03*
X016987Y003261D03*
X016992Y003276D03*
D44*
X016979Y003251D03*
X016979Y003246D03*
X016974Y003241D03*
X016974Y003236D03*
X016969Y003226D03*
X016964Y003216D03*
X016384Y003286D03*
X016384Y003291D03*
X016384Y003296D03*
X016379Y003281D03*
X016379Y003271D03*
X016379Y003266D03*
X016379Y003261D03*
X016374Y003256D03*
X016374Y003246D03*
X016374Y003241D03*
X016374Y003236D03*
X016369Y003226D03*
X016369Y003221D03*
X016369Y003216D03*
X016364Y003211D03*
X016364Y003201D03*
X016364Y003191D03*
X016384Y003316D03*
X016384Y003326D03*
X016389Y003341D03*
X016389Y003346D03*
X016389Y003351D03*
X016389Y003356D03*
X016394Y003386D03*
X016399Y003476D03*
X016399Y003481D03*
X016399Y003486D03*
X016399Y003496D03*
X016399Y003501D03*
X016399Y003506D03*
X016399Y003511D03*
X016399Y003516D03*
X016399Y003521D03*
X016399Y003526D03*
X016399Y003531D03*
X016399Y003536D03*
X016399Y003541D03*
X016399Y003546D03*
X016399Y003551D03*
X016399Y003556D03*
X016399Y003566D03*
X015479Y003561D03*
X015479Y003556D03*
X015479Y003551D03*
X015479Y003546D03*
X015479Y003541D03*
X015479Y003536D03*
X015479Y003531D03*
X015479Y003526D03*
X015479Y003521D03*
X015479Y003516D03*
X015479Y003511D03*
X015479Y003506D03*
X015479Y003501D03*
X015479Y003496D03*
X015479Y003491D03*
X015479Y003486D03*
X015479Y003481D03*
X015479Y003476D03*
X015479Y003471D03*
X015479Y003451D03*
X015479Y003436D03*
X015479Y003421D03*
X015484Y003396D03*
X015484Y003391D03*
X015484Y003386D03*
X015484Y003381D03*
X015484Y003371D03*
X015489Y003356D03*
X015489Y003346D03*
X015489Y003336D03*
X015489Y003321D03*
X015489Y003316D03*
X015494Y003301D03*
X015494Y003296D03*
X015494Y003291D03*
X015494Y003286D03*
X015494Y003281D03*
X015499Y003276D03*
X015499Y003261D03*
X015499Y003256D03*
X015504Y003246D03*
X015504Y003241D03*
X015504Y003236D03*
X015504Y003231D03*
X015509Y003226D03*
X015509Y003216D03*
X015514Y003191D03*
X014914Y003226D03*
X014914Y003231D03*
X014914Y003236D03*
X014909Y003241D03*
X014909Y003246D03*
X015479Y003566D03*
X015479Y003571D03*
X015589Y002506D03*
X015599Y002501D03*
X016284Y002501D03*
X016294Y002506D03*
X016304Y002511D03*
D45*
X015582Y002511D03*
X015572Y002516D03*
X015512Y003206D03*
X015502Y003251D03*
X015497Y003266D03*
X015497Y003271D03*
X015492Y003306D03*
X015492Y003311D03*
X015492Y003326D03*
X015487Y003341D03*
X015487Y003351D03*
X015487Y003361D03*
X015487Y003366D03*
X015487Y003376D03*
X015482Y003401D03*
X015482Y003406D03*
X015482Y003411D03*
X015482Y003416D03*
X015482Y003426D03*
X015482Y003431D03*
X015482Y003441D03*
X015482Y003446D03*
X015482Y003456D03*
X015482Y003461D03*
X015482Y003466D03*
X014922Y003221D03*
X014922Y003216D03*
X016377Y003251D03*
X016382Y003276D03*
X016382Y003301D03*
X016382Y003306D03*
X016387Y003311D03*
X016387Y003321D03*
X016387Y003331D03*
X016387Y003336D03*
X016392Y003361D03*
X016392Y003366D03*
X016392Y003371D03*
X016392Y003376D03*
X016392Y003381D03*
X016392Y003391D03*
X016392Y003396D03*
X016397Y003401D03*
X016392Y003406D03*
X016397Y003416D03*
X016397Y003421D03*
X016397Y003426D03*
X016397Y003431D03*
X016397Y003436D03*
X016397Y003441D03*
X016397Y003446D03*
X016397Y003451D03*
X016397Y003456D03*
X016397Y003461D03*
X016397Y003466D03*
X016397Y003471D03*
X016397Y003491D03*
X016972Y003231D03*
X016967Y003221D03*
X016962Y003211D03*
X016962Y003206D03*
D46*
X016952Y003181D03*
X016947Y003176D03*
X016942Y003166D03*
X016332Y002526D03*
X016317Y002516D03*
X015557Y002521D03*
X014952Y003151D03*
X014947Y003161D03*
X014947Y003166D03*
X014942Y003171D03*
X014942Y003176D03*
X014937Y003181D03*
X014937Y003186D03*
X014932Y003191D03*
D47*
X014929Y003196D03*
X014929Y003201D03*
X014924Y003206D03*
X014924Y003211D03*
X015489Y003331D03*
X016394Y003411D03*
X016949Y003186D03*
X016954Y003191D03*
X016954Y003196D03*
X016959Y003201D03*
X016324Y002521D03*
D48*
X015554Y002526D03*
X015544Y002531D03*
X014964Y003131D03*
X014959Y003136D03*
X014954Y003141D03*
X014954Y003146D03*
X014949Y003156D03*
X016924Y003131D03*
X016929Y003141D03*
X016929Y003146D03*
X016934Y003151D03*
X016934Y003156D03*
X016939Y003161D03*
X016944Y003171D03*
D49*
X016012Y002546D03*
X016002Y002536D03*
X015887Y002526D03*
X015877Y002536D03*
X017087Y003881D03*
X017087Y003896D03*
X016142Y004306D03*
X015737Y004306D03*
X015732Y004301D03*
D50*
X014967Y003126D03*
X014972Y003116D03*
X014977Y003106D03*
X015537Y002536D03*
X016347Y002531D03*
X016357Y002541D03*
X016912Y003106D03*
X016912Y003111D03*
X016917Y003116D03*
X016917Y003121D03*
X016922Y003126D03*
X016927Y003136D03*
D51*
X016904Y003101D03*
X016904Y003096D03*
X016899Y003086D03*
X016894Y003076D03*
X016374Y002551D03*
X016369Y002546D03*
X016354Y002536D03*
X015524Y002541D03*
X015514Y002546D03*
X014994Y003076D03*
X014989Y003086D03*
X014984Y003091D03*
X014984Y003096D03*
X014979Y003101D03*
X014974Y003111D03*
X014969Y003121D03*
D52*
X015864Y002546D03*
X015869Y002541D03*
X016004Y002541D03*
X017089Y003871D03*
X017089Y003876D03*
X017089Y003886D03*
X017084Y003891D03*
X016149Y004296D03*
X016144Y004301D03*
X015729Y004296D03*
X014799Y003881D03*
X014799Y003876D03*
D53*
X014999Y003066D03*
X015009Y003051D03*
X015014Y003041D03*
X015019Y003036D03*
X015019Y003031D03*
X015024Y003026D03*
X015029Y003016D03*
X015454Y002586D03*
X015474Y002571D03*
X015509Y002551D03*
X016389Y002561D03*
X016404Y002566D03*
X016864Y003031D03*
X016869Y003036D03*
X016874Y003041D03*
X016874Y003046D03*
X016879Y003051D03*
D54*
X016019Y002556D03*
X016014Y002551D03*
X015859Y002556D03*
X017089Y003851D03*
X017089Y003856D03*
X017089Y003861D03*
X017089Y003866D03*
X016159Y004286D03*
X016154Y004291D03*
D55*
X016902Y003091D03*
X016897Y003081D03*
X016892Y003071D03*
X016887Y003066D03*
X016887Y003061D03*
X016882Y003056D03*
X016387Y002556D03*
X015502Y002556D03*
X015497Y002561D03*
X015012Y003046D03*
X015007Y003056D03*
X015002Y003061D03*
X014997Y003071D03*
X014992Y003081D03*
D56*
X015027Y003021D03*
X015032Y003011D03*
X015037Y003006D03*
X015042Y002996D03*
X015052Y002986D03*
X015467Y002576D03*
X015482Y002566D03*
X016412Y002571D03*
X016417Y002576D03*
X016427Y002581D03*
X016847Y003006D03*
X016852Y003011D03*
X016857Y003016D03*
X016857Y003021D03*
X016862Y003026D03*
D57*
X016034Y002566D03*
X015844Y002566D03*
X017089Y003831D03*
X017089Y003841D03*
X017089Y003846D03*
X016169Y004266D03*
X016169Y004271D03*
X016164Y004276D03*
X015709Y004271D03*
X015704Y004266D03*
D58*
X015702Y004261D03*
X014797Y003831D03*
X014797Y003826D03*
X014797Y003821D03*
X017092Y003826D03*
X017092Y003821D03*
X017092Y003816D03*
X017092Y003811D03*
X016042Y002576D03*
X016037Y002571D03*
X015842Y002571D03*
X015837Y002576D03*
D59*
X015459Y002581D03*
X015444Y002591D03*
X015439Y002596D03*
X015059Y002971D03*
X015059Y002976D03*
X015054Y002981D03*
X015049Y002991D03*
X015039Y003001D03*
X016434Y002586D03*
X016444Y002591D03*
X016449Y002596D03*
X016454Y002601D03*
X016464Y002606D03*
X016469Y002611D03*
X016479Y002616D03*
X016799Y002936D03*
X016829Y002976D03*
X016834Y002981D03*
X016834Y002986D03*
X016839Y002991D03*
X016844Y002996D03*
X016844Y003001D03*
D60*
X015829Y002581D03*
X014794Y003801D03*
X014799Y003811D03*
X014794Y003816D03*
X015694Y004251D03*
X015699Y004256D03*
X016174Y004261D03*
X016179Y004256D03*
X016184Y004251D03*
X017089Y003801D03*
D61*
X017092Y003806D03*
X017092Y003791D03*
X016192Y004236D03*
X016187Y004246D03*
X015692Y004246D03*
X014797Y003806D03*
X014797Y003796D03*
X014797Y003791D03*
X015822Y002591D03*
X015827Y002586D03*
X016047Y002581D03*
X016052Y002586D03*
D62*
X016062Y002596D03*
X016062Y002601D03*
X016072Y002611D03*
X015817Y002596D03*
X015812Y002601D03*
X014797Y003766D03*
X014797Y003771D03*
X014797Y003776D03*
X014797Y003786D03*
X015672Y004216D03*
X015677Y004221D03*
X016202Y004221D03*
X016207Y004216D03*
X017092Y003776D03*
X017092Y003771D03*
X017087Y003766D03*
D63*
X016827Y002971D03*
X016822Y002966D03*
X016817Y002961D03*
X016817Y002956D03*
X016812Y002951D03*
X016807Y002946D03*
X016807Y002941D03*
X016792Y002926D03*
X016787Y002916D03*
X016492Y002626D03*
X016482Y002621D03*
X015432Y002601D03*
X015427Y002606D03*
X015417Y002611D03*
X015397Y002626D03*
X015377Y002641D03*
X015372Y002646D03*
X015102Y002916D03*
X015082Y002941D03*
X015077Y002951D03*
X015072Y002956D03*
X015067Y002961D03*
X015067Y002966D03*
D64*
X015799Y002616D03*
X015804Y002611D03*
X015809Y002606D03*
X016069Y002606D03*
X017089Y003751D03*
X017089Y003761D03*
X015669Y004211D03*
X014794Y003761D03*
D65*
X015079Y002946D03*
X015084Y002936D03*
X015089Y002931D03*
X015094Y002926D03*
X015104Y002911D03*
X015109Y002906D03*
X015114Y002901D03*
X015119Y002896D03*
X015119Y002891D03*
X015124Y002886D03*
X015134Y002876D03*
X015139Y002871D03*
X015144Y002861D03*
X015154Y002851D03*
X015344Y002666D03*
X015349Y002661D03*
X015364Y002651D03*
X015384Y002636D03*
X015389Y002631D03*
X015409Y002616D03*
X016494Y002631D03*
X016504Y002636D03*
X016509Y002641D03*
X016534Y002661D03*
X016554Y002676D03*
X016739Y002861D03*
X016764Y002891D03*
X016769Y002896D03*
X016774Y002901D03*
X016779Y002906D03*
X016779Y002911D03*
X016789Y002921D03*
X016799Y002931D03*
D66*
X016087Y002626D03*
X016082Y002621D03*
X016077Y002616D03*
X015792Y002621D03*
X015792Y002626D03*
X014797Y003751D03*
X014797Y003756D03*
X015657Y004191D03*
X015662Y004196D03*
X015662Y004201D03*
X015667Y004206D03*
X016207Y004211D03*
X016212Y004206D03*
X016212Y004201D03*
X016217Y004196D03*
X017092Y003756D03*
X017087Y003746D03*
X017087Y003736D03*
D67*
X016762Y002886D03*
X016757Y002881D03*
X016752Y002876D03*
X016747Y002871D03*
X016747Y002866D03*
X016732Y002851D03*
X016727Y002846D03*
X016722Y002841D03*
X016722Y002836D03*
X016712Y002826D03*
X016692Y002806D03*
X016627Y002741D03*
X016597Y002711D03*
X016572Y002691D03*
X016557Y002681D03*
X016547Y002671D03*
X016542Y002666D03*
X016532Y002656D03*
X016522Y002651D03*
X016517Y002646D03*
X015402Y002621D03*
X015357Y002656D03*
X015337Y002671D03*
X015332Y002676D03*
X015327Y002681D03*
X015322Y002686D03*
X015312Y002691D03*
X015302Y002701D03*
X015277Y002726D03*
X015267Y002736D03*
X015252Y002746D03*
X015207Y002791D03*
X015207Y002796D03*
X015197Y002806D03*
X015182Y002816D03*
X015177Y002826D03*
X015172Y002831D03*
X015162Y002841D03*
X015157Y002846D03*
X015152Y002856D03*
X015142Y002866D03*
X015127Y002881D03*
X015097Y002921D03*
D68*
X016089Y002631D03*
X017089Y003721D03*
X017089Y003731D03*
X017089Y003741D03*
X016219Y004191D03*
X014799Y003736D03*
X014794Y003741D03*
X014794Y003746D03*
D69*
X014797Y003716D03*
X014802Y003696D03*
X014797Y003686D03*
X014802Y003681D03*
X015642Y004156D03*
X016237Y004161D03*
X016237Y004156D03*
X017087Y003701D03*
X017087Y003696D03*
X017087Y003691D03*
X017087Y003686D03*
X016117Y002666D03*
X016112Y002661D03*
X016107Y002656D03*
X015772Y002651D03*
X015762Y002666D03*
D70*
X015764Y002661D03*
X016119Y002671D03*
X017084Y003666D03*
X017084Y003676D03*
X017084Y003681D03*
X016244Y004146D03*
X016239Y004151D03*
X015634Y004146D03*
X015629Y004141D03*
X014799Y003691D03*
X014799Y003671D03*
D71*
X014802Y003666D03*
X014802Y003661D03*
X014802Y003676D03*
X015622Y004126D03*
X015627Y004136D03*
X015637Y004151D03*
X016247Y004141D03*
X016252Y004131D03*
X016257Y004126D03*
X017082Y003671D03*
X016132Y002686D03*
X016127Y002681D03*
X016127Y002676D03*
X015757Y002671D03*
X015752Y002676D03*
X015747Y002681D03*
D72*
X015309Y002696D03*
X015299Y002706D03*
X015289Y002711D03*
X015289Y002716D03*
X015279Y002721D03*
X015269Y002731D03*
X015259Y002741D03*
X015249Y002751D03*
X015244Y002756D03*
X015239Y002761D03*
X015234Y002766D03*
X015224Y002771D03*
X015224Y002776D03*
X015219Y002781D03*
X015214Y002786D03*
X015199Y002801D03*
X015189Y002811D03*
X015179Y002821D03*
X015169Y002836D03*
X016564Y002686D03*
X016574Y002696D03*
X016584Y002701D03*
X016589Y002706D03*
X016599Y002716D03*
X016604Y002721D03*
X016609Y002726D03*
X016639Y002751D03*
X016679Y002791D03*
X016684Y002796D03*
X016689Y002801D03*
X016694Y002811D03*
X016699Y002816D03*
X016704Y002821D03*
X016714Y002831D03*
X016734Y002856D03*
D73*
X016169Y002741D03*
X016164Y002731D03*
X016159Y002721D03*
X015719Y002726D03*
X015714Y002731D03*
X014814Y003576D03*
X014814Y003586D03*
X014809Y003591D03*
X014814Y003596D03*
X014809Y003601D03*
X015589Y004061D03*
X015594Y004066D03*
X015594Y004071D03*
X016279Y004076D03*
X016284Y004066D03*
X016289Y004061D03*
X017079Y003611D03*
X017079Y003601D03*
X017074Y003596D03*
X017074Y003586D03*
D74*
X016672Y002786D03*
X016667Y002781D03*
X016662Y002776D03*
X016657Y002771D03*
X016652Y002766D03*
X016647Y002761D03*
X016642Y002756D03*
X016632Y002746D03*
X016622Y002736D03*
X016617Y002731D03*
D75*
X016177Y002751D03*
X016167Y002736D03*
X015712Y002736D03*
X015707Y002741D03*
X014817Y003556D03*
X014817Y003566D03*
X014812Y003581D03*
X015582Y004041D03*
X015587Y004051D03*
X015587Y004056D03*
X016282Y004071D03*
X016287Y004056D03*
X016292Y004051D03*
X017077Y003591D03*
X017072Y003581D03*
X017072Y003576D03*
X017072Y003566D03*
D76*
X017074Y003571D03*
X017069Y003556D03*
X017069Y003551D03*
X016294Y004041D03*
X016294Y004046D03*
X015584Y004046D03*
X015579Y004031D03*
X014814Y003571D03*
X014819Y003546D03*
X015694Y002761D03*
X015699Y002751D03*
X015704Y002746D03*
X016174Y002746D03*
X016179Y002756D03*
X016184Y002761D03*
D77*
X016222Y002826D03*
X015657Y002821D03*
X015652Y002831D03*
X015642Y002851D03*
X014832Y003481D03*
X015547Y003946D03*
X015552Y003956D03*
X015552Y003961D03*
X015557Y003971D03*
X015557Y003976D03*
X015562Y003986D03*
X016322Y003976D03*
X016327Y003956D03*
X016327Y003951D03*
X016332Y003946D03*
X017057Y003491D03*
X017052Y003466D03*
D78*
X017037Y003411D03*
X017032Y003406D03*
X016362Y003841D03*
X016357Y003856D03*
X016357Y003861D03*
X016352Y003876D03*
X016352Y003881D03*
X016347Y003896D03*
X015532Y003896D03*
X015527Y003886D03*
X015527Y003881D03*
X015527Y003876D03*
X015522Y003856D03*
X014847Y003421D03*
X014847Y003411D03*
X014852Y003406D03*
X015607Y002916D03*
X015612Y002911D03*
X015612Y002906D03*
X015617Y002901D03*
X016257Y002891D03*
X016262Y002901D03*
X016272Y002921D03*
D79*
X016309Y003016D03*
X016314Y003026D03*
X016314Y003031D03*
X016319Y003041D03*
X016324Y003051D03*
X016324Y003056D03*
X016329Y003061D03*
X016329Y003071D03*
X016999Y003296D03*
X017004Y003311D03*
X017009Y003326D03*
X016384Y003706D03*
X016384Y003726D03*
X016379Y003746D03*
X016379Y003751D03*
X015499Y003756D03*
X015499Y003766D03*
X015494Y003736D03*
X015494Y003731D03*
X015494Y003726D03*
X015489Y003701D03*
X015489Y003691D03*
X014879Y003326D03*
X014874Y003331D03*
X014879Y003316D03*
X015544Y003076D03*
X015549Y003071D03*
X015549Y003066D03*
X015549Y003061D03*
X015554Y003056D03*
X015554Y003051D03*
X015559Y003041D03*
X015559Y003036D03*
X015564Y003026D03*
X015569Y003016D03*
D80*
X015557Y003046D03*
X015547Y003081D03*
X015542Y003091D03*
X014892Y003286D03*
X014887Y003301D03*
X014882Y003306D03*
X014877Y003321D03*
X015487Y003676D03*
X015492Y003706D03*
X015492Y003711D03*
X015492Y003716D03*
X015492Y003721D03*
X016382Y003721D03*
X016382Y003731D03*
X016382Y003736D03*
X016387Y003711D03*
X016387Y003701D03*
X016387Y003696D03*
X016387Y003691D03*
X016387Y003686D03*
X016392Y003651D03*
X016392Y003641D03*
X017012Y003331D03*
X017007Y003321D03*
X017007Y003316D03*
X017002Y003306D03*
X016997Y003291D03*
X016997Y003286D03*
X016337Y003091D03*
X016332Y003081D03*
X016332Y003076D03*
X016327Y003066D03*
X016322Y003046D03*
M02*
