G75*
G70*
%OFA0B0*%
%FSLAX24Y24*%
%IPPOS*%
%LPD*%
%AMOC8*
5,1,8,0,0,1.08239X$1,22.5*
%
%ADD10C,0.0100*%
%ADD11C,0.0000*%
%ADD12R,0.0315X0.0354*%
%ADD13C,0.0650*%
%ADD14C,0.0740*%
%ADD15C,0.0087*%
%ADD16R,0.0500X0.0600*%
%ADD17R,0.0600X0.0500*%
%ADD18C,0.0594*%
%ADD19C,0.0560*%
%ADD20R,0.0650X0.0650*%
%ADD21OC8,0.0560*%
%ADD22C,0.0516*%
%ADD23R,0.0800X0.0800*%
%ADD24C,0.0800*%
%ADD25C,0.0160*%
%ADD26C,0.0320*%
%ADD27C,0.0350*%
%ADD28C,0.0500*%
D10*
X001387Y001081D02*
X023987Y001081D01*
X024031Y001083D01*
X024074Y001089D01*
X024116Y001098D01*
X024158Y001111D01*
X024198Y001128D01*
X024237Y001148D01*
X024274Y001171D01*
X024308Y001198D01*
X024341Y001227D01*
X024370Y001260D01*
X024397Y001294D01*
X024420Y001331D01*
X024440Y001370D01*
X024457Y001410D01*
X024470Y001452D01*
X024479Y001494D01*
X024485Y001537D01*
X024487Y001581D01*
X024487Y016281D01*
X024485Y016325D01*
X024479Y016368D01*
X024470Y016410D01*
X024457Y016452D01*
X024440Y016492D01*
X024420Y016531D01*
X024397Y016568D01*
X024370Y016602D01*
X024341Y016635D01*
X024308Y016664D01*
X024274Y016691D01*
X024237Y016714D01*
X024198Y016734D01*
X024158Y016751D01*
X024116Y016764D01*
X024074Y016773D01*
X024031Y016779D01*
X023987Y016781D01*
X001387Y016781D01*
X001343Y016779D01*
X001300Y016773D01*
X001258Y016764D01*
X001216Y016751D01*
X001176Y016734D01*
X001137Y016714D01*
X001100Y016691D01*
X001066Y016664D01*
X001033Y016635D01*
X001004Y016602D01*
X000977Y016568D01*
X000954Y016531D01*
X000934Y016492D01*
X000917Y016452D01*
X000904Y016410D01*
X000895Y016368D01*
X000889Y016325D01*
X000887Y016281D01*
X000887Y001581D01*
X000889Y001537D01*
X000895Y001494D01*
X000904Y001452D01*
X000917Y001410D01*
X000934Y001370D01*
X000954Y001331D01*
X000977Y001294D01*
X001004Y001260D01*
X001033Y001227D01*
X001066Y001198D01*
X001100Y001171D01*
X001137Y001148D01*
X001176Y001128D01*
X001216Y001111D01*
X001258Y001098D01*
X001300Y001089D01*
X001343Y001083D01*
X001387Y001081D01*
X004412Y009381D02*
X004412Y009681D01*
X004862Y009681D01*
X004862Y009381D01*
X004412Y009381D01*
X004412Y009480D02*
X004862Y009480D01*
X004862Y009579D02*
X004412Y009579D01*
X004412Y009678D02*
X004862Y009678D01*
X004412Y010081D02*
X004412Y010381D01*
X004862Y010381D01*
X004862Y010081D01*
X004412Y010081D01*
X004412Y010180D02*
X004862Y010180D01*
X004862Y010279D02*
X004412Y010279D01*
X004412Y010378D02*
X004862Y010378D01*
D11*
X001241Y015994D02*
X001243Y016035D01*
X001249Y016076D01*
X001259Y016116D01*
X001272Y016155D01*
X001289Y016192D01*
X001310Y016228D01*
X001334Y016262D01*
X001361Y016293D01*
X001390Y016321D01*
X001423Y016347D01*
X001457Y016369D01*
X001494Y016388D01*
X001532Y016403D01*
X001572Y016415D01*
X001612Y016423D01*
X001653Y016427D01*
X001695Y016427D01*
X001736Y016423D01*
X001776Y016415D01*
X001816Y016403D01*
X001854Y016388D01*
X001890Y016369D01*
X001925Y016347D01*
X001958Y016321D01*
X001987Y016293D01*
X002014Y016262D01*
X002038Y016228D01*
X002059Y016192D01*
X002076Y016155D01*
X002089Y016116D01*
X002099Y016076D01*
X002105Y016035D01*
X002107Y015994D01*
X002105Y015953D01*
X002099Y015912D01*
X002089Y015872D01*
X002076Y015833D01*
X002059Y015796D01*
X002038Y015760D01*
X002014Y015726D01*
X001987Y015695D01*
X001958Y015667D01*
X001925Y015641D01*
X001891Y015619D01*
X001854Y015600D01*
X001816Y015585D01*
X001776Y015573D01*
X001736Y015565D01*
X001695Y015561D01*
X001653Y015561D01*
X001612Y015565D01*
X001572Y015573D01*
X001532Y015585D01*
X001494Y015600D01*
X001458Y015619D01*
X001423Y015641D01*
X001390Y015667D01*
X001361Y015695D01*
X001334Y015726D01*
X001310Y015760D01*
X001289Y015796D01*
X001272Y015833D01*
X001259Y015872D01*
X001249Y015912D01*
X001243Y015953D01*
X001241Y015994D01*
X023266Y015994D02*
X023268Y016035D01*
X023274Y016076D01*
X023284Y016116D01*
X023297Y016155D01*
X023314Y016192D01*
X023335Y016228D01*
X023359Y016262D01*
X023386Y016293D01*
X023415Y016321D01*
X023448Y016347D01*
X023482Y016369D01*
X023519Y016388D01*
X023557Y016403D01*
X023597Y016415D01*
X023637Y016423D01*
X023678Y016427D01*
X023720Y016427D01*
X023761Y016423D01*
X023801Y016415D01*
X023841Y016403D01*
X023879Y016388D01*
X023915Y016369D01*
X023950Y016347D01*
X023983Y016321D01*
X024012Y016293D01*
X024039Y016262D01*
X024063Y016228D01*
X024084Y016192D01*
X024101Y016155D01*
X024114Y016116D01*
X024124Y016076D01*
X024130Y016035D01*
X024132Y015994D01*
X024130Y015953D01*
X024124Y015912D01*
X024114Y015872D01*
X024101Y015833D01*
X024084Y015796D01*
X024063Y015760D01*
X024039Y015726D01*
X024012Y015695D01*
X023983Y015667D01*
X023950Y015641D01*
X023916Y015619D01*
X023879Y015600D01*
X023841Y015585D01*
X023801Y015573D01*
X023761Y015565D01*
X023720Y015561D01*
X023678Y015561D01*
X023637Y015565D01*
X023597Y015573D01*
X023557Y015585D01*
X023519Y015600D01*
X023483Y015619D01*
X023448Y015641D01*
X023415Y015667D01*
X023386Y015695D01*
X023359Y015726D01*
X023335Y015760D01*
X023314Y015796D01*
X023297Y015833D01*
X023284Y015872D01*
X023274Y015912D01*
X023268Y015953D01*
X023266Y015994D01*
X023266Y001868D02*
X023268Y001909D01*
X023274Y001950D01*
X023284Y001990D01*
X023297Y002029D01*
X023314Y002066D01*
X023335Y002102D01*
X023359Y002136D01*
X023386Y002167D01*
X023415Y002195D01*
X023448Y002221D01*
X023482Y002243D01*
X023519Y002262D01*
X023557Y002277D01*
X023597Y002289D01*
X023637Y002297D01*
X023678Y002301D01*
X023720Y002301D01*
X023761Y002297D01*
X023801Y002289D01*
X023841Y002277D01*
X023879Y002262D01*
X023915Y002243D01*
X023950Y002221D01*
X023983Y002195D01*
X024012Y002167D01*
X024039Y002136D01*
X024063Y002102D01*
X024084Y002066D01*
X024101Y002029D01*
X024114Y001990D01*
X024124Y001950D01*
X024130Y001909D01*
X024132Y001868D01*
X024130Y001827D01*
X024124Y001786D01*
X024114Y001746D01*
X024101Y001707D01*
X024084Y001670D01*
X024063Y001634D01*
X024039Y001600D01*
X024012Y001569D01*
X023983Y001541D01*
X023950Y001515D01*
X023916Y001493D01*
X023879Y001474D01*
X023841Y001459D01*
X023801Y001447D01*
X023761Y001439D01*
X023720Y001435D01*
X023678Y001435D01*
X023637Y001439D01*
X023597Y001447D01*
X023557Y001459D01*
X023519Y001474D01*
X023483Y001493D01*
X023448Y001515D01*
X023415Y001541D01*
X023386Y001569D01*
X023359Y001600D01*
X023335Y001634D01*
X023314Y001670D01*
X023297Y001707D01*
X023284Y001746D01*
X023274Y001786D01*
X023268Y001827D01*
X023266Y001868D01*
X001241Y001868D02*
X001243Y001909D01*
X001249Y001950D01*
X001259Y001990D01*
X001272Y002029D01*
X001289Y002066D01*
X001310Y002102D01*
X001334Y002136D01*
X001361Y002167D01*
X001390Y002195D01*
X001423Y002221D01*
X001457Y002243D01*
X001494Y002262D01*
X001532Y002277D01*
X001572Y002289D01*
X001612Y002297D01*
X001653Y002301D01*
X001695Y002301D01*
X001736Y002297D01*
X001776Y002289D01*
X001816Y002277D01*
X001854Y002262D01*
X001890Y002243D01*
X001925Y002221D01*
X001958Y002195D01*
X001987Y002167D01*
X002014Y002136D01*
X002038Y002102D01*
X002059Y002066D01*
X002076Y002029D01*
X002089Y001990D01*
X002099Y001950D01*
X002105Y001909D01*
X002107Y001868D01*
X002105Y001827D01*
X002099Y001786D01*
X002089Y001746D01*
X002076Y001707D01*
X002059Y001670D01*
X002038Y001634D01*
X002014Y001600D01*
X001987Y001569D01*
X001958Y001541D01*
X001925Y001515D01*
X001891Y001493D01*
X001854Y001474D01*
X001816Y001459D01*
X001776Y001447D01*
X001736Y001439D01*
X001695Y001435D01*
X001653Y001435D01*
X001612Y001439D01*
X001572Y001447D01*
X001532Y001459D01*
X001494Y001474D01*
X001458Y001493D01*
X001423Y001515D01*
X001390Y001541D01*
X001361Y001569D01*
X001334Y001600D01*
X001310Y001634D01*
X001289Y001670D01*
X001272Y001707D01*
X001259Y001746D01*
X001249Y001786D01*
X001243Y001827D01*
X001241Y001868D01*
D12*
X012163Y004175D03*
X012911Y004175D03*
X012537Y003348D03*
X007211Y007887D03*
X006463Y007887D03*
X004737Y007848D03*
X005111Y008675D03*
X004363Y008675D03*
X006837Y008714D03*
D13*
X001987Y010531D03*
X001987Y006131D03*
X017337Y010731D03*
X017237Y012181D03*
X020937Y012181D03*
X021037Y010731D03*
X021037Y014281D03*
X017337Y014281D03*
D14*
X016237Y009065D03*
X016237Y007097D03*
X010387Y005031D03*
X009387Y005031D03*
X008037Y005031D03*
X007037Y005031D03*
X005637Y005031D03*
X004637Y005031D03*
X005137Y004281D03*
X007537Y004281D03*
X009887Y004281D03*
D15*
X011205Y004599D02*
X011205Y004863D01*
X011469Y004863D01*
X011469Y004599D01*
X011205Y004599D01*
X011205Y004685D02*
X011469Y004685D01*
X011469Y004771D02*
X011205Y004771D01*
X011205Y004857D02*
X011469Y004857D01*
X012319Y004863D02*
X012319Y004599D01*
X012055Y004599D01*
X012055Y004863D01*
X012319Y004863D01*
X012319Y004685D02*
X012055Y004685D01*
X012055Y004771D02*
X012319Y004771D01*
X012319Y004857D02*
X012055Y004857D01*
X013069Y004863D02*
X013069Y004599D01*
X012805Y004599D01*
X012805Y004863D01*
X013069Y004863D01*
X013069Y004685D02*
X012805Y004685D01*
X012805Y004771D02*
X013069Y004771D01*
X013069Y004857D02*
X012805Y004857D01*
X013069Y005199D02*
X013069Y005463D01*
X013069Y005199D02*
X012805Y005199D01*
X012805Y005463D01*
X013069Y005463D01*
X013069Y005285D02*
X012805Y005285D01*
X012805Y005371D02*
X013069Y005371D01*
X013069Y005457D02*
X012805Y005457D01*
X012319Y005463D02*
X012319Y005199D01*
X012055Y005199D01*
X012055Y005463D01*
X012319Y005463D01*
X012319Y005285D02*
X012055Y005285D01*
X012055Y005371D02*
X012319Y005371D01*
X012319Y005457D02*
X012055Y005457D01*
X011205Y005463D02*
X011205Y005199D01*
X011205Y005463D02*
X011469Y005463D01*
X011469Y005199D01*
X011205Y005199D01*
X011205Y005285D02*
X011469Y005285D01*
X011469Y005371D02*
X011205Y005371D01*
X011205Y005457D02*
X011469Y005457D01*
X008169Y005999D02*
X007905Y005999D01*
X007905Y006263D01*
X008169Y006263D01*
X008169Y005999D01*
X008169Y006085D02*
X007905Y006085D01*
X007905Y006171D02*
X008169Y006171D01*
X008169Y006257D02*
X007905Y006257D01*
X007569Y005999D02*
X007305Y005999D01*
X007305Y006263D01*
X007569Y006263D01*
X007569Y005999D01*
X007569Y006085D02*
X007305Y006085D01*
X007305Y006171D02*
X007569Y006171D01*
X007569Y006257D02*
X007305Y006257D01*
X006719Y006263D02*
X006455Y006263D01*
X006719Y006263D02*
X006719Y005999D01*
X006455Y005999D01*
X006455Y006263D01*
X006455Y006085D02*
X006719Y006085D01*
X006719Y006171D02*
X006455Y006171D01*
X006455Y006257D02*
X006719Y006257D01*
X006119Y006263D02*
X005855Y006263D01*
X006119Y006263D02*
X006119Y005999D01*
X005855Y005999D01*
X005855Y006263D01*
X005855Y006085D02*
X006119Y006085D01*
X006119Y006171D02*
X005855Y006171D01*
X005855Y006257D02*
X006119Y006257D01*
X005319Y006263D02*
X005055Y006263D01*
X005319Y006263D02*
X005319Y005999D01*
X005055Y005999D01*
X005055Y006263D01*
X005055Y006085D02*
X005319Y006085D01*
X005319Y006171D02*
X005055Y006171D01*
X005055Y006257D02*
X005319Y006257D01*
X004719Y006263D02*
X004455Y006263D01*
X004719Y006263D02*
X004719Y005999D01*
X004455Y005999D01*
X004455Y006263D01*
X004455Y006085D02*
X004719Y006085D01*
X004719Y006171D02*
X004455Y006171D01*
X004455Y006257D02*
X004719Y006257D01*
X004719Y006863D02*
X004455Y006863D01*
X004719Y006863D02*
X004719Y006599D01*
X004455Y006599D01*
X004455Y006863D01*
X004455Y006685D02*
X004719Y006685D01*
X004719Y006771D02*
X004455Y006771D01*
X004455Y006857D02*
X004719Y006857D01*
X005055Y006863D02*
X005319Y006863D01*
X005319Y006599D01*
X005055Y006599D01*
X005055Y006863D01*
X005055Y006685D02*
X005319Y006685D01*
X005319Y006771D02*
X005055Y006771D01*
X005055Y006857D02*
X005319Y006857D01*
X005655Y007799D02*
X005655Y008063D01*
X005919Y008063D01*
X005919Y007799D01*
X005655Y007799D01*
X005655Y007885D02*
X005919Y007885D01*
X005919Y007971D02*
X005655Y007971D01*
X005655Y008057D02*
X005919Y008057D01*
X005655Y008399D02*
X005655Y008663D01*
X005919Y008663D01*
X005919Y008399D01*
X005655Y008399D01*
X005655Y008485D02*
X005919Y008485D01*
X005919Y008571D02*
X005655Y008571D01*
X005655Y008657D02*
X005919Y008657D01*
X006219Y009449D02*
X006219Y009713D01*
X006219Y009449D02*
X005955Y009449D01*
X005955Y009713D01*
X006219Y009713D01*
X006219Y009535D02*
X005955Y009535D01*
X005955Y009621D02*
X006219Y009621D01*
X006219Y009707D02*
X005955Y009707D01*
X005519Y009713D02*
X005519Y009449D01*
X005255Y009449D01*
X005255Y009713D01*
X005519Y009713D01*
X005519Y009535D02*
X005255Y009535D01*
X005255Y009621D02*
X005519Y009621D01*
X005519Y009707D02*
X005255Y009707D01*
X005519Y010049D02*
X005519Y010313D01*
X005519Y010049D02*
X005255Y010049D01*
X005255Y010313D01*
X005519Y010313D01*
X005519Y010135D02*
X005255Y010135D01*
X005255Y010221D02*
X005519Y010221D01*
X005519Y010307D02*
X005255Y010307D01*
X006219Y010313D02*
X006219Y010049D01*
X005955Y010049D01*
X005955Y010313D01*
X006219Y010313D01*
X006219Y010135D02*
X005955Y010135D01*
X005955Y010221D02*
X006219Y010221D01*
X006219Y010307D02*
X005955Y010307D01*
X006605Y010313D02*
X006605Y010049D01*
X006605Y010313D02*
X006869Y010313D01*
X006869Y010049D01*
X006605Y010049D01*
X006605Y010135D02*
X006869Y010135D01*
X006869Y010221D02*
X006605Y010221D01*
X006605Y010307D02*
X006869Y010307D01*
X006605Y009713D02*
X006605Y009449D01*
X006605Y009713D02*
X006869Y009713D01*
X006869Y009449D01*
X006605Y009449D01*
X006605Y009535D02*
X006869Y009535D01*
X006869Y009621D02*
X006605Y009621D01*
X006605Y009707D02*
X006869Y009707D01*
X004719Y011049D02*
X004719Y011313D01*
X004719Y011049D02*
X004455Y011049D01*
X004455Y011313D01*
X004719Y011313D01*
X004719Y011135D02*
X004455Y011135D01*
X004455Y011221D02*
X004719Y011221D01*
X004719Y011307D02*
X004455Y011307D01*
X004719Y011649D02*
X004719Y011913D01*
X004719Y011649D02*
X004455Y011649D01*
X004455Y011913D01*
X004719Y011913D01*
X004719Y011735D02*
X004455Y011735D01*
X004455Y011821D02*
X004719Y011821D01*
X004719Y011907D02*
X004455Y011907D01*
X005469Y013549D02*
X005469Y013813D01*
X005469Y013549D02*
X005205Y013549D01*
X005205Y013813D01*
X005469Y013813D01*
X005469Y013635D02*
X005205Y013635D01*
X005205Y013721D02*
X005469Y013721D01*
X005469Y013807D02*
X005205Y013807D01*
X005469Y014149D02*
X005469Y014413D01*
X005469Y014149D02*
X005205Y014149D01*
X005205Y014413D01*
X005469Y014413D01*
X005469Y014235D02*
X005205Y014235D01*
X005205Y014321D02*
X005469Y014321D01*
X005469Y014407D02*
X005205Y014407D01*
X011255Y004163D02*
X011255Y003899D01*
X011255Y004163D02*
X011519Y004163D01*
X011519Y003899D01*
X011255Y003899D01*
X011255Y003985D02*
X011519Y003985D01*
X011519Y004071D02*
X011255Y004071D01*
X011255Y004157D02*
X011519Y004157D01*
X011255Y003563D02*
X011255Y003299D01*
X011255Y003563D02*
X011519Y003563D01*
X011519Y003299D01*
X011255Y003299D01*
X011255Y003385D02*
X011519Y003385D01*
X011519Y003471D02*
X011255Y003471D01*
X011255Y003557D02*
X011519Y003557D01*
X005319Y003299D02*
X005055Y003299D01*
X005055Y003563D01*
X005319Y003563D01*
X005319Y003299D01*
X005319Y003385D02*
X005055Y003385D01*
X005055Y003471D02*
X005319Y003471D01*
X005319Y003557D02*
X005055Y003557D01*
X004719Y003299D02*
X004455Y003299D01*
X004455Y003563D01*
X004719Y003563D01*
X004719Y003299D01*
X004719Y003385D02*
X004455Y003385D01*
X004455Y003471D02*
X004719Y003471D01*
X004719Y003557D02*
X004455Y003557D01*
D16*
X005537Y011331D03*
X006637Y011331D03*
X017437Y013181D03*
X018537Y013181D03*
X019637Y013181D03*
X020737Y013181D03*
D17*
X022137Y012331D03*
X022137Y011231D03*
D18*
X020387Y009331D03*
X017387Y009331D03*
X017387Y007731D03*
X020387Y007731D03*
D19*
X009337Y007331D03*
X008337Y007331D03*
X003537Y013481D03*
X001537Y013481D03*
X001537Y014681D03*
X003537Y014681D03*
D20*
X001987Y011531D03*
X001987Y007131D03*
D21*
X002537Y013481D03*
X002537Y014681D03*
D22*
X011887Y012681D03*
X015887Y012681D03*
X015887Y010681D03*
X011887Y010681D03*
D23*
X022937Y007981D03*
D24*
X022937Y009381D03*
D25*
X016237Y007097D02*
X013871Y004731D01*
X012937Y004731D01*
X012937Y004201D01*
X012911Y004175D01*
X013248Y004211D02*
X024257Y004211D01*
X024257Y004053D02*
X013248Y004053D01*
X013248Y003923D02*
X013248Y004426D01*
X013229Y004445D01*
X013256Y004471D01*
X013819Y004471D01*
X013923Y004471D01*
X014018Y004511D01*
X014989Y005481D01*
X024257Y005481D01*
X024257Y002125D01*
X024219Y002216D01*
X024046Y002388D01*
X023821Y002481D01*
X023577Y002481D01*
X023352Y002388D01*
X023179Y002216D01*
X023086Y001990D01*
X023086Y001746D01*
X023179Y001521D01*
X023352Y001349D01*
X023443Y001311D01*
X001930Y001311D01*
X002021Y001349D01*
X002194Y001521D01*
X002287Y001746D01*
X002287Y001990D01*
X002194Y002216D01*
X002021Y002388D01*
X001796Y002481D01*
X001552Y002481D01*
X001327Y002388D01*
X001154Y002216D01*
X001117Y002125D01*
X001117Y011481D01*
X001482Y011481D01*
X001482Y011131D01*
X001587Y011026D01*
X001884Y011026D01*
X001868Y011024D01*
X001793Y010999D01*
X001722Y010963D01*
X001658Y010916D01*
X001601Y010860D01*
X001555Y010796D01*
X001519Y010725D01*
X001494Y010649D01*
X001482Y010571D01*
X001482Y010531D01*
X001482Y010491D01*
X001494Y010413D01*
X001519Y010337D01*
X001555Y010266D01*
X001601Y010202D01*
X001658Y010146D01*
X001722Y010099D01*
X001793Y010063D01*
X001868Y010038D01*
X001947Y010026D01*
X001986Y010026D01*
X001986Y010531D01*
X001482Y010531D01*
X001986Y010531D01*
X001986Y010531D01*
X001987Y010531D01*
X002492Y010531D01*
X002492Y010571D01*
X002479Y010649D01*
X002455Y010725D01*
X002419Y010796D01*
X002372Y010860D01*
X002316Y010916D01*
X002251Y010963D01*
X002180Y010999D01*
X002105Y011024D01*
X002089Y011026D01*
X002386Y011026D01*
X002492Y011131D01*
X002492Y011191D01*
X002596Y011191D01*
X003147Y010640D01*
X003147Y007899D01*
X003147Y007763D01*
X003198Y007638D01*
X004232Y006605D01*
X004232Y006507D01*
X004308Y006431D01*
X004268Y006391D01*
X002425Y006391D01*
X002415Y006417D01*
X002273Y006559D01*
X002111Y006626D01*
X002335Y006626D01*
X002381Y006638D01*
X002422Y006662D01*
X002456Y006695D01*
X002479Y006737D01*
X002492Y006782D01*
X002492Y007123D01*
X001994Y007123D01*
X001994Y007139D01*
X001979Y007139D01*
X001979Y007636D01*
X001638Y007636D01*
X001592Y007624D01*
X001551Y007600D01*
X001518Y007567D01*
X001494Y007525D01*
X001482Y007480D01*
X001482Y007139D01*
X001979Y007139D01*
X001979Y007123D01*
X001482Y007123D01*
X001482Y006782D01*
X001494Y006737D01*
X001518Y006695D01*
X001551Y006662D01*
X001592Y006638D01*
X001638Y006626D01*
X001862Y006626D01*
X001701Y006559D01*
X001559Y006417D01*
X001482Y006231D01*
X001482Y006031D01*
X001559Y005845D01*
X001701Y005703D01*
X001886Y005626D01*
X002087Y005626D01*
X002273Y005703D01*
X002415Y005845D01*
X002425Y005871D01*
X004268Y005871D01*
X004363Y005776D01*
X004377Y005776D01*
X004377Y005519D01*
X004325Y005497D01*
X004170Y005343D01*
X004087Y005140D01*
X004087Y004922D01*
X004127Y004825D01*
X004127Y004729D01*
X004127Y003579D01*
X004166Y003484D01*
X004232Y003418D01*
X004232Y003207D01*
X004363Y003076D01*
X004811Y003076D01*
X004887Y003152D01*
X004963Y003076D01*
X005411Y003076D01*
X005506Y003171D01*
X006635Y003171D01*
X006738Y003171D01*
X006834Y003211D01*
X007376Y003752D01*
X007427Y003731D01*
X007646Y003731D01*
X007848Y003815D01*
X008003Y003969D01*
X008087Y004172D01*
X008087Y004390D01*
X008049Y004481D01*
X008080Y004481D01*
X008165Y004495D01*
X008248Y004521D01*
X008325Y004561D01*
X008395Y004611D01*
X008456Y004673D01*
X008507Y004743D01*
X008546Y004820D01*
X008573Y004902D01*
X008587Y004988D01*
X008587Y005031D01*
X008587Y005074D01*
X008573Y005160D01*
X008546Y005242D01*
X008507Y005319D01*
X008456Y005389D01*
X008395Y005451D01*
X008325Y005501D01*
X008248Y005541D01*
X008165Y005567D01*
X008080Y005581D01*
X008037Y005581D01*
X008037Y005031D01*
X008587Y005031D01*
X008037Y005031D01*
X008037Y005031D01*
X008036Y005031D01*
X008036Y005581D01*
X007993Y005581D01*
X007908Y005567D01*
X007825Y005541D01*
X007748Y005501D01*
X007697Y005464D01*
X007697Y005483D01*
X007697Y005812D01*
X007737Y005852D01*
X007813Y005776D01*
X008261Y005776D01*
X008392Y005907D01*
X008392Y006118D01*
X009174Y006901D01*
X009245Y006871D01*
X009428Y006871D01*
X009597Y006941D01*
X009727Y007070D01*
X009797Y007239D01*
X009797Y007423D01*
X009727Y007592D01*
X009597Y007721D01*
X009428Y007791D01*
X009245Y007791D01*
X009076Y007721D01*
X008947Y007592D01*
X008877Y007423D01*
X008877Y007339D01*
X008797Y007259D01*
X008797Y007423D01*
X008727Y007592D01*
X008597Y007721D01*
X008428Y007791D01*
X008245Y007791D01*
X008076Y007721D01*
X007947Y007592D01*
X007946Y007591D01*
X007503Y007591D01*
X007512Y007600D01*
X007536Y007641D01*
X007548Y007686D01*
X007548Y007887D01*
X007211Y007887D01*
X007211Y007887D01*
X007548Y007887D01*
X007548Y008088D01*
X007536Y008134D01*
X007512Y008175D01*
X007479Y008209D01*
X007438Y008232D01*
X007392Y008244D01*
X007211Y008244D01*
X007211Y007888D01*
X007210Y007888D01*
X007210Y008244D01*
X007029Y008244D01*
X006984Y008232D01*
X006943Y008209D01*
X006909Y008175D01*
X006885Y008134D01*
X006873Y008088D01*
X006873Y007887D01*
X006873Y007686D01*
X006885Y007641D01*
X006909Y007600D01*
X006918Y007591D01*
X006755Y007591D01*
X006800Y007636D01*
X006800Y008139D01*
X006723Y008216D01*
X006723Y008257D01*
X006683Y008352D01*
X006678Y008357D01*
X007069Y008357D01*
X007174Y008462D01*
X007174Y008571D01*
X007675Y009071D01*
X007727Y009196D01*
X007727Y009332D01*
X007727Y010190D01*
X007777Y010241D01*
X009785Y010241D01*
X014399Y005627D01*
X013763Y004991D01*
X013256Y004991D01*
X013216Y005031D01*
X013292Y005107D01*
X013292Y005555D01*
X013161Y005686D01*
X012713Y005686D01*
X012618Y005591D01*
X012506Y005591D01*
X012411Y005686D01*
X012299Y005686D01*
X012057Y005928D01*
X011984Y006001D01*
X011888Y006041D01*
X010188Y006041D01*
X010085Y006041D01*
X009989Y006001D01*
X009548Y005560D01*
X009496Y005581D01*
X009277Y005581D01*
X009075Y005497D01*
X008920Y005343D01*
X008837Y005140D01*
X008837Y004922D01*
X008920Y004719D01*
X009075Y004565D01*
X009277Y004481D01*
X009374Y004481D01*
X009337Y004390D01*
X009337Y004172D01*
X009420Y003969D01*
X009575Y003815D01*
X009777Y003731D01*
X009996Y003731D01*
X010198Y003815D01*
X010353Y003969D01*
X010374Y004021D01*
X011029Y004021D01*
X011032Y004018D01*
X011032Y003807D01*
X011108Y003731D01*
X011032Y003655D01*
X011032Y003207D01*
X011163Y003076D01*
X011611Y003076D01*
X011706Y003171D01*
X012199Y003171D01*
X012199Y003096D01*
X012305Y002991D01*
X012769Y002991D01*
X012874Y003096D01*
X012874Y003600D01*
X012769Y003705D01*
X012305Y003705D01*
X012290Y003691D01*
X011706Y003691D01*
X011666Y003731D01*
X011742Y003807D01*
X011742Y004255D01*
X011611Y004386D01*
X011570Y004386D01*
X011656Y004471D01*
X011868Y004471D01*
X011869Y004470D01*
X011825Y004426D01*
X011825Y003923D01*
X011931Y003818D01*
X012395Y003818D01*
X012500Y003923D01*
X012500Y004426D01*
X012480Y004446D01*
X012542Y004507D01*
X012542Y004955D01*
X012466Y005031D01*
X012506Y005071D01*
X012618Y005071D01*
X012658Y005031D01*
X012582Y004955D01*
X012582Y004507D01*
X012618Y004471D01*
X012573Y004426D01*
X012573Y003923D01*
X012679Y003818D01*
X013143Y003818D01*
X013248Y003923D01*
X013219Y003894D02*
X024257Y003894D01*
X024257Y003736D02*
X011670Y003736D01*
X011742Y003894D02*
X011854Y003894D01*
X011825Y004053D02*
X011742Y004053D01*
X011742Y004211D02*
X011825Y004211D01*
X011825Y004370D02*
X011627Y004370D01*
X011387Y004031D02*
X011137Y004281D01*
X009887Y004281D01*
X009337Y004211D02*
X008087Y004211D01*
X008087Y004370D02*
X009337Y004370D01*
X009163Y004528D02*
X008261Y004528D01*
X008466Y004687D02*
X008953Y004687D01*
X008868Y004845D02*
X008555Y004845D01*
X008587Y005004D02*
X008837Y005004D01*
X008846Y005162D02*
X008572Y005162D01*
X008506Y005321D02*
X008911Y005321D01*
X009057Y005479D02*
X008355Y005479D01*
X008037Y005479D02*
X008036Y005479D01*
X008036Y005321D02*
X008037Y005321D01*
X008036Y005162D02*
X008037Y005162D01*
X007718Y005479D02*
X007697Y005479D01*
X007697Y005638D02*
X009626Y005638D01*
X009785Y005797D02*
X008281Y005797D01*
X008392Y005955D02*
X009943Y005955D01*
X010137Y005781D02*
X009387Y005031D01*
X010387Y005031D02*
X010937Y005031D01*
X010937Y005074D01*
X010923Y005160D01*
X010896Y005242D01*
X010857Y005319D01*
X010806Y005389D01*
X010745Y005451D01*
X010675Y005501D01*
X010636Y005521D01*
X010989Y005521D01*
X010982Y005492D01*
X010982Y005339D01*
X011329Y005339D01*
X011329Y005323D01*
X010982Y005323D01*
X010982Y005170D01*
X010997Y005113D01*
X011026Y005062D01*
X011058Y005031D01*
X010982Y004955D01*
X010982Y004541D01*
X010636Y004541D01*
X010675Y004561D01*
X010745Y004611D01*
X010806Y004673D01*
X010857Y004743D01*
X010896Y004820D01*
X010923Y004902D01*
X010937Y004988D01*
X010937Y005031D01*
X010387Y005031D01*
X010387Y005031D01*
X010905Y004845D02*
X010982Y004845D01*
X010982Y004687D02*
X010816Y004687D01*
X011337Y004731D02*
X012187Y004731D01*
X012163Y004707D01*
X012163Y004175D01*
X012500Y004211D02*
X012573Y004211D01*
X012573Y004053D02*
X012500Y004053D01*
X012471Y003894D02*
X012602Y003894D01*
X012874Y003577D02*
X024257Y003577D01*
X024257Y003418D02*
X012874Y003418D01*
X012874Y003260D02*
X024257Y003260D01*
X024257Y003101D02*
X012874Y003101D01*
X012537Y003348D02*
X012454Y003431D01*
X011387Y003431D01*
X011032Y003418D02*
X007042Y003418D01*
X006883Y003260D02*
X011032Y003260D01*
X011137Y003101D02*
X005436Y003101D01*
X004937Y003101D02*
X004836Y003101D01*
X004337Y003101D02*
X001117Y003101D01*
X001117Y002943D02*
X024257Y002943D01*
X024257Y002784D02*
X001117Y002784D01*
X001117Y002626D02*
X024257Y002626D01*
X024257Y002467D02*
X023856Y002467D01*
X024126Y002309D02*
X024257Y002309D01*
X024246Y002150D02*
X024257Y002150D01*
X023543Y002467D02*
X001830Y002467D01*
X001518Y002467D02*
X001117Y002467D01*
X001117Y002309D02*
X001247Y002309D01*
X001127Y002150D02*
X001117Y002150D01*
X002101Y002309D02*
X023272Y002309D01*
X023152Y002150D02*
X002221Y002150D01*
X002287Y001992D02*
X023087Y001992D01*
X023086Y001833D02*
X002287Y001833D01*
X002257Y001674D02*
X023116Y001674D01*
X023185Y001516D02*
X002188Y001516D01*
X002030Y001357D02*
X023343Y001357D01*
X024257Y004370D02*
X013248Y004370D01*
X012573Y004370D02*
X012500Y004370D01*
X012542Y004528D02*
X012582Y004528D01*
X012582Y004687D02*
X012542Y004687D01*
X012542Y004845D02*
X012582Y004845D01*
X012631Y005004D02*
X012493Y005004D01*
X011908Y005031D02*
X011868Y004991D01*
X011656Y004991D01*
X011616Y005031D01*
X011647Y005062D01*
X011676Y005113D01*
X011692Y005170D01*
X011692Y005323D01*
X011344Y005323D01*
X011344Y005339D01*
X011692Y005339D01*
X011692Y005492D01*
X011684Y005521D01*
X011729Y005521D01*
X011832Y005418D01*
X011832Y005107D01*
X011908Y005031D01*
X011881Y005004D02*
X011643Y005004D01*
X011689Y005162D02*
X011832Y005162D01*
X011832Y005321D02*
X011692Y005321D01*
X011692Y005479D02*
X011770Y005479D01*
X011837Y005781D02*
X012187Y005431D01*
X012187Y005331D01*
X012937Y005331D01*
X013292Y005321D02*
X014093Y005321D01*
X013935Y005162D02*
X013292Y005162D01*
X013243Y005004D02*
X013776Y005004D01*
X014353Y004845D02*
X024257Y004845D01*
X024257Y004687D02*
X014194Y004687D01*
X014036Y004528D02*
X024257Y004528D01*
X024257Y005004D02*
X014511Y005004D01*
X014670Y005162D02*
X024257Y005162D01*
X024257Y005321D02*
X014828Y005321D01*
X014987Y005479D02*
X024257Y005479D01*
X014388Y005638D02*
X013209Y005638D01*
X013292Y005479D02*
X014252Y005479D01*
X014229Y005797D02*
X012189Y005797D01*
X012030Y005955D02*
X014071Y005955D01*
X013912Y006114D02*
X008392Y006114D01*
X008545Y006272D02*
X013754Y006272D01*
X013595Y006431D02*
X008704Y006431D01*
X008863Y006589D02*
X013437Y006589D01*
X013278Y006748D02*
X009021Y006748D01*
X009513Y006906D02*
X013119Y006906D01*
X012961Y007065D02*
X009721Y007065D01*
X009790Y007223D02*
X012802Y007223D01*
X012644Y007382D02*
X009797Y007382D01*
X009748Y007541D02*
X012485Y007541D01*
X012327Y007699D02*
X009619Y007699D01*
X009054Y007699D02*
X008619Y007699D01*
X008748Y007541D02*
X008926Y007541D01*
X008877Y007382D02*
X008797Y007382D01*
X009237Y007331D02*
X008037Y006131D01*
X008137Y006231D01*
X007813Y006486D02*
X007737Y006410D01*
X007661Y006486D01*
X007213Y006486D01*
X007082Y006355D01*
X007082Y005907D01*
X007177Y005812D01*
X007177Y005568D01*
X007146Y005581D01*
X006927Y005581D01*
X006725Y005497D01*
X006597Y005369D01*
X006597Y005773D01*
X006599Y005776D01*
X006811Y005776D01*
X006942Y005907D01*
X006942Y006355D01*
X006811Y006486D01*
X006363Y006486D01*
X006287Y006410D01*
X006211Y006486D01*
X005999Y006486D01*
X005967Y006519D01*
X005967Y006577D01*
X005913Y006707D01*
X005813Y006807D01*
X005682Y006861D01*
X005624Y006861D01*
X005542Y006944D01*
X005542Y006955D01*
X005425Y007071D01*
X007946Y007071D01*
X007947Y007070D01*
X008076Y006941D01*
X008245Y006871D01*
X008409Y006871D01*
X008024Y006486D01*
X007813Y006486D01*
X007757Y006431D02*
X007716Y006431D01*
X007437Y006131D02*
X007437Y005431D01*
X007037Y005031D01*
X006077Y005361D02*
X006056Y005389D01*
X005995Y005451D01*
X005925Y005501D01*
X005848Y005541D01*
X005765Y005567D01*
X005680Y005581D01*
X005637Y005581D01*
X005637Y005031D01*
X005636Y005031D01*
X005636Y005581D01*
X005593Y005581D01*
X005508Y005567D01*
X005425Y005541D01*
X005348Y005501D01*
X005278Y005451D01*
X005217Y005389D01*
X005166Y005319D01*
X005137Y005261D01*
X005103Y005343D01*
X004948Y005497D01*
X004897Y005519D01*
X004897Y005842D01*
X004963Y005776D01*
X005411Y005776D01*
X005542Y005907D01*
X005542Y006151D01*
X005599Y006151D01*
X005632Y006118D01*
X005632Y005907D01*
X005763Y005776D01*
X006077Y005776D01*
X006077Y005361D01*
X006077Y005479D02*
X005955Y005479D01*
X006077Y005638D02*
X004897Y005638D01*
X004897Y005797D02*
X004942Y005797D01*
X004637Y006081D02*
X004587Y006131D01*
X001987Y006131D01*
X001482Y006114D02*
X001117Y006114D01*
X001117Y006272D02*
X001499Y006272D01*
X001572Y006431D02*
X001117Y006431D01*
X001117Y006589D02*
X001774Y006589D01*
X001491Y006748D02*
X001117Y006748D01*
X001117Y006906D02*
X001482Y006906D01*
X001482Y007065D02*
X001117Y007065D01*
X001117Y007223D02*
X001482Y007223D01*
X001482Y007382D02*
X001117Y007382D01*
X001117Y007541D02*
X001503Y007541D01*
X001117Y007699D02*
X003173Y007699D01*
X003147Y007858D02*
X001117Y007858D01*
X001117Y008016D02*
X003147Y008016D01*
X003147Y008175D02*
X001117Y008175D01*
X001117Y008333D02*
X003147Y008333D01*
X003147Y008492D02*
X001117Y008492D01*
X001117Y008650D02*
X003147Y008650D01*
X003147Y008809D02*
X001117Y008809D01*
X001117Y008967D02*
X003147Y008967D01*
X003147Y009126D02*
X001117Y009126D01*
X001117Y009285D02*
X003147Y009285D01*
X003147Y009443D02*
X001117Y009443D01*
X001117Y009602D02*
X003147Y009602D01*
X003147Y009760D02*
X001117Y009760D01*
X001117Y009919D02*
X003147Y009919D01*
X003147Y010077D02*
X002208Y010077D01*
X002180Y010063D02*
X002251Y010099D01*
X002316Y010146D01*
X002372Y010202D01*
X002419Y010266D01*
X002455Y010337D01*
X002479Y010413D01*
X002492Y010491D01*
X002492Y010531D01*
X001987Y010531D01*
X001987Y010531D01*
X001987Y010026D01*
X002026Y010026D01*
X002105Y010038D01*
X002180Y010063D01*
X001987Y010077D02*
X001986Y010077D01*
X001986Y010236D02*
X001987Y010236D01*
X001986Y010394D02*
X001987Y010394D01*
X002396Y010236D02*
X003147Y010236D01*
X003147Y010394D02*
X002473Y010394D01*
X002492Y010553D02*
X003147Y010553D01*
X003075Y010711D02*
X002459Y010711D01*
X002362Y010870D02*
X002917Y010870D01*
X002758Y011029D02*
X002389Y011029D01*
X002492Y011187D02*
X002600Y011187D01*
X003267Y011481D02*
X004308Y011481D01*
X004232Y011405D01*
X004232Y010957D01*
X004363Y010826D01*
X004811Y010826D01*
X004906Y010921D01*
X005127Y010921D01*
X005127Y010500D01*
X005080Y010454D01*
X005065Y010490D01*
X005040Y010528D01*
X005008Y010560D01*
X004971Y010585D01*
X004929Y010602D01*
X004884Y010611D01*
X004657Y010611D01*
X004657Y010251D01*
X004617Y010251D01*
X004617Y010611D01*
X004389Y010611D01*
X004344Y010602D01*
X004303Y010585D01*
X004265Y010560D01*
X004233Y010528D01*
X004208Y010490D01*
X004190Y010448D01*
X004182Y010404D01*
X004182Y010251D01*
X004616Y010251D01*
X004616Y010211D01*
X004182Y010211D01*
X004182Y010058D01*
X004190Y010014D01*
X004208Y009972D01*
X004233Y009934D01*
X004265Y009902D01*
X004291Y009885D01*
X004182Y009776D01*
X004182Y009444D01*
X004142Y009404D01*
X004103Y009309D01*
X004103Y009004D01*
X004025Y008926D01*
X004025Y008423D01*
X004131Y008318D01*
X004595Y008318D01*
X004700Y008423D01*
X004700Y008926D01*
X004623Y009004D01*
X004623Y009149D01*
X004624Y009151D01*
X004957Y009151D01*
X005092Y009286D01*
X005092Y009297D01*
X005163Y009226D01*
X005164Y009226D01*
X004970Y009032D01*
X004879Y009032D01*
X004773Y008926D01*
X004773Y008423D01*
X004879Y008318D01*
X005343Y008318D01*
X005432Y008407D01*
X005432Y008307D01*
X005508Y008231D01*
X005432Y008155D01*
X005432Y008108D01*
X005066Y008108D01*
X004969Y008205D01*
X004505Y008205D01*
X004399Y008100D01*
X004399Y007596D01*
X004505Y007491D01*
X004969Y007491D01*
X005066Y007588D01*
X005128Y007588D01*
X005039Y007551D01*
X004643Y007155D01*
X003827Y007972D01*
X003827Y010849D01*
X003775Y010974D01*
X003679Y011069D01*
X003267Y011481D01*
X003403Y011346D02*
X004232Y011346D01*
X004308Y011481D02*
X004308Y011481D01*
X004232Y011187D02*
X003561Y011187D01*
X003720Y011029D02*
X004232Y011029D01*
X004319Y010870D02*
X003818Y010870D01*
X003827Y010711D02*
X005127Y010711D01*
X005127Y010553D02*
X005015Y010553D01*
X004657Y010553D02*
X004617Y010553D01*
X004617Y010394D02*
X004657Y010394D01*
X004616Y010236D02*
X003827Y010236D01*
X003827Y010394D02*
X004182Y010394D01*
X004258Y010553D02*
X003827Y010553D01*
X004854Y010870D02*
X005127Y010870D01*
X005387Y011181D02*
X004587Y011181D01*
X005387Y011181D02*
X005537Y011331D01*
X005387Y011181D02*
X005387Y010181D01*
X006087Y010181D01*
X005768Y010441D02*
X005706Y010441D01*
X005647Y010500D01*
X005647Y010851D01*
X005861Y010851D01*
X005967Y010956D01*
X005967Y011481D01*
X006207Y011481D01*
X006207Y010956D01*
X006312Y010851D01*
X006636Y010851D01*
X006982Y010504D01*
X006954Y010521D01*
X006897Y010536D01*
X006744Y010536D01*
X006744Y010189D01*
X006729Y010189D01*
X006729Y010536D01*
X006576Y010536D01*
X006519Y010521D01*
X006468Y010491D01*
X006426Y010450D01*
X006416Y010431D01*
X006311Y010536D01*
X005863Y010536D01*
X005768Y010441D01*
X005647Y010553D02*
X006934Y010553D01*
X006775Y010711D02*
X005647Y010711D01*
X005880Y010870D02*
X006293Y010870D01*
X006207Y011029D02*
X005967Y011029D01*
X005967Y011187D02*
X006207Y011187D01*
X006207Y011346D02*
X005967Y011346D01*
X006729Y010394D02*
X006744Y010394D01*
X006729Y010236D02*
X006744Y010236D01*
X007727Y010077D02*
X009949Y010077D01*
X010107Y009919D02*
X007727Y009919D01*
X007727Y009760D02*
X010266Y009760D01*
X010424Y009602D02*
X007727Y009602D01*
X007727Y009443D02*
X010583Y009443D01*
X010741Y009285D02*
X007727Y009285D01*
X007697Y009126D02*
X010900Y009126D01*
X011058Y008967D02*
X007571Y008967D01*
X007412Y008809D02*
X011217Y008809D01*
X011375Y008650D02*
X007254Y008650D01*
X007174Y008492D02*
X011534Y008492D01*
X011693Y008333D02*
X006691Y008333D01*
X006764Y008175D02*
X006909Y008175D01*
X006873Y008016D02*
X006800Y008016D01*
X006873Y007887D02*
X007210Y007887D01*
X006873Y007887D01*
X006873Y007858D02*
X006800Y007858D01*
X006800Y007699D02*
X006873Y007699D01*
X007210Y007887D02*
X007210Y007887D01*
X007210Y008016D02*
X007211Y008016D01*
X007210Y008175D02*
X007211Y008175D01*
X007512Y008175D02*
X011851Y008175D01*
X012010Y008016D02*
X007548Y008016D01*
X007548Y007858D02*
X012168Y007858D01*
X009337Y007331D02*
X009237Y007331D01*
X008337Y007331D02*
X005187Y007331D01*
X004587Y006731D01*
X005187Y006131D01*
X005542Y006114D02*
X005632Y006114D01*
X005632Y005955D02*
X005542Y005955D01*
X005431Y005797D02*
X005742Y005797D01*
X006337Y005881D02*
X006587Y006131D01*
X006942Y006114D02*
X007082Y006114D01*
X007082Y006272D02*
X006942Y006272D01*
X006866Y006431D02*
X007157Y006431D01*
X007082Y005955D02*
X006942Y005955D01*
X006831Y005797D02*
X007177Y005797D01*
X007177Y005638D02*
X006597Y005638D01*
X006597Y005479D02*
X006707Y005479D01*
X006337Y005881D02*
X006337Y004564D01*
X006054Y004281D01*
X005137Y004281D01*
X004127Y004211D02*
X001117Y004211D01*
X001117Y004053D02*
X004127Y004053D01*
X004127Y003894D02*
X001117Y003894D01*
X001117Y003736D02*
X004127Y003736D01*
X004128Y003577D02*
X001117Y003577D01*
X001117Y003418D02*
X004231Y003418D01*
X004232Y003260D02*
X001117Y003260D01*
X001117Y004370D02*
X004127Y004370D01*
X004127Y004528D02*
X001117Y004528D01*
X001117Y004687D02*
X004127Y004687D01*
X004118Y004845D02*
X001117Y004845D01*
X001117Y005004D02*
X004087Y005004D01*
X004096Y005162D02*
X001117Y005162D01*
X001117Y005321D02*
X004161Y005321D01*
X004307Y005479D02*
X001117Y005479D01*
X001117Y005638D02*
X001857Y005638D01*
X002116Y005638D02*
X004377Y005638D01*
X004342Y005797D02*
X002366Y005797D01*
X001607Y005797D02*
X001117Y005797D01*
X001117Y005955D02*
X001513Y005955D01*
X002401Y006431D02*
X004307Y006431D01*
X004232Y006589D02*
X002200Y006589D01*
X002482Y006748D02*
X004089Y006748D01*
X003930Y006906D02*
X002492Y006906D01*
X002492Y007065D02*
X003772Y007065D01*
X003613Y007223D02*
X002492Y007223D01*
X002492Y007139D02*
X002492Y007480D01*
X002479Y007525D01*
X002456Y007567D01*
X002422Y007600D01*
X002381Y007624D01*
X002335Y007636D01*
X001994Y007636D01*
X001994Y007139D01*
X002492Y007139D01*
X002492Y007382D02*
X003455Y007382D01*
X003296Y007541D02*
X002471Y007541D01*
X001994Y007541D02*
X001979Y007541D01*
X001979Y007382D02*
X001994Y007382D01*
X001979Y007223D02*
X001994Y007223D01*
X003941Y007858D02*
X004399Y007858D01*
X004399Y008016D02*
X003827Y008016D01*
X003827Y008175D02*
X004474Y008175D01*
X004610Y008333D02*
X004863Y008333D01*
X004773Y008492D02*
X004700Y008492D01*
X004700Y008650D02*
X004773Y008650D01*
X004773Y008809D02*
X004700Y008809D01*
X004659Y008967D02*
X004814Y008967D01*
X004623Y009126D02*
X005064Y009126D01*
X005090Y009285D02*
X005104Y009285D01*
X005437Y009131D02*
X005637Y009131D01*
X006087Y009581D01*
X006737Y009581D01*
X005387Y009581D02*
X004687Y009581D01*
X004637Y009531D01*
X004363Y009257D01*
X004363Y008675D01*
X004025Y008650D02*
X003827Y008650D01*
X003827Y008492D02*
X004025Y008492D01*
X004115Y008333D02*
X003827Y008333D01*
X003827Y008809D02*
X004025Y008809D01*
X004066Y008967D02*
X003827Y008967D01*
X003827Y009126D02*
X004103Y009126D01*
X004103Y009285D02*
X003827Y009285D01*
X003827Y009443D02*
X004181Y009443D01*
X004182Y009602D02*
X003827Y009602D01*
X003827Y009760D02*
X004182Y009760D01*
X004249Y009919D02*
X003827Y009919D01*
X003827Y010077D02*
X004182Y010077D01*
X001765Y010077D02*
X001117Y010077D01*
X001117Y010236D02*
X001577Y010236D01*
X001500Y010394D02*
X001117Y010394D01*
X001117Y010553D02*
X001482Y010553D01*
X001514Y010711D02*
X001117Y010711D01*
X001117Y010870D02*
X001611Y010870D01*
X001585Y011029D02*
X001117Y011029D01*
X001117Y011187D02*
X001482Y011187D01*
X001482Y011346D02*
X001117Y011346D01*
X005111Y008805D02*
X005437Y009131D01*
X005111Y008805D02*
X005111Y008675D01*
X005358Y008333D02*
X005432Y008333D01*
X005451Y008175D02*
X004999Y008175D01*
X004737Y007848D02*
X005704Y007848D01*
X005787Y007931D01*
X006463Y007887D02*
X006463Y008205D01*
X006137Y008531D01*
X005787Y008531D01*
X004399Y007699D02*
X004099Y007699D01*
X004258Y007541D02*
X004455Y007541D01*
X004416Y007382D02*
X004870Y007382D01*
X005018Y007541D02*
X005029Y007541D01*
X004711Y007223D02*
X004575Y007223D01*
X005432Y007065D02*
X007952Y007065D01*
X008160Y006906D02*
X005579Y006906D01*
X005387Y006731D02*
X005187Y006731D01*
X005387Y006731D02*
X005612Y006506D01*
X005987Y006131D01*
X006266Y006431D02*
X006307Y006431D01*
X005961Y006589D02*
X008127Y006589D01*
X008286Y006748D02*
X005872Y006748D01*
X004637Y006081D02*
X004637Y005031D01*
X004387Y004781D01*
X004387Y003631D01*
X004587Y003431D01*
X005187Y003431D02*
X006687Y003431D01*
X007537Y004281D01*
X008037Y004053D02*
X009386Y004053D01*
X009496Y003894D02*
X007927Y003894D01*
X007657Y003736D02*
X009766Y003736D01*
X010007Y003736D02*
X011103Y003736D01*
X011032Y003894D02*
X010277Y003894D01*
X011032Y003577D02*
X007200Y003577D01*
X007359Y003736D02*
X007416Y003736D01*
X005637Y005162D02*
X005636Y005162D01*
X005636Y005321D02*
X005637Y005321D01*
X005636Y005479D02*
X005637Y005479D01*
X005318Y005479D02*
X004966Y005479D01*
X005112Y005321D02*
X005167Y005321D01*
X007697Y005797D02*
X007792Y005797D01*
X010137Y005781D02*
X011837Y005781D01*
X012459Y005638D02*
X012665Y005638D01*
X010982Y005479D02*
X010705Y005479D01*
X010856Y005321D02*
X010982Y005321D01*
X010984Y005162D02*
X010922Y005162D01*
X010937Y005004D02*
X011031Y005004D01*
X011636Y003101D02*
X012199Y003101D01*
X008054Y007699D02*
X007548Y007699D01*
X007772Y010236D02*
X009790Y010236D01*
D26*
X011787Y010581D02*
X007637Y010581D01*
X007387Y010331D01*
X007387Y009264D01*
X006837Y008714D01*
X004587Y006731D02*
X003487Y007831D01*
X003487Y010781D01*
X002737Y011531D01*
X001987Y011531D01*
X004287Y012681D02*
X004587Y012381D01*
X004887Y012681D01*
X011887Y012681D01*
X015887Y012681D02*
X016987Y012681D01*
X016987Y012731D01*
X017237Y012981D01*
X017437Y013181D01*
X017237Y012981D02*
X017237Y012681D01*
X017037Y012681D01*
X017237Y012481D01*
X017237Y012181D01*
X017237Y012481D02*
X017237Y012681D01*
X017037Y012681D02*
X016987Y012681D01*
X018537Y013181D02*
X019637Y013181D01*
X019637Y013281D01*
X020637Y014281D01*
X021037Y014281D01*
X021248Y016139D02*
X023441Y013946D01*
X023441Y011484D01*
X023187Y011231D01*
X022137Y011231D01*
X021537Y011231D01*
X021037Y010731D01*
X020387Y010081D01*
X020387Y009331D01*
X017387Y009331D02*
X016502Y009331D01*
X016237Y009065D01*
X017387Y009331D02*
X017387Y007731D01*
X020387Y007731D02*
X022687Y007731D01*
X022937Y007981D01*
X015887Y010681D02*
X011887Y010681D01*
X011787Y010581D01*
X007637Y010581D02*
X007387Y010581D01*
X007387Y010331D01*
X006737Y010181D02*
X006737Y010631D01*
X007387Y010581D02*
X006637Y011331D01*
X004587Y011781D02*
X004587Y012381D01*
X004587Y012631D01*
X004537Y012681D01*
X004887Y012681D01*
X004537Y012681D02*
X004287Y012681D01*
X002337Y012681D01*
X001537Y013481D01*
X002537Y014681D02*
X002537Y015231D01*
X003444Y016139D01*
X021248Y016139D01*
X020737Y013181D02*
X020737Y012381D01*
X020937Y012181D01*
X021987Y012181D01*
X022137Y012331D01*
X005337Y014281D02*
X005087Y014531D01*
X005037Y014581D01*
X004937Y014681D01*
X003537Y014681D01*
X010687Y005331D02*
X010387Y005031D01*
X010687Y005331D02*
X011337Y005331D01*
D27*
X006987Y006881D03*
X005612Y006506D03*
X001987Y008731D03*
X006737Y010631D03*
X004637Y010731D03*
X004637Y013681D03*
X021937Y002331D03*
X012887Y002081D03*
X003487Y002131D03*
D28*
X004637Y013681D02*
X005337Y013681D01*
M02*
