%
M48
M72
T01C0.0150
T02C0.0276
T03C0.0320
T04C0.0350
T05C0.0354
T06C0.0400
T07C0.0866
%
T01
X2050Y-2300
X-50Y-2200
X2300Y-6050
X-2700Y-4200
X-1200Y-10800
X8200Y-10850
X17250Y-10600
X-50Y750
X925Y-6425
T02
X16350Y1350
X12650Y1350
X12550Y-750
X16250Y-750
X16350Y-2200
X12650Y-2200
X7200Y-250
X7200Y-2250
X11200Y-2250
X11200Y-250
T03
X4700Y-7900
X5200Y-8650
X5700Y-7900
X2350Y-7900
X2850Y-8650
X3350Y-7900
X-50Y-7900
X450Y-8650
X950Y-7900
X3650Y-5600
X4650Y-5600
X-2700Y-1400
X-2700Y-2400
X-2150Y550
X-2150Y1750
X-3150Y550
X-1150Y550
X-1150Y1750
X-3150Y1750
T04
X-2700Y-5800
X-2700Y-6800
T05
X11550Y-3866
X11550Y-5834
X15700Y-3600
X12700Y-3600
X12700Y-5200
X15700Y-5200
T06
X18250Y-4950
X18250Y-3550
T07
X-3013Y3063
X19013Y3063
X-3013Y-11063
X19013Y-11063
M30
