G75*
G70*
%OFA0B0*%
%FSLAX24Y24*%
%IPPOS*%
%LPD*%
%AMOC8*
5,1,8,0,0,1.08239X$1,22.5*
%
%ADD10C,0.0100*%
%ADD11C,0.0000*%
%ADD12C,0.0946*%
%ADD13R,0.0395X0.0434*%
%ADD14C,0.0730*%
%ADD15C,0.0820*%
%ADD16C,0.0107*%
%ADD17C,0.0120*%
%ADD18R,0.0580X0.0680*%
%ADD19R,0.0680X0.0580*%
%ADD20C,0.0674*%
%ADD21C,0.0640*%
%ADD22R,0.0730X0.0730*%
%ADD23OC8,0.0640*%
%ADD24C,0.0596*%
%ADD25R,0.0880X0.0880*%
%ADD26C,0.0880*%
D10*
X001387Y001081D02*
X023987Y001081D01*
X024031Y001083D01*
X024074Y001089D01*
X024116Y001098D01*
X024158Y001111D01*
X024198Y001128D01*
X024237Y001148D01*
X024274Y001171D01*
X024308Y001198D01*
X024341Y001227D01*
X024370Y001260D01*
X024397Y001294D01*
X024420Y001331D01*
X024440Y001370D01*
X024457Y001410D01*
X024470Y001452D01*
X024479Y001494D01*
X024485Y001537D01*
X024487Y001581D01*
X024487Y016281D01*
X024485Y016325D01*
X024479Y016368D01*
X024470Y016410D01*
X024457Y016452D01*
X024440Y016492D01*
X024420Y016531D01*
X024397Y016568D01*
X024370Y016602D01*
X024341Y016635D01*
X024308Y016664D01*
X024274Y016691D01*
X024237Y016714D01*
X024198Y016734D01*
X024158Y016751D01*
X024116Y016764D01*
X024074Y016773D01*
X024031Y016779D01*
X023987Y016781D01*
X001387Y016781D01*
X001343Y016779D01*
X001300Y016773D01*
X001258Y016764D01*
X001216Y016751D01*
X001176Y016734D01*
X001137Y016714D01*
X001100Y016691D01*
X001066Y016664D01*
X001033Y016635D01*
X001004Y016602D01*
X000977Y016568D01*
X000954Y016531D01*
X000934Y016492D01*
X000917Y016452D01*
X000904Y016410D01*
X000895Y016368D01*
X000889Y016325D01*
X000887Y016281D01*
X000887Y001581D01*
X000889Y001537D01*
X000895Y001494D01*
X000904Y001452D01*
X000917Y001410D01*
X000934Y001370D01*
X000954Y001331D01*
X000977Y001294D01*
X001004Y001260D01*
X001033Y001227D01*
X001066Y001198D01*
X001100Y001171D01*
X001137Y001148D01*
X001176Y001128D01*
X001216Y001111D01*
X001258Y001098D01*
X001300Y001089D01*
X001343Y001083D01*
X001387Y001081D01*
D11*
X001241Y001868D02*
X001243Y001909D01*
X001249Y001950D01*
X001259Y001990D01*
X001272Y002029D01*
X001289Y002066D01*
X001310Y002102D01*
X001334Y002136D01*
X001361Y002167D01*
X001390Y002195D01*
X001423Y002221D01*
X001457Y002243D01*
X001494Y002262D01*
X001532Y002277D01*
X001572Y002289D01*
X001612Y002297D01*
X001653Y002301D01*
X001695Y002301D01*
X001736Y002297D01*
X001776Y002289D01*
X001816Y002277D01*
X001854Y002262D01*
X001890Y002243D01*
X001925Y002221D01*
X001958Y002195D01*
X001987Y002167D01*
X002014Y002136D01*
X002038Y002102D01*
X002059Y002066D01*
X002076Y002029D01*
X002089Y001990D01*
X002099Y001950D01*
X002105Y001909D01*
X002107Y001868D01*
X002105Y001827D01*
X002099Y001786D01*
X002089Y001746D01*
X002076Y001707D01*
X002059Y001670D01*
X002038Y001634D01*
X002014Y001600D01*
X001987Y001569D01*
X001958Y001541D01*
X001925Y001515D01*
X001891Y001493D01*
X001854Y001474D01*
X001816Y001459D01*
X001776Y001447D01*
X001736Y001439D01*
X001695Y001435D01*
X001653Y001435D01*
X001612Y001439D01*
X001572Y001447D01*
X001532Y001459D01*
X001494Y001474D01*
X001458Y001493D01*
X001423Y001515D01*
X001390Y001541D01*
X001361Y001569D01*
X001334Y001600D01*
X001310Y001634D01*
X001289Y001670D01*
X001272Y001707D01*
X001259Y001746D01*
X001249Y001786D01*
X001243Y001827D01*
X001241Y001868D01*
X023266Y001868D02*
X023268Y001909D01*
X023274Y001950D01*
X023284Y001990D01*
X023297Y002029D01*
X023314Y002066D01*
X023335Y002102D01*
X023359Y002136D01*
X023386Y002167D01*
X023415Y002195D01*
X023448Y002221D01*
X023482Y002243D01*
X023519Y002262D01*
X023557Y002277D01*
X023597Y002289D01*
X023637Y002297D01*
X023678Y002301D01*
X023720Y002301D01*
X023761Y002297D01*
X023801Y002289D01*
X023841Y002277D01*
X023879Y002262D01*
X023915Y002243D01*
X023950Y002221D01*
X023983Y002195D01*
X024012Y002167D01*
X024039Y002136D01*
X024063Y002102D01*
X024084Y002066D01*
X024101Y002029D01*
X024114Y001990D01*
X024124Y001950D01*
X024130Y001909D01*
X024132Y001868D01*
X024130Y001827D01*
X024124Y001786D01*
X024114Y001746D01*
X024101Y001707D01*
X024084Y001670D01*
X024063Y001634D01*
X024039Y001600D01*
X024012Y001569D01*
X023983Y001541D01*
X023950Y001515D01*
X023916Y001493D01*
X023879Y001474D01*
X023841Y001459D01*
X023801Y001447D01*
X023761Y001439D01*
X023720Y001435D01*
X023678Y001435D01*
X023637Y001439D01*
X023597Y001447D01*
X023557Y001459D01*
X023519Y001474D01*
X023483Y001493D01*
X023448Y001515D01*
X023415Y001541D01*
X023386Y001569D01*
X023359Y001600D01*
X023335Y001634D01*
X023314Y001670D01*
X023297Y001707D01*
X023284Y001746D01*
X023274Y001786D01*
X023268Y001827D01*
X023266Y001868D01*
X023266Y015994D02*
X023268Y016035D01*
X023274Y016076D01*
X023284Y016116D01*
X023297Y016155D01*
X023314Y016192D01*
X023335Y016228D01*
X023359Y016262D01*
X023386Y016293D01*
X023415Y016321D01*
X023448Y016347D01*
X023482Y016369D01*
X023519Y016388D01*
X023557Y016403D01*
X023597Y016415D01*
X023637Y016423D01*
X023678Y016427D01*
X023720Y016427D01*
X023761Y016423D01*
X023801Y016415D01*
X023841Y016403D01*
X023879Y016388D01*
X023915Y016369D01*
X023950Y016347D01*
X023983Y016321D01*
X024012Y016293D01*
X024039Y016262D01*
X024063Y016228D01*
X024084Y016192D01*
X024101Y016155D01*
X024114Y016116D01*
X024124Y016076D01*
X024130Y016035D01*
X024132Y015994D01*
X024130Y015953D01*
X024124Y015912D01*
X024114Y015872D01*
X024101Y015833D01*
X024084Y015796D01*
X024063Y015760D01*
X024039Y015726D01*
X024012Y015695D01*
X023983Y015667D01*
X023950Y015641D01*
X023916Y015619D01*
X023879Y015600D01*
X023841Y015585D01*
X023801Y015573D01*
X023761Y015565D01*
X023720Y015561D01*
X023678Y015561D01*
X023637Y015565D01*
X023597Y015573D01*
X023557Y015585D01*
X023519Y015600D01*
X023483Y015619D01*
X023448Y015641D01*
X023415Y015667D01*
X023386Y015695D01*
X023359Y015726D01*
X023335Y015760D01*
X023314Y015796D01*
X023297Y015833D01*
X023284Y015872D01*
X023274Y015912D01*
X023268Y015953D01*
X023266Y015994D01*
X001241Y015994D02*
X001243Y016035D01*
X001249Y016076D01*
X001259Y016116D01*
X001272Y016155D01*
X001289Y016192D01*
X001310Y016228D01*
X001334Y016262D01*
X001361Y016293D01*
X001390Y016321D01*
X001423Y016347D01*
X001457Y016369D01*
X001494Y016388D01*
X001532Y016403D01*
X001572Y016415D01*
X001612Y016423D01*
X001653Y016427D01*
X001695Y016427D01*
X001736Y016423D01*
X001776Y016415D01*
X001816Y016403D01*
X001854Y016388D01*
X001890Y016369D01*
X001925Y016347D01*
X001958Y016321D01*
X001987Y016293D01*
X002014Y016262D01*
X002038Y016228D01*
X002059Y016192D01*
X002076Y016155D01*
X002089Y016116D01*
X002099Y016076D01*
X002105Y016035D01*
X002107Y015994D01*
X002105Y015953D01*
X002099Y015912D01*
X002089Y015872D01*
X002076Y015833D01*
X002059Y015796D01*
X002038Y015760D01*
X002014Y015726D01*
X001987Y015695D01*
X001958Y015667D01*
X001925Y015641D01*
X001891Y015619D01*
X001854Y015600D01*
X001816Y015585D01*
X001776Y015573D01*
X001736Y015565D01*
X001695Y015561D01*
X001653Y015561D01*
X001612Y015565D01*
X001572Y015573D01*
X001532Y015585D01*
X001494Y015600D01*
X001458Y015619D01*
X001423Y015641D01*
X001390Y015667D01*
X001361Y015695D01*
X001334Y015726D01*
X001310Y015760D01*
X001289Y015796D01*
X001272Y015833D01*
X001259Y015872D01*
X001249Y015912D01*
X001243Y015953D01*
X001241Y015994D01*
D12*
X001674Y015994D03*
X023699Y015994D03*
X023699Y001868D03*
X001674Y001868D03*
D13*
X012163Y004175D03*
X012911Y004175D03*
X012537Y003348D03*
X007211Y007887D03*
X006463Y007887D03*
X004737Y007848D03*
X005111Y008675D03*
X004363Y008675D03*
X006837Y008714D03*
D14*
X001987Y010531D03*
X001987Y006131D03*
X017337Y010731D03*
X017237Y012181D03*
X020937Y012181D03*
X021037Y010731D03*
X021037Y014281D03*
X017337Y014281D03*
D15*
X016237Y009065D03*
X016237Y007097D03*
X010387Y005031D03*
X009387Y005031D03*
X008037Y005031D03*
X007037Y005031D03*
X005637Y005031D03*
X004637Y005031D03*
X005137Y004281D03*
X007537Y004281D03*
X009887Y004281D03*
D16*
X011175Y004569D02*
X011175Y004893D01*
X011499Y004893D01*
X011499Y004569D01*
X011175Y004569D01*
X011175Y004675D02*
X011499Y004675D01*
X011499Y004781D02*
X011175Y004781D01*
X011175Y004887D02*
X011499Y004887D01*
X012349Y004893D02*
X012349Y004569D01*
X012025Y004569D01*
X012025Y004893D01*
X012349Y004893D01*
X012349Y004675D02*
X012025Y004675D01*
X012025Y004781D02*
X012349Y004781D01*
X012349Y004887D02*
X012025Y004887D01*
X013099Y004893D02*
X013099Y004569D01*
X012775Y004569D01*
X012775Y004893D01*
X013099Y004893D01*
X013099Y004675D02*
X012775Y004675D01*
X012775Y004781D02*
X013099Y004781D01*
X013099Y004887D02*
X012775Y004887D01*
X013099Y005169D02*
X013099Y005493D01*
X013099Y005169D02*
X012775Y005169D01*
X012775Y005493D01*
X013099Y005493D01*
X013099Y005275D02*
X012775Y005275D01*
X012775Y005381D02*
X013099Y005381D01*
X013099Y005487D02*
X012775Y005487D01*
X012349Y005493D02*
X012349Y005169D01*
X012025Y005169D01*
X012025Y005493D01*
X012349Y005493D01*
X012349Y005275D02*
X012025Y005275D01*
X012025Y005381D02*
X012349Y005381D01*
X012349Y005487D02*
X012025Y005487D01*
X011175Y005493D02*
X011175Y005169D01*
X011175Y005493D02*
X011499Y005493D01*
X011499Y005169D01*
X011175Y005169D01*
X011175Y005275D02*
X011499Y005275D01*
X011499Y005381D02*
X011175Y005381D01*
X011175Y005487D02*
X011499Y005487D01*
X008199Y005969D02*
X007875Y005969D01*
X007875Y006293D01*
X008199Y006293D01*
X008199Y005969D01*
X008199Y006075D02*
X007875Y006075D01*
X007875Y006181D02*
X008199Y006181D01*
X008199Y006287D02*
X007875Y006287D01*
X007599Y005969D02*
X007275Y005969D01*
X007275Y006293D01*
X007599Y006293D01*
X007599Y005969D01*
X007599Y006075D02*
X007275Y006075D01*
X007275Y006181D02*
X007599Y006181D01*
X007599Y006287D02*
X007275Y006287D01*
X006749Y006293D02*
X006425Y006293D01*
X006749Y006293D02*
X006749Y005969D01*
X006425Y005969D01*
X006425Y006293D01*
X006425Y006075D02*
X006749Y006075D01*
X006749Y006181D02*
X006425Y006181D01*
X006425Y006287D02*
X006749Y006287D01*
X006149Y006293D02*
X005825Y006293D01*
X006149Y006293D02*
X006149Y005969D01*
X005825Y005969D01*
X005825Y006293D01*
X005825Y006075D02*
X006149Y006075D01*
X006149Y006181D02*
X005825Y006181D01*
X005825Y006287D02*
X006149Y006287D01*
X005349Y006293D02*
X005025Y006293D01*
X005349Y006293D02*
X005349Y005969D01*
X005025Y005969D01*
X005025Y006293D01*
X005025Y006075D02*
X005349Y006075D01*
X005349Y006181D02*
X005025Y006181D01*
X005025Y006287D02*
X005349Y006287D01*
X005349Y006893D02*
X005025Y006893D01*
X005349Y006893D02*
X005349Y006569D01*
X005025Y006569D01*
X005025Y006893D01*
X005025Y006675D02*
X005349Y006675D01*
X005349Y006781D02*
X005025Y006781D01*
X005025Y006887D02*
X005349Y006887D01*
X004749Y006893D02*
X004425Y006893D01*
X004749Y006893D02*
X004749Y006569D01*
X004425Y006569D01*
X004425Y006893D01*
X004425Y006675D02*
X004749Y006675D01*
X004749Y006781D02*
X004425Y006781D01*
X004425Y006887D02*
X004749Y006887D01*
X004749Y006293D02*
X004425Y006293D01*
X004749Y006293D02*
X004749Y005969D01*
X004425Y005969D01*
X004425Y006293D01*
X004425Y006075D02*
X004749Y006075D01*
X004749Y006181D02*
X004425Y006181D01*
X004425Y006287D02*
X004749Y006287D01*
X005625Y007769D02*
X005625Y008093D01*
X005949Y008093D01*
X005949Y007769D01*
X005625Y007769D01*
X005625Y007875D02*
X005949Y007875D01*
X005949Y007981D02*
X005625Y007981D01*
X005625Y008087D02*
X005949Y008087D01*
X005625Y008369D02*
X005625Y008693D01*
X005949Y008693D01*
X005949Y008369D01*
X005625Y008369D01*
X005625Y008475D02*
X005949Y008475D01*
X005949Y008581D02*
X005625Y008581D01*
X005625Y008687D02*
X005949Y008687D01*
X006249Y009419D02*
X006249Y009743D01*
X006249Y009419D02*
X005925Y009419D01*
X005925Y009743D01*
X006249Y009743D01*
X006249Y009525D02*
X005925Y009525D01*
X005925Y009631D02*
X006249Y009631D01*
X006249Y009737D02*
X005925Y009737D01*
X005549Y009743D02*
X005549Y009419D01*
X005225Y009419D01*
X005225Y009743D01*
X005549Y009743D01*
X005549Y009525D02*
X005225Y009525D01*
X005225Y009631D02*
X005549Y009631D01*
X005549Y009737D02*
X005225Y009737D01*
X005549Y010019D02*
X005549Y010343D01*
X005549Y010019D02*
X005225Y010019D01*
X005225Y010343D01*
X005549Y010343D01*
X005549Y010125D02*
X005225Y010125D01*
X005225Y010231D02*
X005549Y010231D01*
X005549Y010337D02*
X005225Y010337D01*
X006249Y010343D02*
X006249Y010019D01*
X005925Y010019D01*
X005925Y010343D01*
X006249Y010343D01*
X006249Y010125D02*
X005925Y010125D01*
X005925Y010231D02*
X006249Y010231D01*
X006249Y010337D02*
X005925Y010337D01*
X006575Y010343D02*
X006575Y010019D01*
X006575Y010343D02*
X006899Y010343D01*
X006899Y010019D01*
X006575Y010019D01*
X006575Y010125D02*
X006899Y010125D01*
X006899Y010231D02*
X006575Y010231D01*
X006575Y010337D02*
X006899Y010337D01*
X006575Y009743D02*
X006575Y009419D01*
X006575Y009743D02*
X006899Y009743D01*
X006899Y009419D01*
X006575Y009419D01*
X006575Y009525D02*
X006899Y009525D01*
X006899Y009631D02*
X006575Y009631D01*
X006575Y009737D02*
X006899Y009737D01*
X004749Y011019D02*
X004749Y011343D01*
X004749Y011019D02*
X004425Y011019D01*
X004425Y011343D01*
X004749Y011343D01*
X004749Y011125D02*
X004425Y011125D01*
X004425Y011231D02*
X004749Y011231D01*
X004749Y011337D02*
X004425Y011337D01*
X004749Y011619D02*
X004749Y011943D01*
X004749Y011619D02*
X004425Y011619D01*
X004425Y011943D01*
X004749Y011943D01*
X004749Y011725D02*
X004425Y011725D01*
X004425Y011831D02*
X004749Y011831D01*
X004749Y011937D02*
X004425Y011937D01*
X005499Y013519D02*
X005499Y013843D01*
X005499Y013519D02*
X005175Y013519D01*
X005175Y013843D01*
X005499Y013843D01*
X005499Y013625D02*
X005175Y013625D01*
X005175Y013731D02*
X005499Y013731D01*
X005499Y013837D02*
X005175Y013837D01*
X005499Y014119D02*
X005499Y014443D01*
X005499Y014119D02*
X005175Y014119D01*
X005175Y014443D01*
X005499Y014443D01*
X005499Y014225D02*
X005175Y014225D01*
X005175Y014331D02*
X005499Y014331D01*
X005499Y014437D02*
X005175Y014437D01*
X011225Y004193D02*
X011225Y003869D01*
X011225Y004193D02*
X011549Y004193D01*
X011549Y003869D01*
X011225Y003869D01*
X011225Y003975D02*
X011549Y003975D01*
X011549Y004081D02*
X011225Y004081D01*
X011225Y004187D02*
X011549Y004187D01*
X011225Y003593D02*
X011225Y003269D01*
X011225Y003593D02*
X011549Y003593D01*
X011549Y003269D01*
X011225Y003269D01*
X011225Y003375D02*
X011549Y003375D01*
X011549Y003481D02*
X011225Y003481D01*
X011225Y003587D02*
X011549Y003587D01*
X005349Y003269D02*
X005025Y003269D01*
X005025Y003593D01*
X005349Y003593D01*
X005349Y003269D01*
X005349Y003375D02*
X005025Y003375D01*
X005025Y003481D02*
X005349Y003481D01*
X005349Y003587D02*
X005025Y003587D01*
X004749Y003269D02*
X004425Y003269D01*
X004425Y003593D01*
X004749Y003593D01*
X004749Y003269D01*
X004749Y003375D02*
X004425Y003375D01*
X004425Y003481D02*
X004749Y003481D01*
X004749Y003587D02*
X004425Y003587D01*
D17*
X004382Y009351D02*
X004382Y009711D01*
X004892Y009711D01*
X004892Y009351D01*
X004382Y009351D01*
X004382Y009470D02*
X004892Y009470D01*
X004892Y009589D02*
X004382Y009589D01*
X004382Y009708D02*
X004892Y009708D01*
X004382Y010051D02*
X004382Y010411D01*
X004892Y010411D01*
X004892Y010051D01*
X004382Y010051D01*
X004382Y010170D02*
X004892Y010170D01*
X004892Y010289D02*
X004382Y010289D01*
X004382Y010408D02*
X004892Y010408D01*
D18*
X005537Y011331D03*
X006637Y011331D03*
X017437Y013181D03*
X018537Y013181D03*
X019637Y013181D03*
X020737Y013181D03*
D19*
X022137Y012331D03*
X022137Y011231D03*
D20*
X020387Y009331D03*
X017387Y009331D03*
X017387Y007731D03*
X020387Y007731D03*
D21*
X009337Y007331D03*
X008337Y007331D03*
X003537Y013481D03*
X001537Y013481D03*
X001537Y014681D03*
X003537Y014681D03*
D22*
X001987Y011531D03*
X001987Y007131D03*
D23*
X002537Y013481D03*
X002537Y014681D03*
D24*
X011887Y012681D03*
X015887Y012681D03*
X015887Y010681D03*
X011887Y010681D03*
D25*
X022937Y007981D03*
D26*
X022937Y009381D03*
M02*
